<svg version="1.1" viewBox="0 0 500 300" xmlns="http://www.w3.org/2000/svg">
  <rect id="background" width="500" height="300" fill-opacity="0" />
  <g id="emblem">
    <circle id="emblem-circle" cx="250" cy="94.215" r="45" fill="#ffd60a" />
    <path
      id="emblem-path"
      fill="#001d3d"
      d="m250 44.215a50 50 0 0 0-50 50 50 50 0 0 0 50 50 50 50 0 0 0 50-50 50 50 0 0 0-50-50zm0 10v2.5a37.5 37.5 0 0 0-37.5 37.5h-2.5a40 40 0 0 1 40-40zm0 5v2.5a32.5 32.5 0 0 0-32.5 32.5h-2.5a35 35 0 0 1 35-35zm0 5v2.5c-15.188 0-27.5 12.312-27.5 27.5h-2.5c0-16.569 13.432-30 30-30zm28.285 1.7148-12.121 24.959c0.2198 1.0741 0.3359 2.1871 0.3359 3.3262 0 9.1127-7.3873 16.5-16.5 16.5-1.1391 0-2.2521-0.11615-3.3262-0.33594l-24.959 12.121 12.121-24.959c-0.2198-1.0741-0.3359-2.1871-0.3359-3.3262 0-9.1127 7.3873-16.5 16.5-16.5 1.1391 0 2.2521 0.11615 3.3262 0.33594zm-28.285 23.285c-2.7614 0-5 2.2386-5 5s2.2386 5 5 5 5-2.2386 5-5-2.2386-5-5-5zm27.5 5h2.5c0 16.569-13.432 30-30 30v-2.5c15.188 0 27.5-12.312 27.5-27.5zm5 0h2.5a35 35 0 0 1-35 35v-2.5a32.5 32.5 0 0 0 32.5-32.5zm5 0h2.5a40 40 0 0 1-40 40v-2.5a37.5 37.5 0 0 0 37.5-37.5z"
    />
  </g>
  <path
    id="wordmark"
    fill="#001d3d"
    d="m71.488 172.77v0.96q-1.44 0.288-2.208 1.008-0.72 0.72-0.96 2.256-0.24 1.488-0.24 4.224v25.536q-0.72-0.096-1.584-0.096-0.816 0-1.776 0.096l-21.264-23.232v13.824q0 3.216 0.24 4.944 0.288 1.68 1.296 2.448 1.056 0.72 3.312 1.056v0.96q-0.96-0.096-2.496-0.096-1.536-0.048-2.88-0.048-1.056 0-2.16 0.048-1.104 0-1.824 0.096v-0.96q1.488-0.336 2.208-1.008 0.72-0.72 0.96-2.256t0.24-4.224v-20.448q0-1.776-0.24-2.592-0.24-0.864-1.008-1.152-0.72-0.336-2.16-0.384v-0.96q0.72 0.048 1.824 0.096t2.16 0.048q1.2 0 2.352-0.048t2.064-0.096l19.632 20.736v-11.328q0-3.216-0.288-4.896-0.24-1.728-1.248-2.496t-3.312-1.056v-0.96q0.96 0.048 2.496 0.096t2.88 0.048q1.104 0 2.16-0.048 1.104-0.048 1.824-0.096zm13.968 8.4q3.744 0 6.48 1.296 2.784 1.248 4.32 4.128t1.536 7.728-1.536 7.728-4.32 4.128q-2.736 1.248-6.48 1.248-3.696 0-6.48-1.248t-4.32-4.128-1.536-7.728 1.536-7.728 4.32-4.128q2.784-1.296 6.48-1.296zm0 0.96q-1.44 0-2.4 2.88t-0.96 9.312 0.96 9.312q0.96 2.832 2.4 2.832t2.4-2.832q0.96-2.88 0.96-9.312t-0.96-9.312-2.4-2.88zm27.312-0.288v1.008q-1.008 0-1.728 0.144-0.672 0.096-0.912 0.48t-0.048 1.2l3.984 13.296 4.128-16.08h0.048q1.248 0.096 2.544 0.096 1.296-0.048 2.544-0.096l5.472 17.568 2.064-6.864q1.008-3.312 0.768-5.376-0.24-2.112-1.296-3.168t-2.592-1.2v-1.008q0.672 0.048 1.728 0.096 1.104 0.048 2.16 0.096 1.056 0 1.632 0 0.864 0 2.016-0.048t1.68-0.144v1.008q-0.912 0.336-1.776 1.296t-1.632 3.36l-6 19.248q-1.152-0.096-2.352-0.096-1.152 0-2.304 0.096l-5.712-16.608-4.368 16.608q-1.152-0.096-2.352-0.096-1.152 0-2.304 0.096l-7.392-21.216q-0.672-1.92-1.488-2.304-0.768-0.384-1.296-0.384v-1.008q1.92 0.144 3.984 0.24 2.064 0.048 4.56 0.048 1.488 0 3.12-0.096 1.68-0.096 3.12-0.192zm34.656-9.072q1.392 0.048 3.648 0.096 2.304 0.048 4.608 0.048 2.4 0 4.608-0.048t3.12-0.048q7.296 0 10.848 2.64 3.6 2.64 3.6 6.816 0 1.728-0.72 3.648-0.72 1.872-2.448 3.504-1.728 1.584-4.752 2.592-2.976 1.008-7.584 1.008h-1.776v8.16q0 1.968 0.384 2.928 0.432 0.96 1.584 1.248t3.36 0.288v1.104q-1.632-0.048-4.272-0.096t-5.616-0.048q-2.208 0-4.416 0.048t-4.176 0.096v-0.96q1.488-0.096 2.208-0.384t0.96-1.152 0.24-2.592v-23.808q0-1.776-0.24-2.592-0.24-0.864-1.008-1.152-0.72-0.336-2.16-0.384zm13.152 19.296h1.296q2.448 0 3.696-1.296 1.296-1.296 1.728-3.408 0.48-2.112 0.48-4.56 0-4.56-1.056-6.816-1.008-2.256-3.552-2.256-1.632 0-2.112 0.816t-0.48 3.312zm29.712-22.848v33.072q0 2.016 0.576 2.736 0.624 0.72 2.112 0.72v1.008q-0.96-0.048-2.88-0.096-1.92-0.096-3.936-0.096t-4.08 0.096q-2.064 0.048-3.12 0.096v-1.008q1.488 0 2.064-0.72 0.624-0.72 0.624-2.736v-27.312q0-2.16-0.576-3.168-0.576-1.056-2.112-1.056v-1.008q1.536 0.144 2.976 0.144 2.4 0 4.464-0.144 2.112-0.192 3.888-0.528zm11.04 37.872q-2.256 0-3.696-0.864t-2.112-2.256q-0.624-1.392-0.624-2.928 0-2.016 0.912-3.264 0.912-1.296 2.352-2.064 1.488-0.816 3.12-1.344t3.072-1.008q1.488-0.528 2.4-1.2 0.912-0.72 0.912-1.824v-4.272q0-0.768-0.288-1.68-0.24-0.912-0.96-1.584t-2.16-0.672q-0.768 0-1.488 0.24-0.672 0.192-1.2 0.576 1.68 0.624 2.448 1.776 0.768 1.104 0.768 2.448 0 1.92-1.344 3.024t-3.168 1.104q-1.92 0-2.976-1.2t-1.056-2.976q0-1.488 0.72-2.496 0.768-1.056 2.256-1.92 1.44-0.816 3.456-1.152 2.016-0.384 4.224-0.384 2.352 0 4.368 0.48 2.016 0.432 3.456 1.92 1.008 1.056 1.296 2.64t0.288 4.08v12.864q0 1.2 0.144 1.632 0.192 0.432 0.624 0.432 0.384 0 0.72-0.24 0.384-0.24 0.72-0.48l0.48 0.816q-1.056 0.912-2.64 1.344-1.536 0.432-3.264 0.432-2.064 0-3.216-0.48-1.104-0.528-1.584-1.344-0.432-0.864-0.48-1.824-1.008 1.584-2.544 2.64-1.488 1.008-3.936 1.008zm4.56-3.84q0.528 0 0.912-0.144 0.432-0.192 0.864-0.672v-10.128q-0.336 0.624-0.912 1.248-0.528 0.576-1.104 1.2t-1.104 1.344q-0.48 0.72-0.816 1.68-0.288 0.912-0.288 2.16 0 1.824 0.672 2.592 0.72 0.72 1.776 0.72zm38.112-21.408v1.008q-0.912 0.336-1.776 1.344-0.816 0.96-1.632 3.312l-6 17.856-2.016 5.808q-0.432 1.2-0.96 2.064-0.48 0.864-1.152 1.392-0.624 0.48-1.68 0.816-1.008 0.336-2.784 0.336-1.344 0-2.88-0.432-1.488-0.432-2.592-1.44-1.056-0.96-1.056-2.64t1.296-2.688 3.408-1.008q1.968 0 3.12 0.864 1.2 0.912 1.2 2.688 0 1.056-0.768 2.112-0.72 1.056-2.352 1.584 0.384 0.048 0.864 0.048 0.48 0.048 0.768 0.048 1.536 0 2.736-0.96 1.2-0.912 1.824-2.88l0.24-0.816-11.184-24.72q-0.816-1.824-1.536-2.256t-1.248-0.432v-1.008q1.92 0.144 3.984 0.24 2.064 0.048 3.84 0.048 2.256 0 3.888-0.096t3.072-0.192v1.008q-0.864 0-1.632 0.096t-1.104 0.48q-0.336 0.336 0.048 1.248l5.904 14.064 2.016-6.144q1.104-3.264 0.912-5.376-0.144-2.112-1.104-3.168-0.96-1.104-2.4-1.2v-1.008q0.672 0.048 1.632 0.096t1.872 0.096q0.96 0 1.536 0 0.864 0 2.016-0.048t1.68-0.144zm7.9199-12.624q2.496 0 3.84 1.056 1.392 1.008 1.392 3.072t-1.392 3.12q-1.344 1.008-3.84 1.008t-3.888-1.008q-1.344-1.056-1.344-3.12t1.344-3.072q1.392-1.056 3.888-1.056zm4.608 12.096v20.976q0 2.016 0.576 2.736 0.624 0.72 2.112 0.72v1.008q-0.96-0.048-2.88-0.096-1.92-0.096-3.936-0.096t-4.08 0.096q-2.064 0.048-3.12 0.096v-1.008q1.488 0 2.064-0.72 0.624-0.72 0.624-2.736v-15.216q0-2.16-0.576-3.168-0.576-1.056-2.112-1.056v-1.008q1.536 0.144 2.976 0.144 2.4 0 4.464-0.144 2.112-0.192 3.888-0.528zm23.472-0.144q2.208 0 3.456 0.576 1.296 0.528 1.968 1.344 0.72 0.864 1.056 2.304t0.336 3.888v13.008q0 2.016 0.576 2.736 0.624 0.72 2.112 0.72v1.008q-0.96-0.048-2.928-0.096-1.92-0.096-3.792-0.096-2.016 0-3.936 0.096-1.92 0.048-2.88 0.096v-1.008q1.248 0 1.728-0.72t0.48-2.736v-15.6q0-1.008-0.24-1.68t-0.768-1.008q-0.48-0.336-1.344-0.336t-1.68 0.432q-0.768 0.432-1.296 1.248-0.48 0.768-0.48 1.776v15.168q0 2.016 0.48 2.736 0.528 0.72 1.728 0.72v1.008q-0.912-0.048-2.688-0.096-1.776-0.096-3.648-0.096-2.016 0-4.08 0.096-2.064 0.048-3.12 0.096v-1.008q1.488 0 2.064-0.72 0.624-0.72 0.624-2.736v-15.216q0-2.16-0.576-3.168-0.576-1.056-2.112-1.056v-1.008q1.536 0.144 2.976 0.144 2.4 0 4.464-0.144 2.112-0.192 3.888-0.528v3.456q1.152-1.92 3.072-2.736 1.968-0.864 4.56-0.864zm20.4 34.608q-3.264 0-5.664-0.528-2.352-0.48-3.648-1.44-1.296-0.912-1.296-2.256t1.344-2.544q1.344-1.152 4.272-1.824l0.48 0.768q-0.768 0.912-1.056 1.632-0.24 0.768-0.24 1.44 0 1.872 1.68 2.88 1.728 1.056 4.8 1.056 2.16 0 3.6-0.624 1.488-0.576 2.208-1.632 0.768-1.056 0.768-2.4t-1.008-2.304-4.08-0.96h-2.592q-2.208 0-3.696-0.576t-2.256-1.584q-0.768-1.056-0.768-2.448 0-2.256 1.776-3.792 1.44-1.248 3.552-2.256-1.488-0.24-2.784-0.672-2.352-0.816-3.696-2.496-1.344-1.728-1.344-4.368t1.344-4.32q1.344-1.728 3.648-2.544 2.352-0.816 5.328-0.816t5.328 0.816q1.392 0.48 2.448 1.296 0.576-0.816 1.44-1.488 1.584-1.2 3.504-1.2 1.68 0 2.496 0.912t0.816 2.256q0 1.392-0.768 2.16-0.72 0.768-1.776 0.768-0.912 0-1.68-0.624-0.72-0.624-0.816-1.872-0.096-1.056 0.672-2.64-1.392 0.576-2.208 1.344-0.48 0.48-0.912 1.104 0.24 0.24 0.432 0.48 1.344 1.728 1.344 4.368t-1.344 4.368q-1.344 1.68-3.696 2.496-2.304 0.816-5.28 0.816-0.672 0-1.344-0.048-0.336 0.288-0.72 0.624-0.528 0.48-0.528 1.392 0 1.536 1.728 1.536h4.656q3.12 0 5.424 0.672 2.352 0.672 3.648 2.208 1.344 1.488 1.344 3.936 0 2.4-1.584 4.416-1.536 2.064-4.8 3.264-3.264 1.248-8.496 1.248zm0.672-20.112q0.912 0 1.44-1.488t0.528-5.328-0.528-5.328-1.44-1.488-1.44 1.488-0.528 5.328 0.528 5.328 1.44 1.488zm63.984 9.36 0.912 0.24q-0.24 3.072-1.104 5.376t-2.4 3.456q-1.056 0.816-2.688 1.248t-3.312 0.432q-2.688 0-5.328-0.816-2.592-0.768-5.232-1.968-2.592-1.152-5.376-2.304-0.288-0.096-0.624-0.24-0.336-0.096-0.528-0.096-0.912 0.528-2.016 0.864-1.056 0.336-2.016 0.336t-1.632-0.336q-0.624-0.336-0.624-1.104 0-1.488 2.64-1.488 1.68 0 3.648 0.864 1.824-0.48 3.168-1.104 1.248-0.576 2.64-1.056-3.888-0.384-7.008-1.968-4.08-2.064-6.336-5.952t-2.256-9.36q0-5.376 2.304-9.408 2.352-4.032 6.432-6.288t9.408-2.256q5.424 0 9.504 2.064t6.336 5.952q2.256 3.84 2.256 9.36 0 5.376-2.304 9.408t-6.384 6.288q-3.888 2.112-8.88 2.256-1.296 0.144-2.256 0.48-1.152 0.432-2.304 0.912-1.104 0.48-2.64 0.912 4.128 0.096 7.104 0.144 3.024 0.096 5.376-0.048 2.4-0.144 4.56-0.576 2.64-0.576 4.176-1.488 1.584-0.912 2.784-2.736zm-17.52-32.064q-2.4 0-4.176 2.16t-2.736 5.952-0.96 8.784q0 5.088 1.104 8.88 1.104 3.744 2.976 5.808 1.872 2.016 4.128 2.016 2.4 0 4.176-2.16t2.736-5.952q0.96-3.84 0.96-8.784 0-5.136-1.104-8.88t-2.976-5.76q-1.872-2.064-4.128-2.064zm46.32 8.352v20.208q0 2.16 0.576 3.216 0.624 1.008 2.112 1.008v1.008q-1.488-0.144-2.976-0.144-2.4 0-4.464 0.144t-3.888 0.528v-3.456q-1.152 1.92-3.12 2.784-1.92 0.816-4.512 0.816-2.208 0-3.504-0.576-1.248-0.528-1.92-1.344-0.72-0.864-1.056-2.304t-0.336-3.888v-12.24q0-2.16-0.576-3.168-0.576-1.056-2.112-1.056v-1.008q1.536 0.144 2.976 0.144 2.4 0 4.464-0.144 2.112-0.192 3.888-0.528v20.592q0 1.008 0.24 1.68t0.768 1.008 1.344 0.336q0.912 0 1.68-0.432t1.248-1.2q0.528-0.816 0.528-1.824v-14.4q0-2.16-0.576-3.168-0.576-1.056-2.112-1.056v-1.008q1.536 0.144 2.976 0.144 2.4 0 4.464-0.144 2.112-0.192 3.888-0.528zm17.376-0.144q4.224 0 6.624 2.496 2.448 2.448 2.448 8.256h-12.384q-0.048 0.336-0.048 0.72v1.008q0 3.36 0.816 5.232 0.864 1.872 2.112 2.592 1.296 0.72 2.592 0.72 0.672 0 1.584-0.192 0.96-0.192 2.064-0.864 1.104-0.72 2.16-2.16l0.816 0.288q-0.576 1.92-1.872 3.84-1.248 1.872-3.264 3.12-2.016 1.2-4.896 1.2-3.072 0-5.616-1.248-2.496-1.248-3.984-4.128t-1.488-7.728q0-4.608 1.632-7.488 1.632-2.928 4.416-4.272 2.832-1.392 6.288-1.392zm-3.504 9.84h5.568q0.048-2.352-0.192-4.32-0.24-2.016-0.768-3.216t-1.44-1.2q-1.296 0-2.112 2.016t-1.056 6.72zm24.912-9.84q2.112 0 3.696 0.48 1.632 0.432 2.352 0.816 0.768 0.432 1.248 0.24 0.624-0.24 0.816-1.488h0.96q-0.096 1.392-0.144 3.408-0.048 1.968-0.048 5.232h-0.96q-0.192-1.776-0.864-3.504-0.624-1.728-1.872-2.88-1.2-1.152-3.168-1.152-1.2 0-2.016 0.72t-0.816 1.968q0 1.44 0.864 2.592 0.864 1.104 2.208 2.16 1.344 1.008 2.688 2.16 1.488 1.2 2.64 2.352t1.824 2.544q0.72 1.344 0.72 3.216 0 2.16-1.344 3.84-1.296 1.68-3.504 2.64-2.16 0.912-4.848 0.912-1.68 0-2.928-0.384-1.248-0.336-2.016-0.816-0.768-0.384-1.344-0.576-0.528-0.24-1.056-0.24-0.48 0-0.816 0.528-0.336 0.48-0.528 1.152h-0.96q0.096-1.536 0.144-3.744t0.048-5.856h0.96q0.288 2.544 1.104 4.512 0.864 1.968 2.16 3.12 1.344 1.104 3.072 1.104 0.768 0 1.392-0.288t1.008-0.864 0.384-1.488q0-2.112-1.296-3.552-1.248-1.44-3.168-3.168-1.44-1.344-2.736-2.592-1.248-1.296-2.064-2.784-0.816-1.536-0.816-3.408 0-2.16 1.248-3.696 1.296-1.536 3.36-2.352 2.064-0.864 4.416-0.864zm23.664-7.104v7.776h4.704v0.96h-4.704v19.92q0 0.912 0.336 1.344 0.336 0.384 1.104 0.384 0.528 0 1.248-0.288 0.72-0.336 1.344-1.104l0.72 0.576q-1.008 1.728-2.688 2.784-1.632 1.008-4.128 1.008-1.584 0-2.88-0.432-1.248-0.384-2.064-1.2-1.056-1.056-1.344-2.592-0.288-1.584-0.288-4.08v-16.32h-3.648v-0.96h3.648v-5.664q2.544 0 4.608-0.48 2.112-0.528 4.032-1.632z"
  />
  <path
    id="slogan"
    fill="#001d3d"
    d="m112.37 252.27q-0.4355 0-0.9 0.014-0.45 0-0.8419 0.014-0.3919 0-0.6678 0.014l0.1452-0.5226 0.5661-0.058q0.4936-0.043 0.7549-0.1452 0.2758-0.1161 0.4209-0.3483 0.1597-0.2468 0.2904-0.6968l1.8725-6.7355q0.1307-0.4355 0.1162-0.6677-0.014-0.2468-0.2323-0.3629-0.2032-0.1162-0.6822-0.1597l-0.5371-0.058 0.1451-0.5226q0.2613 0 0.6387 0.014 0.392 0.014 0.8565 0.014h0.9145l0.1016 0.014q0.3484-0.014 0.6387-0.014 0.3049 0 0.5371-0.014 0.2468-0.014 0.392-0.014 2.1774 0 3.3822 1.1177 1.2194 1.1178 1.2194 3.1065 0 1.3355-0.5226 2.4387-0.5081 1.1032-1.4516 1.9161-0.9291 0.8129-2.221 1.2629-1.2919 0.4355-2.8306 0.4355-0.2758 0-0.6097-0.014-0.3194-0.014-0.6968-0.014-0.3629-0.014-0.7839-0.014zm2.2791-0.4645q1.1612 0 2.1193-0.4065 0.9726-0.4064 1.6694-1.1468 0.7113-0.7548 1.1032-1.7564 0.3919-1.0161 0.3919-2.221 0-1.8-0.8564-2.758-0.8565-0.9581-2.4678-0.9581h-0.7693l-2.2355 8.0129q-0.2032 0.7403 0 0.9871 0.2177 0.2468 1.0452 0.2468zm10.931-1.35q-0.2032 0.5951-0.1452 0.9435 0.073 0.3484 0.4646 0.3484 0.3338 0 0.6242-0.2613 0.2903-0.2613 0.5371-0.7403l0.2903-0.5371h0.5226l-0.3339 0.6242q-0.2613 0.4935-0.5807 0.8855-0.3048 0.3919-0.6967 0.6096-0.3775 0.2178-0.8565 0.2178-0.6097 0-0.9435-0.2903-0.3194-0.3049-0.3629-0.8275-0.044-0.5225 0.1887-1.2048l1.1322-3.4984q0.2033-0.5951 0.1307-0.929-0.058-0.3484-0.4645-0.3484-0.3194 0-0.6097 0.2613-0.2758 0.2468-0.5516 0.7403l-0.2758 0.5371h-0.5226l0.3193-0.6242q0.2758-0.508 0.5807-0.8855 0.3193-0.3919 0.6968-0.6096 0.3919-0.2178 0.8709-0.2178 0.6097 0 0.9291 0.3049 0.3338 0.2903 0.3774 0.8129 0.058 0.508-0.1887 1.1903zm1.1613-7.3307q-0.4065 0-0.6823-0.2613-0.2612-0.2758-0.2612-0.6677 0-0.421 0.3193-0.7258 0.3194-0.3049 0.7548-0.3049 0.392 0 0.6533 0.2759 0.2758 0.2612 0.2758 0.6532 0 0.4064-0.3194 0.7258-0.3193 0.3048-0.7403 0.3048zm4.6452 9.392q-0.7984 0-1.4226-0.2323-0.6097-0.2323-0.9581-0.6242-0.3484-0.4064-0.3484-0.9 0-0.4064 0.2178-0.6387 0.2177-0.2468 0.5806-0.2468 0.3339 0 0.5081 0.2032 0.1887 0.1888 0.2032 0.5517 0.014 0.1451 0 0.3338t-0.014 0.3194q0.043 0.3774 0.3339 0.5516 0.3048 0.1742 0.8855 0.1742 0.8129 0 1.2774-0.3484 0.479-0.3629 0.479-0.9726 0-0.4355-0.2322-0.7693-0.2178-0.3339-0.5662-0.5952-0.3338-0.2613-0.7258-0.5081-0.3919-0.2612-0.7403-0.5516-0.3484-0.2903-0.5661-0.6677-0.2178-0.3774-0.2178-0.8855 0-0.9145 0.7694-1.4806 0.7693-0.5807 1.9597-0.5807 0.7258 0 1.2919 0.2178 0.5661 0.2032 0.8855 0.5661 0.3338 0.3629 0.3338 0.8274 0 0.3629-0.1887 0.5807-0.1887 0.2177-0.5225 0.2177-0.3049 0-0.5081-0.1742-0.1887-0.1742-0.2032-0.479 0-0.1597 0.014-0.3194 0.014-0.1742 0-0.2758-0.014-0.3339-0.2904-0.4935-0.2758-0.1597-0.7983-0.1597-0.6823 0-1.0597 0.3048-0.3774 0.2903-0.3774 0.7984 0 0.421 0.2177 0.7403 0.2323 0.3049 0.5661 0.5807 0.3484 0.2613 0.7404 0.5226 0.3919 0.2612 0.7258 0.5661 0.3483 0.2903 0.5661 0.6822 0.2322 0.3775 0.2322 0.9 0 0.6678-0.4064 1.1758-0.3919 0.5081-1.0742 0.7984-0.6823 0.2904-1.5677 0.2904zm7.6064 0q-1.0887 0-1.6984-0.7258-0.6096-0.7404-0.6096-2.0468 0-1.0162 0.3483-1.9307 0.3484-0.9145 0.9436-1.6258 0.5951-0.7113 1.3645-1.1177 0.7694-0.421 1.6113-0.421 0.7984 0 1.2629 0.3774 0.479 0.3629 0.479 1.0162 0 0.4064-0.1887 0.7838-0.1887 0.3629-0.4935 0.5952-0.3049 0.2177-0.6678 0.2177-0.2758 0-0.45-0.1451-0.1596-0.1452-0.1596-0.392 0-0.2467 0.1306-0.45 0.1452-0.2032 0.3339-0.3774t0.3193-0.3484q0.1452-0.1887 0.1452-0.3919 0-0.3629-0.5371-0.3629-0.5807 0-1.1323 0.3774-0.5371 0.3629-0.9726 1.0016-0.4354 0.6242-0.6822 1.4226-0.2468 0.7839-0.2468 1.6403 0 1.0452 0.3629 1.6113 0.3629 0.5516 1.0597 0.5516 0.5661 0 1.0306-0.3629 0.4791-0.3629 0.8565-1.1177h0.5081q-0.4936 1.0887-1.2339 1.6548-0.7403 0.5662-1.6839 0.5662zm7.3307 0.014q-1.1323 0-1.771-0.7549-0.6242-0.7548-0.6242-2.0758 0-1.0161 0.3339-1.9161 0.3338-0.9145 0.9145-1.6113 0.5952-0.7113 1.3355-1.1178 0.7548-0.4064 1.5968-0.4064 1.1177 0 1.7564 0.7548 0.6387 0.7404 0.6387 2.0758 0 1.0162-0.3339 1.9307-0.3338 0.9-0.929 1.6113-0.5806 0.6968-1.3355 1.1032-0.7548 0.4065-1.5822 0.4065zm0.087-0.5226q0.4064 0 0.7984-0.2613 0.4064-0.2758 0.7403-0.7403 0.3484-0.4791 0.6097-1.0887 0.2758-0.6242 0.4209-1.3355 0.1452-0.7113 0.1452-1.4371 0-0.9726-0.2758-1.4662-0.2758-0.508-0.8129-0.508-0.4065 0-0.8129 0.2758-0.392 0.2613-0.7404 0.7258-0.3483 0.4645-0.6096 1.0887t-0.421 1.3355q-0.1452 0.6968-0.1452 1.4226 0 0.9871 0.2758 1.4951 0.2904 0.4936 0.8275 0.4936zm8.9129 0.508q-0.8565 0-1.35-0.5661-0.479-0.5806-0.479-1.6403 0-0.7113 0.2467-1.4661 0.2468-0.7694 0.7258-1.5968 0.392-0.6823 0.9146-1.4081-0.2323-0.014-0.4355-0.073-0.3194-0.087-0.5952-0.1887-0.2613-0.1161-0.5081-0.2032-0.2322-0.087-0.4645-0.087-0.3193 0-0.3193 0.2613 0 0.1161 0.058 0.2467 0.073 0.1162 0.1451 0.2613 0.087 0.1307 0.1452 0.2904 0.073 0.1451 0.073 0.3193 0 0.3484-0.2177 0.5807-0.2033 0.2177-0.5517 0.2177-0.3774 0-0.5951-0.2468-0.2032-0.2613-0.2032-0.6967 0-0.5371 0.3048-0.9581t0.7984-0.6678q0.4935-0.2467 1.0451-0.2467 0.4355 0 0.7549 0.1016 0.3193 0.1016 0.6097 0.2468 0.1887 0.1161 0.3919 0.2032 0.2032-0.2468 0.3919-0.3774 0.2613-0.1742 0.4936-0.1742 0.2467 0 0.3774 0.1161 0.1452 0.1016 0.1452 0.3048 0 0.3484-0.421 0.5662-0.3339 0.1742-0.8565 0.2032-0.4935 1.1758-0.7113 2.1048-0.2467 1.0307-0.2467 1.8581 0 0.7839 0.3048 1.2048 0.3048 0.4065 0.871 0.4065 0.5806 0 1.1032-0.3194 0.5226-0.3193 0.9436-0.8419 0.4209-0.5226 0.6532-1.1468 0.2468-0.6242 0.2468-1.2193 0-0.421-0.1162-0.7113-0.1161-0.2903-0.2758-0.5081-0.1451-0.2177-0.3193-0.4064-0.1597-0.2033-0.2758-0.392-0.1017-0.2032-0.1017-0.45 0-0.3338 0.2178-0.5516 0.2177-0.2177 0.5951-0.2177 0.4936 0 0.7549 0.4355 0.2758 0.4354 0.2758 1.3935 0 1.1613-0.3774 2.2355-0.3629 1.0742-1.0016 1.9452-0.6388 0.8564-1.4517 1.3645-0.8129 0.4935-1.7129 0.4935zm8.6952 0q-1.1323 0-1.7565-0.7113-0.6097-0.7258-0.6097-2.0322 0-1.0161 0.3484-1.9307 0.3629-0.929 0.9581-1.6403 0.6097-0.7258 1.379-1.1322 0.7839-0.421 1.6548-0.421 0.7839 0 1.1904 0.3484 0.4064 0.3484 0.4064 1.0016 0 0.7839-0.5806 1.4952-0.5807 0.6967-1.6403 1.2338-0.9871 0.5081-2.3081 0.8274 0 0.058 0 0.1162 0 1.0161 0.3919 1.5677 0.392 0.5371 1.1033 0.5371 0.5951 0 1.0741-0.3629 0.4936-0.3774 0.8855-1.1177h0.5081q-0.4936 1.0887-1.2629 1.6548-0.7694 0.5661-1.7419 0.5661zm-0.9291-3.4113q0.9581-0.2903 1.6694-0.7258 0.7693-0.4645 1.1758-1.0451 0.4064-0.5952 0.4064-1.292 0-0.4354-0.1742-0.6532-0.1596-0.2322-0.4935-0.2322-0.45 0-0.9145 0.4064-0.4645 0.3919-0.8565 1.0597-0.3774 0.6532-0.6097 1.4516-0.1451 0.5226-0.2032 1.0306zm6.5032 3.2081 1.0452-3.7161 0.5081-1.829q0.1742-0.6097 0.058-0.9581-0.1016-0.3629-0.4936-0.3629-0.3193 0-0.6097 0.2613-0.2903 0.2467-0.5516 0.7403l-0.2758 0.5371h-0.5226l0.3194-0.6242q0.2758-0.5081 0.5806-0.8855 0.3049-0.3919 0.6968-0.6097 0.392-0.2177 0.871-0.2177 0.6097 0 0.9435 0.3048 0.3484 0.2904 0.421 0.8129 0.014 0.1017 0.014 0.2033 0.3629-0.5807 0.8419-0.9146 0.5807-0.4064 1.2484-0.4064 0.5516 0 0.842 0.2758 0.3048 0.2758 0.3048 0.8129 0 0.4065-0.1742 0.7984-0.1597 0.3774-0.4355 0.6097-0.2613 0.2322-0.5806 0.2322-0.2468 0-0.4065-0.1451-0.1451-0.1597-0.1451-0.392 0-0.2322 0.1161-0.4355 0.1161-0.2177 0.2177-0.4064 0.1162-0.2032 0.1162-0.3484 0-0.2468-0.392-0.2468-0.4209 0-0.9 0.3484-0.3919 0.2758-0.6822 0.7113-0.029 0.2613-0.1162 0.5371l-0.45 1.5968-1.0451 3.7161zm13.456 0.2032q-0.9726 0-1.5242-0.7403-0.5516-0.7548-0.5516-2.0613 0-1.0161 0.3193-1.9306 0.3194-0.9145 0.871-1.6113 0.5661-0.7113 1.2774-1.1178 0.7258-0.4064 1.5242-0.4064 0.6823 0 1.292 0.3048 0.3774 0.2033 0.6967 0.5081 0.2033-0.1161 0.4065-0.2323 0.45-0.2758 0.8129-0.6242l0.2903 0.392q-0.2323 0.2177-0.3919 0.421-0.1452 0.1887-0.2468 0.4354-0.1016 0.2323-0.2032 0.5807l-0.5952 2.1629-0.5226 1.829q-0.1742 0.5952-0.073 0.9581 0.1162 0.3629 0.5081 0.3629 0.3193 0 0.6097-0.2613 0.2903-0.2613 0.5516-0.7403l0.2758-0.5371h0.5371l-0.3339 0.6242q-0.2613 0.4935-0.5806 0.8855-0.3049 0.3919-0.6968 0.6096-0.3774 0.2178-0.871 0.2178-0.5951 0-0.9435-0.3049-0.3484-0.3048-0.4065-0.8419-0.014-0.073-0.014-0.1452-0.3193 0.5371-0.7403 0.842-0.5661 0.4209-1.2774 0.4209zm2.5984-3.9193 0.6387-2.3081q-0.1161-0.4645-0.3774-0.7548-0.3484-0.3629-0.871-0.3629-0.5081 0-1.0016 0.3774-0.479 0.3629-0.8565 0.9871-0.3774 0.6242-0.5951 1.4226-0.2178 0.7984-0.2178 1.6693 0 1.0307 0.3339 1.5387 0.3339 0.4936 0.9726 0.4936 0.4645 0 0.8709-0.2903 0.2904-0.2178 0.5371-0.5952 0.029-0.2758 0.1162-0.5952zm10.394 3.9193q-0.9726 0-1.5387-0.7548t-0.5661-2.0468q0-0.9726 0.3048-1.8871 0.3194-0.9145 0.8565-1.6258 0.5371-0.7258 1.2193-1.1322 0.6823-0.421 1.4081-0.421 0.6532 0 1.1468 0.3194 0.3774 0.2612 0.5806 0.6532l0.6678-2.4097q0.1451-0.4935 0.073-0.7839-0.058-0.2903-0.392-0.4064-0.3339-0.1162-1.0306-0.1307l0.1596-0.5225q1.0017-0.014 1.8-0.1597 0.7984-0.1597 1.4371-0.4355l-2.1774 7.8242-0.508 1.829q-0.1742 0.5952-0.073 0.9581 0.1016 0.3629 0.508 0.3629 0.3194 0 0.6097-0.2613t0.5516-0.7403l0.2758-0.5371h0.5226l-0.3194 0.6242q-0.2758 0.508-0.5951 0.9-0.3049 0.3774-0.6823 0.5951-0.3774 0.2178-0.8709 0.2178-0.6097 0-0.9581-0.3049-0.3339-0.3048-0.3919-0.8419-0.014-0.073-0.014-0.1597-0.3339 0.5371-0.7549 0.8565-0.5516 0.4209-1.2484 0.4209zm2.5839-3.9193 0.6823-2.4387q-0.1888-0.3339-0.4791-0.5226-0.3484-0.2177-0.7838-0.2177-0.5371 0-1.0307 0.3338-0.479 0.3339-0.8564 0.9291-0.3775 0.5806-0.5952 1.3354-0.2177 0.7549-0.2177 1.5968 0 0.9871 0.3338 1.5242 0.3339 0.5226 0.9871 0.5226 0.45 0 0.8565-0.3049 0.3048-0.2177 0.5371-0.5806 0.029-0.2758 0.1161-0.5952zm6.5323 3.9193q-0.9726 0-1.5242-0.7403-0.5516-0.7548-0.5516-2.0613 0-1.0161 0.3193-1.9306 0.3194-0.9145 0.871-1.6113 0.5661-0.7113 1.2774-1.1178 0.7258-0.4064 1.5242-0.4064 0.6823 0 1.2919 0.3048 0.3775 0.2033 0.6968 0.5081 0.2032-0.1161 0.4065-0.2323 0.45-0.2758 0.8129-0.6242l0.2903 0.392q-0.2323 0.2177-0.3919 0.421-0.1452 0.1887-0.2468 0.4354-0.1016 0.2323-0.2032 0.5807l-0.5952 2.1629-0.5226 1.829q-0.1742 0.5952-0.073 0.9581 0.1161 0.3629 0.5081 0.3629 0.3193 0 0.6097-0.2613 0.2903-0.2613 0.5516-0.7403l0.2758-0.5371h0.5371l-0.3339 0.6242q-0.2613 0.4935-0.5806 0.8855-0.3049 0.3919-0.6968 0.6096-0.3774 0.2178-0.871 0.2178-0.5951 0-0.9435-0.3049-0.3484-0.3048-0.4065-0.8419-0.014-0.073-0.014-0.1452-0.3193 0.5371-0.7403 0.842-0.5661 0.4209-1.2774 0.4209zm2.5984-3.9193 0.6387-2.3081q-0.1162-0.4645-0.3774-0.7548-0.3484-0.3629-0.871-0.3629-0.5081 0-1.0016 0.3774-0.4791 0.3629-0.8565 0.9871t-0.5951 1.4226q-0.2178 0.7984-0.2178 1.6693 0 1.0307 0.3339 1.5387 0.3339 0.4936 0.9726 0.4936 0.4645 0 0.8709-0.2903 0.2904-0.2178 0.5371-0.5952 0.029-0.2758 0.1162-0.5952zm6.4742 1.858q-0.2033 0.5952-0.1452 0.9436 0.073 0.3484 0.4645 0.3484 0.3339 0 0.6242-0.2613t0.5371-0.7403l0.2903-0.5371h0.5226l-0.3339 0.6242q-0.2613 0.4935-0.5806 0.8855-0.3048 0.3919-0.6968 0.6096-0.3774 0.2178-0.8564 0.2178-0.6097 0-0.9436-0.2904-0.3193-0.3048-0.3629-0.8274-0.044-0.5226 0.1887-1.2048l1.1323-3.4984q0.2032-0.5952 0.1306-0.929-0.058-0.3484-0.4645-0.3484-0.3193 0-0.6097 0.2613-0.2758 0.2467-0.5516 0.7403l-0.2758 0.5371h-0.5226l0.3194-0.6242q0.2758-0.5081 0.5806-0.8855 0.3194-0.3919 0.6968-0.6097 0.3919-0.2177 0.871-0.2177 0.6097 0 0.929 0.3048 0.3339 0.2904 0.3774 0.8129 0.058 0.5081-0.1887 1.1904zm1.1613-7.3306q-0.4065 0-0.6823-0.2613-0.2613-0.2758-0.2613-0.6677 0-0.421 0.3194-0.7258 0.3193-0.3049 0.7548-0.3049 0.3919 0 0.6532 0.2758 0.2758 0.2613 0.2758 0.6533 0 0.4064-0.3193 0.7258-0.3194 0.3048-0.7403 0.3048zm3.1209 5.4726 1.4952-5.3855q0.1452-0.4935 0.073-0.7839-0.058-0.2903-0.3919-0.4064-0.3339-0.1162-1.0162-0.1307l0.1452-0.5225q1.0016-0.014 1.8-0.1597 0.7984-0.1597 1.4371-0.4355l-2.1774 7.8242-0.5081 1.829q-0.1742 0.5952-0.073 0.9581 0.1161 0.3629 0.5081 0.3629 0.3193 0 0.6096-0.2613 0.2904-0.2613 0.5517-0.7403l0.2758-0.5371h0.5371l-0.3339 0.6242q-0.2613 0.508-0.5807 0.9-0.3048 0.3774-0.6967 0.5951-0.3774 0.2178-0.871 0.2178-0.6097 0-0.9581-0.3049-0.3338-0.3048-0.4064-0.8274-0.058-0.5371 0.1306-1.2339zm3.2226 7.1855q-0.479 0-0.7693-0.2178-0.3049-0.2177-0.3049-0.5951 0-0.3339 0.2468-0.5516 0.2323-0.2178 0.5952-0.2178 0.2177 0 0.4209 0.058 0.2033 0.073 0.392 0.1597 0.1887 0.087 0.3774 0.1451 0.2032 0.058 0.4064 0.058 0.4065 0 0.9871-0.3919 0.45-0.3048 0.9291-0.7839 0.1016-1.0161 0.1161-2.0177 0.014-1.2194-0.073-2.2936-0.087-1.0741-0.2468-1.887-0.1597-0.813-0.3919-1.2775-0.2178-0.4645-0.4936-0.4645-0.1887 0-0.4064 0.2178-0.2032 0.2177-0.4645 0.7258l-0.2758 0.5371h-0.5371l0.4354-0.842q0.4065-0.7693 0.8275-1.1322 0.4209-0.3629 0.8854-0.3629 0.7113 0 1.1613 0.8564 0.4646 0.8565 0.6678 2.5839 0.1887 1.5822 0.1306 3.8758 0.087-0.1161 0.1742-0.2323 0.6097-0.7838 1.1032-1.6113 0.4936-0.8274 0.7839-1.5532 0.3049-0.7258 0.3049-1.2484 0-0.3774-0.1597-0.6242-0.1452-0.2613-0.3629-0.45-0.2033-0.2032-0.3629-0.4064-0.1452-0.2032-0.1452-0.4645 0-0.3049 0.2178-0.5081 0.2177-0.2177 0.5951-0.2177 0.4936 0 0.7694 0.3774t0.2758 1.0742q0 0.8419-0.3774 1.8871-0.3629 1.0306-1.0017 2.1193-0.6387 1.0887-1.4516 2.1049-0.8129 1.0016-1.6838 1.8145-0.871 0.8129-1.7275 1.2774-0.8419 0.479-1.5677 0.479zm15.373-3.2662q-0.9726 0-1.5242-0.7403-0.5516-0.7548-0.5516-2.0613 0-1.0161 0.3194-1.9306 0.3193-0.9145 0.8709-1.6113 0.5662-0.7113 1.2774-1.1178 0.7258-0.4064 1.5242-0.4064 0.6823 0 1.292 0.3048 0.3774 0.2033 0.6967 0.5081 0.2033-0.1161 0.4065-0.2323 0.45-0.2758 0.8129-0.6242l0.2903 0.392q-0.2322 0.2177-0.3919 0.421-0.1452 0.1887-0.2468 0.4354-0.1016 0.2323-0.2032 0.5807l-0.5952 2.1629-0.5226 1.829q-0.1741 0.5952-0.073 0.9581 0.1162 0.3629 0.5081 0.3629 0.3194 0 0.6097-0.2613t0.5516-0.7403l0.2758-0.5371h0.5371l-0.3339 0.6242q-0.2613 0.4935-0.5806 0.8855-0.3049 0.3919-0.6968 0.6096-0.3774 0.2178-0.871 0.2178-0.5951 0-0.9435-0.3049-0.3484-0.3048-0.4065-0.8419-0.014-0.073-0.014-0.1452-0.3193 0.5371-0.7403 0.842-0.5661 0.4209-1.2774 0.4209zm2.5984-3.9193 0.6387-2.3081q-0.1161-0.4645-0.3774-0.7548-0.3484-0.3629-0.871-0.3629-0.508 0-1.0016 0.3774-0.479 0.3629-0.8564 0.9871-0.3775 0.6242-0.5952 1.4226-0.2178 0.7984-0.2178 1.6693 0 1.0307 0.3339 1.5387 0.3339 0.4936 0.9726 0.4936 0.4645 0 0.871-0.2903 0.2903-0.2178 0.5371-0.5952 0.029-0.2758 0.1161-0.5952zm5.1387 0 1.4952-5.3855q0.1451-0.4935 0.073-0.7839-0.058-0.2903-0.392-0.4064-0.3338-0.1162-1.0161-0.1307l0.1452-0.5225q1.0016-0.014 1.8-0.1597 0.7984-0.1597 1.4371-0.4355l-2.1775 7.8242-0.508 1.829q-0.1742 0.5952-0.073 0.9581 0.1161 0.3629 0.508 0.3629 0.3194 0 0.6097-0.2613t0.5516-0.7403l0.2758-0.5371h0.5371l-0.3338 0.6242q-0.2613 0.508-0.5807 0.9-0.3048 0.3774-0.6968 0.5951-0.3774 0.2178-0.8709 0.2178-0.6097 0-0.9581-0.3049-0.3339-0.3048-0.4064-0.8274-0.058-0.5371 0.1306-1.2339zm6.8952 3.9193q-0.9145 0-1.4516-0.45t-0.6533-1.2774q-0.1161-0.8419 0.2033-2.0177l0.058-0.1742 1.4951-5.3855q0.1452-0.4935 0.073-0.7839-0.058-0.2903-0.3919-0.4064-0.3339-0.1162-1.0161-0.1307l0.1451-0.5225q1.0016-0.014 1.8-0.1597 0.7984-0.1597 1.4371-0.4355l-1.3355 4.7903q0.2178-0.2903 0.4936-0.4935 0.5661-0.421 1.2774-0.421 0.9726 0 1.5242 0.7548 0.5661 0.7549 0.5661 2.0758 0 1.0307-0.3338 1.9452-0.3339 0.9145-0.9146 1.6113-0.5806 0.6968-1.35 1.0887-0.7548 0.3919-1.6258 0.3919zm0.1597-6.1983-0.6388 2.279-0.1306 0.4935q-0.3774 1.4226-0.2177 2.1629 0.1741 0.7404 0.9 0.7404 0.5371 0 1.0306-0.3629t0.8855-0.9726q0.3919-0.6242 0.6097-1.4226 0.2177-0.7984 0.2177-1.6694 0-1.0306-0.3339-1.5822-0.3193-0.5516-0.9435-0.5516-0.4645 0-0.8855 0.3193-0.2758 0.2178-0.4935 0.5662zm8.4774 2.279-0.2903 1.0742q-0.2904 1.0016-0.058 1.5387 0.2322 0.5226 0.929 0.5226 0.6242 0 1.1613-0.45 0.2758-0.2323 0.5516-0.6097 0.043-0.2323 0.1161-0.4936l0.45-1.5822 1.0307-3.7307h1.3645l-1.0307 3.7307-0.5225 1.829q-0.1597 0.5952-0.058 0.9581 0.1016 0.3629 0.508 0.3629 0.3194 0 0.6097-0.2613t0.5371-0.7403l0.2903-0.5371h0.5226l-0.3339 0.6242q-0.2613 0.508-0.5806 0.9-0.3049 0.3774-0.6823 0.5951-0.3774 0.2178-0.8709 0.2178-0.6097 0-0.9581-0.3049-0.3339-0.3048-0.4065-0.8419-0.014-0.1161-0.014-0.2613-0.3629 0.5226-0.7548 0.8419-0.6968 0.5662-1.5823 0.5662-1.0887 0-1.5241-0.7839-0.4355-0.7839-0.073-2.0758l0.3048-1.0887 0.5081-1.829q0.1741-0.6097 0.058-0.9581-0.1017-0.3629-0.4936-0.3629-0.3194 0-0.6097 0.2613-0.2903 0.2467-0.5516 0.7403l-0.2758 0.5371h-0.5226l0.3194-0.6242q0.2758-0.5081 0.5806-0.8855 0.3049-0.3919 0.6968-0.6097 0.3919-0.2177 0.871-0.2177 0.6096 0 0.9435 0.3048 0.3484 0.2904 0.421 0.8275 0.073 0.5225-0.1307 1.2193zm12.847 0 0.2904-1.0452q0.2903-1.0451 0.058-1.5677-0.2323-0.5371-0.9581-0.5371-0.6532 0-1.1903 0.4355-0.3194 0.2613-0.6097 0.6677-0.029 0.2178-0.1016 0.45l-0.45 1.5968-1.0452 3.7161h-1.3645l1.0452-3.7161 0.508-1.829q0.1742-0.6097 0.058-0.9581-0.1016-0.3629-0.4935-0.3629-0.3194 0-0.6097 0.2613-0.2903 0.2467-0.5516 0.7403l-0.2758 0.5371h-0.5226l0.3194-0.6242q0.2758-0.5081 0.5806-0.8855 0.3048-0.3919 0.6968-0.6097 0.3919-0.2177 0.8709-0.2177 0.6097 0 0.9436 0.3048 0.3484 0.2904 0.421 0.8129 0.014 0.1307 0.014 0.2758 0.3629-0.5225 0.7838-0.8419 0.7113-0.5516 1.6113-0.5516 1.1033 0 1.5533 0.7839 0.2032 0.3629 0.2322 0.8274 0.421-0.6823 0.9145-1.0597 0.6823-0.5516 1.5533-0.5516 1.0741 0 1.5096 0.7839 0.4355 0.7693 0.087 2.0613l-0.3193 1.1032-0.5081 1.829q-0.1742 0.5952-0.073 0.9581 0.1161 0.3629 0.5081 0.3629 0.3193 0 0.6097-0.2613 0.2903-0.2613 0.5516-0.7403l0.2758-0.5371h0.5226l-0.3194 0.6242q-0.2613 0.508-0.5806 0.9-0.3049 0.3774-0.6968 0.5951-0.3774 0.2178-0.871 0.2178-0.6097 0-0.958-0.3049-0.3339-0.3048-0.4065-0.8274-0.058-0.5371 0.1306-1.2339l0.45-1.5822 0.3049-1.0887q0.2758-1.0016 0.044-1.5242-0.2178-0.5371-0.9145-0.5371-0.6097 0-1.1323 0.4355-0.3484 0.2903-0.6822 0.7984-0.029 0.3919-0.1597 0.8709l-0.2903 1.0452-1.0452 3.7161h-1.3645zm15.561 3.9193q-0.8854 0-1.4225-0.5371-0.5226-0.5371-0.5226-1.5387 0-0.7403 0.2613-1.5242 0.2758-0.7838 0.7984-1.6258 0.4354-0.6967 1.0451-1.4516-0.2613-0.014-0.4935-0.073-0.3484-0.087-0.6533-0.1887-0.2903-0.1161-0.5516-0.2032-0.2467-0.087-0.508-0.087-0.3194 0-0.3194 0.2613 0 0.1161 0.058 0.2467 0.073 0.1162 0.1452 0.2613 0.087 0.1307 0.1451 0.2904 0.073 0.1451 0.073 0.3193 0 0.3484-0.2177 0.5807-0.2032 0.2177-0.5516 0.2177-0.3774 0-0.5952-0.2468-0.2032-0.2613-0.2032-0.6967 0-0.5371 0.3048-0.9581 0.3049-0.421 0.7984-0.6678 0.4936-0.2467 1.0452-0.2467 0.4645 0 0.8274 0.1016t0.6823 0.2468q0.2322 0.1161 0.45 0.2177 0.2032-0.2613 0.3919-0.3919 0.2613-0.1742 0.5081-0.1742 0.2467 0 0.3774 0.1161 0.1306 0.1016 0.1306 0.3048 0 0.3484-0.4209 0.5662-0.3339 0.1742-0.871 0.2032-0.3774 0.7548-0.6097 1.3935-0.2903 0.7549-0.421 1.3936-0.1306 0.6387-0.1306 1.2048 0 0.8129 0.3339 1.2775 0.3338 0.45 0.958 0.45 0.2904 0 0.5371-0.073 0.073-0.029 0.1597-0.058-0.2032-0.5081-0.2032-1.2484 0-0.7113 0.2032-1.3936 0.2032-0.6968 0.5371-1.2484t0.7548-0.8709q0.421-0.3339 0.8565-0.3339 0.421 0 0.6532 0.3629 0.2468 0.3629 0.2468 1.0452 0 0.9871-0.479 1.9306-0.4065 0.7839-1.1468 1.5097 0.3048 0.3484 0.8129 0.3484 0.5226 0 1.0306-0.3194 0.5226-0.3339 0.9436-0.871 0.4355-0.537 0.6968-1.1758 0.2613-0.6532 0.2613-1.2774 0-0.4209-0.1162-0.7113-0.1016-0.2903-0.2613-0.508-0.1596-0.2323-0.3193-0.421t-0.2758-0.3774q-0.1016-0.2032-0.1016-0.45 0-0.3484 0.2177-0.5516 0.2177-0.2178 0.5806-0.2178 0.5226 0 0.7839 0.45t0.2613 1.3645q0 1.1468-0.3629 2.2355-0.3629 1.0742-0.9871 1.9452-0.6097 0.8564-1.379 1.3645-0.7694 0.5081-1.5968 0.5081-0.871 0-1.3355-0.5952-0.3629 0.2468-0.7403 0.3919-0.5226 0.2033-1.0742 0.2033zm2.7291-1.6838q0.5951-0.6097 0.9435-1.3355 0.4065-0.8565 0.4065-1.6694 0-0.4209-0.1016-0.6387-0.1017-0.2177-0.3049-0.2177-0.2758 0-0.5371 0.4064-0.2613 0.4065-0.4355 1.0452-0.1742 0.6242-0.1742 1.2919 0 0.6823 0.2033 1.1178zm9.029 1.6984q-1.1323 0-1.771-0.7549-0.6242-0.7548-0.6242-2.0758 0-1.0161 0.3339-1.9161 0.3339-0.9145 0.9145-1.6113 0.5952-0.7113 1.3355-1.1178 0.7549-0.4064 1.5968-0.4064 1.1177 0 1.7564 0.7548 0.6388 0.7404 0.6388 2.0758 0 1.0162-0.3339 1.9307-0.3339 0.9-0.9291 1.6113-0.5806 0.6968-1.3354 1.1032-0.7549 0.4065-1.5823 0.4065zm0.087-0.5226q0.4065 0 0.7984-0.2613 0.4064-0.2758 0.7403-0.7403 0.3484-0.4791 0.6097-1.0887 0.2758-0.6242 0.421-1.3355 0.1451-0.7113 0.1451-1.4371 0-0.9726-0.2758-1.4662-0.2758-0.508-0.8129-0.508-0.4064 0-0.8129 0.2758-0.3919 0.2613-0.7403 0.7258t-0.6097 1.0887-0.421 1.3355q-0.1451 0.6968-0.1451 1.4226 0 0.9871 0.2758 1.4951 0.2903 0.4936 0.8274 0.4936zm6.0968 0.3048 1.0452-3.7161 0.508-1.829q0.1742-0.6097 0.058-0.9581-0.1016-0.3629-0.4935-0.3629-0.3194 0-0.6097 0.2613-0.2903 0.2467-0.5516 0.7403l-0.2758 0.5371h-0.5226l0.3194-0.6242q0.2758-0.5081 0.5806-0.8855 0.3048-0.3919 0.6968-0.6097 0.3919-0.2177 0.871-0.2177 0.6096 0 0.9435 0.3048 0.3484 0.2904 0.421 0.8129 0.014 0.1017 0.014 0.2033 0.3629-0.5807 0.8419-0.9146 0.5806-0.4064 1.2484-0.4064 0.5516 0 0.8419 0.2758 0.3049 0.2758 0.3049 0.8129 0 0.4065-0.1742 0.7984-0.1597 0.3774-0.4355 0.6097-0.2613 0.2322-0.5807 0.2322-0.2467 0-0.4064-0.1451-0.1452-0.1597-0.1452-0.392 0-0.2322 0.1162-0.4355 0.1161-0.2177 0.2177-0.4064 0.1161-0.2032 0.1161-0.3484 0-0.2468-0.3919-0.2468-0.421 0-0.9 0.3484-0.3919 0.2758-0.6823 0.7113-0.029 0.2613-0.1161 0.5371l-0.45 1.5968-1.0452 3.7161zm7.8387-3.7161 0.9-3.2081h-1.6113l0.1452-0.5226h1.6112l0.6242-2.2209q0.3775-0.014 0.7258-0.073 0.363-0.058 0.6968-0.1452l-0.6822 2.4387h2.279l-0.1597 0.5226h-2.2645l-0.9 3.2081-0.4935 1.8145q-0.1888 0.6532-0.044 0.9726 0.1596 0.3193 0.6241 0.3193 0.3775 0 0.6823-0.2468 0.3194-0.2467 0.5952-0.7548l0.2758-0.5226h0.5226l-0.4355 0.842q-0.2178 0.3919-0.5081 0.7403-0.2903 0.3338-0.6823 0.5516-0.3774 0.2032-0.9 0.2032-0.929 0-1.3354-0.6532-0.392-0.6532-0.1016-1.6984zm10.277 0 0.2758-1.0161q0.2903-1.0597 0.058-1.5968-0.2322-0.5371-0.9871-0.5371-0.6532 0-1.1903 0.421-0.3194 0.2467-0.6097 0.6387l-0.5806 2.0903-1.0452 3.7161h-1.3645l1.0452-3.7161 1.4951-5.3855q0.1452-0.4935 0.073-0.7839-0.058-0.2903-0.3919-0.4064-0.3339-0.1162-1.0161-0.1307l0.1451-0.5225q1.0016-0.014 1.8-0.1597 0.7984-0.1597 1.4371-0.4355l-1.4081 5.0806q0.3049-0.4064 0.6533-0.6677 0.7113-0.5371 1.6113-0.5371 1.1322 0 1.5822 0.7984 0.45 0.7839 0.073 2.1193l-0.2903 1.0307-0.5226 1.829q-0.1597 0.5952-0.058 0.9581 0.1016 0.3629 0.4936 0.3629 0.3338 0 0.6242-0.2613 0.2903-0.2613 0.5371-0.7403l0.2903-0.5371h0.5226l-0.3339 0.6242q-0.2613 0.508-0.5807 0.9-0.3048 0.3774-0.6967 0.5951-0.3775 0.2178-0.8565 0.2178-0.6097 0-0.9581-0.3049-0.3338-0.3048-0.4064-0.8274-0.073-0.5371 0.1306-1.2339zm10.379 3.9193q-0.9725 0-1.5242-0.7403-0.5516-0.7548-0.5516-2.0613 0-1.0161 0.3194-1.9306 0.3193-0.9145 0.871-1.6113 0.5661-0.7113 1.2774-1.1178 0.7258-0.4064 1.5242-0.4064 0.6822 0 1.2919 0.3048 0.3774 0.2033 0.6968 0.5081 0.2032-0.1161 0.4064-0.2323 0.45-0.2758 0.8129-0.6242l0.2904 0.392q-0.2323 0.2177-0.392 0.421-0.1451 0.1887-0.2468 0.4354-0.1016 0.2323-0.2032 0.5807l-0.5951 2.1629-0.5226 1.829q-0.1742 0.5952-0.073 0.9581 0.1161 0.3629 0.508 0.3629 0.3194 0 0.6097-0.2613t0.5516-0.7403l0.2758-0.5371h0.5371l-0.3338 0.6242q-0.2613 0.4935-0.5807 0.8855-0.3048 0.3919-0.6968 0.6096-0.3774 0.2178-0.8709 0.2178-0.5952 0-0.9436-0.3049-0.3484-0.3048-0.4064-0.8419-0.014-0.073-0.014-0.1452-0.3194 0.5371-0.7404 0.842-0.5661 0.4209-1.2774 0.4209zm2.5984-3.9193 0.6387-2.3081q-0.1161-0.4645-0.3774-0.7548-0.3484-0.3629-0.871-0.3629-0.508 0-1.0016 0.3774-0.479 0.3629-0.8564 0.9871t-0.5952 1.4226q-0.2177 0.7984-0.2177 1.6693 0 1.0307 0.3339 1.5387 0.3338 0.4936 0.9725 0.4936 0.4645 0 0.871-0.2903 0.2903-0.2178 0.5371-0.5952 0.029-0.2758 0.1161-0.5952zm9.0291 0 1.4951-5.3855q0.1452-0.4935 0.073-0.7839-0.058-0.2903-0.3919-0.4064-0.3339-0.1162-1.0161-0.1307l0.1451-0.5225q1.0016-0.014 1.8-0.1597 0.7984-0.1597 1.4371-0.4355l-2.1774 7.8242-0.5081 1.829q-0.1741 0.5952-0.073 0.9581 0.1162 0.3629 0.5081 0.3629 0.3194 0 0.6097-0.2613t0.5516-0.7403l0.2758-0.5371h0.5371l-0.3339 0.6242q-0.2613 0.508-0.5806 0.9-0.3049 0.3774-0.6968 0.5951-0.3774 0.2178-0.871 0.2178-0.6096 0-0.958-0.3049-0.3339-0.3048-0.4065-0.8274-0.058-0.5371 0.1307-1.2339zm6.5177 1.858q-0.2032 0.5952-0.1451 0.9436 0.073 0.3484 0.4645 0.3484 0.3339 0 0.6242-0.2613t0.5371-0.7403l0.2903-0.5371h0.5226l-0.3339 0.6242q-0.2613 0.4935-0.5806 0.8855-0.3049 0.3919-0.6968 0.6096-0.3774 0.2178-0.8565 0.2178-0.6096 0-0.9435-0.2904-0.3194-0.3048-0.3629-0.8274-0.044-0.5226 0.1887-1.2048l1.1323-3.4984q0.2032-0.5952 0.1306-0.929-0.058-0.3484-0.4645-0.3484-0.3194 0-0.6097 0.2613-0.2758 0.2467-0.5516 0.7403l-0.2758 0.5371h-0.5226l0.3194-0.6242q0.2758-0.5081 0.5806-0.8855 0.3194-0.3919 0.6968-0.6097 0.3919-0.2177 0.871-0.2177 0.6096 0 0.929 0.3048 0.3339 0.2904 0.3774 0.8129 0.058 0.5081-0.1887 1.1904zm1.1613-7.3306q-0.4064 0-0.6822-0.2613-0.2613-0.2758-0.2613-0.6677 0-0.421 0.3193-0.7258 0.3194-0.3049 0.7549-0.3049 0.3919 0 0.6532 0.2758 0.2758 0.2613 0.2758 0.6533 0 0.4064-0.3193 0.7258-0.3194 0.3048-0.7404 0.3048zm4.6452 9.3919q-0.7984 0-1.4226-0.2322-0.6097-0.2323-0.9581-0.6242-0.3483-0.4065-0.3483-0.9 0-0.4065 0.2177-0.6387 0.2177-0.2468 0.5806-0.2468 0.3339 0 0.5081 0.2032 0.1887 0.1887 0.2032 0.5516 0.014 0.1452 0 0.3339-0.015 0.1887-0.015 0.3194 0.044 0.3774 0.3339 0.5516 0.3048 0.1742 0.8855 0.1742 0.8129 0 1.2774-0.3484 0.479-0.3629 0.479-0.9726 0-0.4355-0.2322-0.7693-0.2178-0.3339-0.5661-0.5952-0.3339-0.2613-0.7258-0.5081-0.392-0.2613-0.7404-0.5516t-0.5661-0.6677-0.2177-0.8855q0-0.9145 0.7693-1.4807 0.7694-0.5806 1.9597-0.5806 0.7258 0 1.2919 0.2177 0.5662 0.2033 0.8855 0.5662 0.3339 0.3629 0.3339 0.8274 0 0.3629-0.1887 0.5806-0.1887 0.2178-0.5226 0.2178-0.3048 0-0.5081-0.1742-0.1887-0.1742-0.2032-0.4791 0-0.1596 0.014-0.3193 0.015-0.1742 0-0.2758-0.014-0.3339-0.2903-0.4936-0.2758-0.1596-0.7984-0.1596-0.6823 0-1.0597 0.3048-0.3774 0.2903-0.3774 0.7984 0 0.421 0.2177 0.7403 0.2323 0.3048 0.5662 0.5807 0.3484 0.2612 0.7403 0.5225t0.7258 0.5662q0.3484 0.2903 0.5661 0.6822 0.2323 0.3774 0.2323 0.9 0 0.6678-0.4065 1.1758-0.3919 0.5081-1.0742 0.7984-0.6822 0.2903-1.5677 0.2903zm6.1984-3.9193 0.9-3.2081h-1.6113l0.1451-0.5226h1.6113l0.6242-2.2209q0.3774-0.014 0.7258-0.073 0.3629-0.058 0.6968-0.1452l-0.6822 2.4387h2.279l-0.1597 0.5226h-2.2645l-0.9 3.2081-0.4936 1.8145q-0.1887 0.6532-0.044 0.9726 0.1597 0.3193 0.6242 0.3193 0.3775 0 0.6823-0.2468 0.3193-0.2467 0.5952-0.7548l0.2758-0.5226h0.5225l-0.4354 0.842q-0.2178 0.3919-0.5081 0.7403-0.2903 0.3338-0.6823 0.5516-0.3774 0.2032-0.9 0.2032-0.929 0-1.3354-0.6532-0.392-0.6532-0.1017-1.6984zm7.4032 3.9193q-1.1323 0-1.7565-0.7113-0.6096-0.7258-0.6096-2.0322 0-1.0161 0.3483-1.9307 0.3629-0.929 0.9581-1.6403 0.6097-0.7258 1.379-1.1322 0.7839-0.421 1.6549-0.421 0.7839 0 1.1903 0.3484 0.4065 0.3484 0.4065 1.0016 0 0.7839-0.5807 1.4952-0.5806 0.6967-1.6403 1.2338-0.9871 0.5081-2.3081 0.8274 0 0.058 0 0.1162 0 1.0161 0.392 1.5677 0.3919 0.5371 1.1032 0.5371 0.5951 0 1.0742-0.3629 0.4935-0.3774 0.8855-1.1177h0.508q-0.4935 1.0887-1.2629 1.6548-0.7693 0.5661-1.7419 0.5661zm-0.929-3.4113q0.958-0.2903 1.6693-0.7258 0.7694-0.4645 1.1758-1.0451 0.4065-0.5952 0.4065-1.292 0-0.4354-0.1742-0.6532-0.1597-0.2322-0.4936-0.2322-0.45 0-0.9145 0.4064-0.4645 0.3919-0.8564 1.0597-0.3775 0.6532-0.6097 1.4516-0.1452 0.5226-0.2032 1.0306zm11.976-0.508 0.2758-1.0016q0.3048-1.0742 0.058-1.6113-0.2323-0.5371-0.9871-0.5371-0.6678 0-1.2339 0.4355-0.3193 0.2467-0.6242 0.6532-0.029 0.2177-0.1016 0.4645l-0.45 1.5968-1.0451 3.7161h-1.3646l1.0452-3.7161 0.5081-1.829q0.1742-0.6097 0.058-0.9581-0.1016-0.3629-0.4936-0.3629-0.3193 0-0.6097 0.2613-0.2903 0.2467-0.5516 0.7403l-0.2758 0.5371h-0.5226l0.3194-0.6242q0.2758-0.5081 0.5806-0.8855 0.3049-0.3919 0.6968-0.6097 0.3919-0.2177 0.871-0.2177 0.6097 0 0.9435 0.3048 0.3484 0.2904 0.421 0.8129 0.014 0.1452 0.014 0.2904 0.3774-0.5371 0.8129-0.8565 0.7258-0.5516 1.6403-0.5516 1.1468 0 1.5968 0.7984 0.4645 0.7839 0.073 2.1484l-0.2758 1.0016-0.5226 1.829q-0.1742 0.5952-0.073 0.9581 0.1161 0.3629 0.5081 0.3629 0.3193 0 0.6096-0.2613 0.2904-0.2613 0.5517-0.7403l0.2758-0.5371h0.5371l-0.3339 0.6242q-0.2613 0.508-0.5807 0.9-0.3048 0.3774-0.6967 0.5951-0.3774 0.2178-0.871 0.2178-0.5952 0-0.9435-0.3049-0.3484-0.3048-0.421-0.8274-0.058-0.5371 0.1306-1.2339zm5.0225 3.9193q-0.4645 0-0.7548-0.2758-0.2903-0.2903-0.2903-0.7258 0-0.479 0.3338-0.8129 0.3484-0.3338 0.8565-0.3338 0.4645 0 0.7548 0.2903 0.2903 0.2758 0.2903 0.7113 0 0.479-0.3483 0.8129-0.3484 0.3338-0.842 0.3338z"
  />
</svg>
