<svg
  version="1.1"
  viewBox="0 0 422.11 211.57"
  xmlns="http://www.w3.org/2000/svg"
>
  <path
    id="emblem"
    fill="currentColor"
    d="m211.06-0.0032956a50 50 0 0 0-50 50 50 50 0 0 0 50 50 50 50 0 0 0 50-50 50 50 0 0 0-50-50zm0 10v2.5a37.5 37.5 0 0 0-37.5 37.5h-2.5a40 40 0 0 1 40-40zm0 5v2.5a32.5 32.5 0 0 0-32.5 32.5h-2.5a35 35 0 0 1 35-35zm0 5v2.5c-15.188 0-27.5 12.312-27.5 27.5h-2.5c0-16.569 13.431-30 30-30zm28.285 1.7148-12.121 24.959c0.2198 1.0741 0.33594 2.1871 0.33594 3.3262 0 9.1127-7.3873 16.5-16.5 16.5-1.1391 0-2.2521-0.11615-3.3262-0.33594l-24.959 12.121 12.121-24.959c-0.21979-1.0741-0.33594-2.1871-0.33594-3.3262 0-9.1127 7.3873-16.5 16.5-16.5 1.1391 0 2.2521 0.11615 3.3262 0.33594zm-28.285 23.285c-2.7614 0-5 2.2386-5 5s2.2386 5 5 5 5-2.2386 5-5-2.2386-5-5-5zm27.5 5h2.5c0 16.569-13.431 30-30 30v-2.5c15.188 0 27.5-12.312 27.5-27.5zm5 0h2.5a35 35 0 0 1-35 35v-2.5a32.5 32.5 0 0 0 32.5-32.5zm5 0h2.5a40 40 0 0 1-40 40v-2.5a37.5 37.5 0 0 0 37.5-37.5z"
  />
  <path
    id="wordmark"
    fill="currentColor"
    d="m32.544 128.55v0.96q-1.44 0.288-2.208 1.008-0.72 0.72-0.96 2.256-0.24 1.488-0.24 4.224v25.536q-0.72-0.096-1.584-0.096-0.816 0-1.776 0.096l-21.264-23.232v13.824q0 3.216 0.24 4.944 0.288 1.68 1.296 2.448 1.056 0.72 3.312 1.056v0.96q-0.96-0.096-2.496-0.096-1.536-0.048-2.88-0.048-1.056 0-2.16 0.048-1.104 0-1.824 0.096v-0.96q1.488-0.336 2.208-1.008 0.72-0.72 0.96-2.256t0.24-4.224v-20.448q0-1.776-0.24-2.592-0.24-0.864-1.008-1.152-0.72-0.336-2.16-0.384v-0.96q0.72 0.048 1.824 0.096t2.16 0.048q1.2 0 2.352-0.048t2.064-0.096l19.632 20.736v-11.328q0-3.216-0.288-4.896-0.24-1.728-1.248-2.496t-3.312-1.056v-0.96q0.96 0.048 2.496 0.096t2.88 0.048q1.104 0 2.16-0.048 1.104-0.048 1.824-0.096zm13.968 8.4q3.744 0 6.48 1.296 2.784 1.248 4.32 4.128t1.536 7.728-1.536 7.728-4.32 4.128q-2.736 1.248-6.48 1.248-3.696 0-6.48-1.248t-4.32-4.128-1.536-7.728 1.536-7.728 4.32-4.128q2.784-1.296 6.48-1.296zm0 0.96q-1.44 0-2.4 2.88t-0.96 9.312 0.96 9.312q0.96 2.832 2.4 2.832t2.4-2.832q0.96-2.88 0.96-9.312t-0.96-9.312-2.4-2.88zm27.312-0.288v1.008q-1.008 0-1.728 0.144-0.672 0.096-0.912 0.48t-0.048 1.2l3.984 13.296 4.128-16.08h0.048q1.248 0.096 2.544 0.096 1.296-0.048 2.544-0.096l5.472 17.568 2.064-6.864q1.008-3.312 0.768-5.376-0.24-2.112-1.296-3.168t-2.592-1.2v-1.008q0.672 0.048 1.728 0.096 1.104 0.048 2.16 0.096 1.056 0 1.632 0 0.864 0 2.016-0.048t1.68-0.144v1.008q-0.912 0.336-1.776 1.296t-1.632 3.36l-6 19.248q-1.152-0.096-2.352-0.096-1.152 0-2.304 0.096l-5.712-16.608-4.368 16.608q-1.152-0.096-2.352-0.096-1.152 0-2.304 0.096l-7.392-21.216q-0.672-1.92-1.488-2.304-0.768-0.384-1.296-0.384v-1.008q1.92 0.144 3.984 0.24 2.064 0.048 4.56 0.048 1.488 0 3.12-0.096 1.68-0.096 3.12-0.192zm34.656-9.072q1.392 0.048 3.648 0.096 2.304 0.048 4.608 0.048 2.4 0 4.608-0.048t3.12-0.048q7.296 0 10.848 2.64 3.6 2.64 3.6 6.816 0 1.728-0.72 3.648-0.72 1.872-2.448 3.504-1.728 1.584-4.752 2.592-2.976 1.008-7.584 1.008h-1.776v8.16q0 1.968 0.384 2.928 0.432 0.96 1.584 1.248t3.36 0.288v1.104q-1.632-0.048-4.272-0.096t-5.616-0.048q-2.208 0-4.416 0.048t-4.176 0.096v-0.96q1.488-0.096 2.208-0.384t0.96-1.152 0.24-2.592v-23.808q0-1.776-0.24-2.592-0.24-0.864-1.008-1.152-0.72-0.336-2.16-0.384zm13.152 19.296h1.296q2.448 0 3.696-1.296 1.296-1.296 1.728-3.408 0.48-2.112 0.48-4.56 0-4.56-1.056-6.816-1.008-2.256-3.552-2.256-1.632 0-2.112 0.816t-0.48 3.312zm29.712-22.848v33.072q0 2.016 0.576 2.736 0.624 0.72 2.112 0.72v1.008q-0.96-0.048-2.88-0.096-1.92-0.096-3.936-0.096t-4.08 0.096q-2.064 0.048-3.12 0.096v-1.008q1.488 0 2.064-0.72 0.624-0.72 0.624-2.736v-27.312q0-2.16-0.576-3.168-0.576-1.056-2.112-1.056v-1.008q1.536 0.144 2.976 0.144 2.4 0 4.464-0.144 2.112-0.192 3.888-0.528zm11.04 37.872q-2.256 0-3.696-0.864t-2.112-2.256q-0.624-1.392-0.624-2.928 0-2.016 0.912-3.264 0.912-1.296 2.352-2.064 1.488-0.816 3.12-1.344t3.072-1.008q1.488-0.528 2.4-1.2 0.912-0.72 0.912-1.824v-4.272q0-0.768-0.288-1.68-0.24-0.912-0.96-1.584t-2.16-0.672q-0.768 0-1.488 0.24-0.672 0.192-1.2 0.576 1.68 0.624 2.448 1.776 0.768 1.104 0.768 2.448 0 1.92-1.344 3.024t-3.168 1.104q-1.92 0-2.976-1.2t-1.056-2.976q0-1.488 0.72-2.496 0.768-1.056 2.256-1.92 1.44-0.816 3.456-1.152 2.016-0.384 4.224-0.384 2.352 0 4.368 0.48 2.016 0.432 3.456 1.92 1.008 1.056 1.296 2.64t0.288 4.08v12.864q0 1.2 0.144 1.632 0.192 0.432 0.624 0.432 0.384 0 0.72-0.24 0.384-0.24 0.72-0.48l0.48 0.816q-1.056 0.912-2.64 1.344-1.536 0.432-3.264 0.432-2.064 0-3.216-0.48-1.104-0.528-1.584-1.344-0.432-0.864-0.48-1.824-1.008 1.584-2.544 2.64-1.488 1.008-3.936 1.008zm4.56-3.84q0.528 0 0.912-0.144 0.432-0.192 0.864-0.672v-10.128q-0.336 0.624-0.912 1.248-0.528 0.576-1.104 1.2t-1.104 1.344q-0.48 0.72-0.816 1.68-0.288 0.912-0.288 2.16 0 1.824 0.672 2.592 0.72 0.72 1.776 0.72zm38.112-21.408v1.008q-0.912 0.336-1.776 1.344-0.816 0.96-1.632 3.312l-6 17.856-2.016 5.808q-0.432 1.2-0.96 2.064-0.48 0.864-1.152 1.392-0.624 0.48-1.68 0.816-1.008 0.336-2.784 0.336-1.344 0-2.88-0.432-1.488-0.432-2.592-1.44-1.056-0.96-1.056-2.64t1.296-2.688 3.408-1.008q1.968 0 3.12 0.864 1.2 0.912 1.2 2.688 0 1.056-0.768 2.112-0.72 1.056-2.352 1.584 0.384 0.048 0.864 0.048 0.48 0.048 0.768 0.048 1.536 0 2.736-0.96 1.2-0.912 1.824-2.88l0.24-0.816-11.184-24.72q-0.816-1.824-1.536-2.256t-1.248-0.432v-1.008q1.92 0.144 3.984 0.24 2.064 0.048 3.84 0.048 2.256 0 3.888-0.096t3.072-0.192v1.008q-0.864 0-1.632 0.096t-1.104 0.48q-0.336 0.336 0.048 1.248l5.904 14.064 2.016-6.144q1.104-3.264 0.912-5.376-0.144-2.112-1.104-3.168-0.96-1.104-2.4-1.2v-1.008q0.672 0.048 1.632 0.096t1.872 0.096q0.96 0 1.536 0 0.864 0 2.016-0.048t1.68-0.144zm7.92-12.624q2.496 0 3.84 1.056 1.392 1.008 1.392 3.072t-1.392 3.12q-1.344 1.008-3.84 1.008t-3.888-1.008q-1.344-1.056-1.344-3.12t1.344-3.072q1.392-1.056 3.888-1.056zm4.608 12.096v20.976q0 2.016 0.576 2.736 0.624 0.72 2.112 0.72v1.008q-0.96-0.048-2.88-0.096-1.92-0.096-3.936-0.096t-4.08 0.096q-2.064 0.048-3.12 0.096v-1.008q1.488 0 2.064-0.72 0.624-0.72 0.624-2.736v-15.216q0-2.16-0.576-3.168-0.576-1.056-2.112-1.056v-1.008q1.536 0.144 2.976 0.144 2.4 0 4.464-0.144 2.112-0.192 3.888-0.528zm23.472-0.144q2.208 0 3.456 0.576 1.296 0.528 1.968 1.344 0.72 0.864 1.056 2.304t0.336 3.888v13.008q0 2.016 0.576 2.736 0.624 0.72 2.112 0.72v1.008q-0.96-0.048-2.928-0.096-1.92-0.096-3.792-0.096-2.016 0-3.936 0.096-1.92 0.048-2.88 0.096v-1.008q1.248 0 1.728-0.72t0.48-2.736v-15.6q0-1.008-0.24-1.68t-0.768-1.008q-0.48-0.336-1.344-0.336t-1.68 0.432q-0.768 0.432-1.296 1.248-0.48 0.768-0.48 1.776v15.168q0 2.016 0.48 2.736 0.528 0.72 1.728 0.72v1.008q-0.912-0.048-2.688-0.096-1.776-0.096-3.648-0.096-2.016 0-4.08 0.096-2.064 0.048-3.12 0.096v-1.008q1.488 0 2.064-0.72 0.624-0.72 0.624-2.736v-15.216q0-2.16-0.576-3.168-0.576-1.056-2.112-1.056v-1.008q1.536 0.144 2.976 0.144 2.4 0 4.464-0.144 2.112-0.192 3.888-0.528v3.456q1.152-1.92 3.072-2.736 1.968-0.864 4.56-0.864zm20.4 34.608q-3.264 0-5.664-0.528-2.352-0.48-3.648-1.44-1.296-0.912-1.296-2.256t1.344-2.544q1.344-1.152 4.272-1.824l0.48 0.768q-0.768 0.912-1.056 1.632-0.24 0.768-0.24 1.44 0 1.872 1.68 2.88 1.728 1.056 4.8 1.056 2.16 0 3.6-0.624 1.488-0.576 2.208-1.632 0.768-1.056 0.768-2.4t-1.008-2.304-4.08-0.96h-2.592q-2.208 0-3.696-0.576t-2.256-1.584q-0.768-1.056-0.768-2.448 0-2.256 1.776-3.792 1.44-1.248 3.552-2.256-1.488-0.24-2.784-0.672-2.352-0.816-3.696-2.496-1.344-1.728-1.344-4.368t1.344-4.32q1.344-1.728 3.648-2.544 2.352-0.816 5.328-0.816t5.328 0.816q1.392 0.48 2.448 1.296 0.576-0.816 1.44-1.488 1.584-1.2 3.504-1.2 1.68 0 2.496 0.912t0.816 2.256q0 1.392-0.768 2.16-0.72 0.768-1.776 0.768-0.912 0-1.68-0.624-0.72-0.624-0.816-1.872-0.096-1.056 0.672-2.64-1.392 0.576-2.208 1.344-0.48 0.48-0.912 1.104 0.24 0.24 0.432 0.48 1.344 1.728 1.344 4.368t-1.344 4.368q-1.344 1.68-3.696 2.496-2.304 0.816-5.28 0.816-0.672 0-1.344-0.048-0.336 0.288-0.72 0.624-0.528 0.48-0.528 1.392 0 1.536 1.728 1.536h4.656q3.12 0 5.424 0.672 2.352 0.672 3.648 2.208 1.344 1.488 1.344 3.936 0 2.4-1.584 4.416-1.536 2.064-4.8 3.264-3.264 1.248-8.496 1.248zm0.672-20.112q0.912 0 1.44-1.488t0.528-5.328-0.528-5.328-1.44-1.488-1.44 1.488-0.528 5.328 0.528 5.328 1.44 1.488zm63.984 9.36 0.912 0.24q-0.24 3.072-1.104 5.376t-2.4 3.456q-1.056 0.816-2.688 1.248t-3.312 0.432q-2.688 0-5.328-0.816-2.592-0.768-5.232-1.968-2.592-1.152-5.376-2.304-0.288-0.096-0.624-0.24-0.336-0.096-0.528-0.096-0.912 0.528-2.016 0.864-1.056 0.336-2.016 0.336t-1.632-0.336q-0.624-0.336-0.624-1.104 0-1.488 2.64-1.488 1.68 0 3.648 0.864 1.824-0.48 3.168-1.104 1.248-0.576 2.64-1.056-3.888-0.384-7.008-1.968-4.08-2.064-6.336-5.952t-2.256-9.36q0-5.376 2.304-9.408 2.352-4.032 6.432-6.288t9.408-2.256q5.424 0 9.504 2.064t6.336 5.952q2.256 3.84 2.256 9.36 0 5.376-2.304 9.408t-6.384 6.288q-3.888 2.112-8.88 2.256-1.296 0.144-2.256 0.48-1.152 0.432-2.304 0.912-1.104 0.48-2.64 0.912 4.128 0.096 7.104 0.144 3.024 0.096 5.376-0.048 2.4-0.144 4.56-0.576 2.64-0.576 4.176-1.488 1.584-0.912 2.784-2.736zm-17.52-32.064q-2.4 0-4.176 2.16t-2.736 5.952-0.96 8.784q0 5.088 1.104 8.88 1.104 3.744 2.976 5.808 1.872 2.016 4.128 2.016 2.4 0 4.176-2.16t2.736-5.952q0.96-3.84 0.96-8.784 0-5.136-1.104-8.88t-2.976-5.76q-1.872-2.064-4.128-2.064zm46.32 8.352v20.208q0 2.16 0.576 3.216 0.624 1.008 2.112 1.008v1.008q-1.488-0.144-2.976-0.144-2.4 0-4.464 0.144t-3.888 0.528v-3.456q-1.152 1.92-3.12 2.784-1.92 0.816-4.512 0.816-2.208 0-3.504-0.576-1.248-0.528-1.92-1.344-0.72-0.864-1.056-2.304t-0.336-3.888v-12.24q0-2.16-0.576-3.168-0.576-1.056-2.112-1.056v-1.008q1.536 0.144 2.976 0.144 2.4 0 4.464-0.144 2.112-0.192 3.888-0.528v20.592q0 1.008 0.24 1.68t0.768 1.008 1.344 0.336q0.912 0 1.68-0.432t1.248-1.2q0.528-0.816 0.528-1.824v-14.4q0-2.16-0.576-3.168-0.576-1.056-2.112-1.056v-1.008q1.536 0.144 2.976 0.144 2.4 0 4.464-0.144 2.112-0.192 3.888-0.528zm17.376-0.144q4.224 0 6.624 2.496 2.448 2.448 2.448 8.256h-12.384q-0.048 0.336-0.048 0.72v1.008q0 3.36 0.816 5.232 0.864 1.872 2.112 2.592 1.296 0.72 2.592 0.72 0.672 0 1.584-0.192 0.96-0.192 2.064-0.864 1.104-0.72 2.16-2.16l0.816 0.288q-0.576 1.92-1.872 3.84-1.248 1.872-3.264 3.12-2.016 1.2-4.896 1.2-3.072 0-5.616-1.248-2.496-1.248-3.984-4.128t-1.488-7.728q0-4.608 1.632-7.488 1.632-2.928 4.416-4.272 2.832-1.392 6.288-1.392zm-3.504 9.84h5.568q0.048-2.352-0.192-4.32-0.24-2.016-0.768-3.216t-1.44-1.2q-1.296 0-2.112 2.016t-1.056 6.72zm24.912-9.84q2.112 0 3.696 0.48 1.632 0.432 2.352 0.816 0.768 0.432 1.248 0.24 0.624-0.24 0.816-1.488h0.96q-0.096 1.392-0.144 3.408-0.048 1.968-0.048 5.232h-0.96q-0.192-1.776-0.864-3.504-0.624-1.728-1.872-2.88-1.2-1.152-3.168-1.152-1.2 0-2.016 0.72t-0.816 1.968q0 1.44 0.864 2.592 0.864 1.104 2.208 2.16 1.344 1.008 2.688 2.16 1.488 1.2 2.64 2.352t1.824 2.544q0.72 1.344 0.72 3.216 0 2.16-1.344 3.84-1.296 1.68-3.504 2.64-2.16 0.912-4.848 0.912-1.68 0-2.928-0.384-1.248-0.336-2.016-0.816-0.768-0.384-1.344-0.576-0.528-0.24-1.056-0.24-0.48 0-0.816 0.528-0.336 0.48-0.528 1.152h-0.96q0.096-1.536 0.144-3.744t0.048-5.856h0.96q0.288 2.544 1.104 4.512 0.864 1.968 2.16 3.12 1.344 1.104 3.072 1.104 0.768 0 1.392-0.288t1.008-0.864 0.384-1.488q0-2.112-1.296-3.552-1.248-1.44-3.168-3.168-1.44-1.344-2.736-2.592-1.248-1.296-2.064-2.784-0.816-1.536-0.816-3.408 0-2.16 1.248-3.696 1.296-1.536 3.36-2.352 2.064-0.864 4.416-0.864zm23.664-7.104v7.776h4.704v0.96h-4.704v19.92q0 0.912 0.336 1.344 0.336 0.384 1.104 0.384 0.528 0 1.248-0.288 0.72-0.336 1.344-1.104l0.72 0.576q-1.008 1.728-2.688 2.784-1.632 1.008-4.128 1.008-1.584 0-2.88-0.432-1.248-0.384-2.064-1.2-1.056-1.056-1.344-2.592-0.288-1.584-0.288-4.08v-16.32h-3.648v-0.96h3.648v-5.664q2.544 0 4.608-0.48 2.112-0.528 4.032-1.632z"
  />
  <path
    id="slogan"
    fill="currentColor"
    d="m73.43 208.06q-0.43549 0-0.9 0.0145-0.45 0-0.84194 0.0145-0.39193 0-0.66774 0.0145l0.14516-0.52258 0.56613-0.0581q0.49355-0.0435 0.75484-0.14516 0.27581-0.11613 0.42097-0.34839 0.15968-0.24677 0.29032-0.69677l1.8726-6.7355q0.13065-0.43548 0.11613-0.66774-0.0145-0.24677-0.23226-0.3629-0.20322-0.11613-0.68226-0.15968l-0.53709-0.0581 0.14516-0.52258q0.26129 0 0.63871 0.0145 0.39193 0.0145 0.85645 0.0145h0.91452l0.10161 0.0145q0.34839-0.0145 0.63871-0.0145 0.30484 0 0.5371-0.0145 0.24677-0.0145 0.39193-0.0145 2.1774 0 3.3823 1.1177 1.2194 1.1177 1.2194 3.1064 0 1.3355-0.52258 2.4387-0.50806 1.1032-1.4516 1.9161-0.92903 0.8129-2.221 1.2629-1.2919 0.43549-2.8306 0.43549-0.27581 0-0.60968-0.0145-0.31936-0.0145-0.69677-0.0145-0.36291-0.0145-0.78388-0.0145zm2.279-0.46452q1.1613 0 2.1194-0.40645 0.97258-0.40645 1.6694-1.1468 0.71129-0.75484 1.1032-1.7565 0.39193-1.0161 0.39193-2.221 0-1.8-0.85645-2.7581-0.85645-0.95806-2.4677-0.95806h-0.76936l-2.2355 8.0129q-0.20323 0.74032 0 0.9871 0.21774 0.24677 1.0452 0.24677zm10.931-1.35q-0.20323 0.59516-0.14517 0.94355 0.0726 0.34839 0.46452 0.34839 0.33387 0 0.62419-0.26129 0.29033-0.26129 0.5371-0.74033l0.29032-0.53709h0.52258l-0.33387 0.62419q-0.26129 0.49355-0.58064 0.88549-0.30484 0.39193-0.69678 0.60967-0.37742 0.21774-0.85645 0.21774-0.60968 0-0.94355-0.29032-0.31935-0.30484-0.3629-0.82742-0.0436-0.52258 0.18871-1.2048l1.1323-3.4984q0.20322-0.59516 0.13064-0.92904-0.0581-0.34838-0.46451-0.34838-0.31936 0-0.60968 0.26129-0.27581 0.24677-0.55161 0.74032l-0.27581 0.5371h-0.52258l0.31935-0.6242q0.27581-0.50806 0.58065-0.88548 0.31935-0.39194 0.69677-0.60968 0.39194-0.21774 0.87097-0.21774 0.60968 0 0.92903 0.30484 0.33387 0.29032 0.37742 0.8129 0.0581 0.50807-0.18871 1.1903zm1.1613-7.3306q-0.40646 0-0.68226-0.26129-0.26129-0.27581-0.26129-0.66775 0-0.42096 0.31935-0.7258 0.31936-0.30484 0.75484-0.30484 0.39194 0 0.65323 0.27581 0.2758 0.26129 0.2758 0.65322 0 0.40645-0.31935 0.72581-0.31936 0.30484-0.74032 0.30484zm4.6452 9.3919q-0.79839 0-1.4226-0.23226-0.60968-0.23225-0.95807-0.62419-0.34838-0.40645-0.34838-0.9 0-0.40645 0.21774-0.63871 0.21774-0.24677 0.58064-0.24677 0.33387 0 0.50807 0.20322 0.18871 0.18871 0.20322 0.55162 0.0145 0.14516 0 0.33387t-0.0145 0.31935q0.0435 0.37742 0.33387 0.55161 0.30484 0.1742 0.88549 0.1742 0.8129 0 1.2774-0.34839 0.47903-0.3629 0.47903-0.97258 0-0.43548-0.23226-0.76935-0.21774-0.33388-0.56613-0.59517-0.33387-0.26129-0.7258-0.50806-0.39194-0.26129-0.74033-0.55161-0.34838-0.29033-0.56613-0.66775-0.21774-0.37741-0.21774-0.88548 0-0.91452 0.76936-1.4806 0.76935-0.58065 1.9597-0.58065 0.72581 0 1.2919 0.21774 0.56613 0.20323 0.88548 0.56613 0.33387 0.3629 0.33387 0.82742 0 0.3629-0.18871 0.58065-0.1887 0.21774-0.52258 0.21774-0.30483 0-0.50806-0.1742-0.18871-0.17419-0.20323-0.47903 0-0.15968 0.0145-0.31935 0.0145-0.1742 0-0.27581-0.0145-0.33387-0.29032-0.49355-0.2758-0.15968-0.79839-0.15968-0.68225 0-1.0597 0.30484-0.37742 0.29033-0.37742 0.79839 0 0.42097 0.21774 0.74032 0.23226 0.30484 0.56613 0.58065 0.34839 0.26129 0.74032 0.52258 0.39194 0.26129 0.72581 0.56613 0.34838 0.29032 0.56613 0.68226 0.23225 0.37742 0.23225 0.9 0 0.66774-0.40645 1.1758-0.39193 0.50807-1.0742 0.79839t-1.5677 0.29032zm7.6064 0q-1.0887 0-1.6984-0.7258-0.60967-0.74033-0.60967-2.0468 0-1.0161 0.34838-1.9306 0.34839-0.91452 0.94355-1.6258t1.3645-1.1177q0.76935-0.42097 1.6113-0.42097 0.79839 0 1.2629 0.37742 0.47903 0.3629 0.47903 1.0161 0 0.40645-0.18871 0.78387-0.18871 0.3629-0.49354 0.59516-0.30484 0.21774-0.66775 0.21774-0.2758 0-0.45-0.14516-0.15967-0.14516-0.15967-0.39193 0-0.24678 0.13064-0.45 0.14516-0.20323 0.33387-0.37742 0.18871-0.1742 0.31936-0.34839 0.14516-0.18871 0.14516-0.39194 0-0.3629-0.5371-0.3629-0.58064 0-1.1323 0.37742-0.53709 0.3629-0.97258 1.0016-0.43548 0.6242-0.68225 1.4226-0.24678 0.78387-0.24678 1.6403 0 1.0452 0.3629 1.6113 0.36291 0.55161 1.0597 0.55161 0.56613 0 1.0306-0.3629 0.47903-0.36291 0.85645-1.1178h0.50806q-0.49355 1.0887-1.2339 1.6548t-1.6839 0.56613zm7.3306 0.0145q-1.1323 0-1.771-0.75484-0.62419-0.75484-0.62419-2.0758 0-1.0161 0.33387-1.9161 0.33387-0.91451 0.91452-1.6113 0.59516-0.71129 1.3355-1.1177 0.75484-0.40645 1.5968-0.40645 1.1177 0 1.7564 0.75484 0.63871 0.74032 0.63871 2.0758 0 1.0161-0.33387 1.9306-0.33387 0.9-0.92904 1.6113-0.58064 0.69678-1.3355 1.1032t-1.5823 0.40645zm0.0871-0.52258q0.40645 0 0.79839-0.26129 0.40645-0.27581 0.74032-0.74033 0.34839-0.47903 0.60968-1.0887 0.27581-0.6242 0.42097-1.3355t0.14516-1.4371q0-0.97258-0.27581-1.4661-0.27581-0.50807-0.8129-0.50807-0.40645 0-0.81291 0.27581-0.39193 0.26129-0.74032 0.7258-0.34838 0.46452-0.60968 1.0887-0.26129 0.6242-0.42096 1.3355-0.14516 0.69677-0.14516 1.4226 0 0.98709 0.2758 1.4952 0.29032 0.49355 0.82742 0.49355zm8.9129 0.50806q-0.85645 0-1.35-0.56613-0.47903-0.58064-0.47903-1.6403 0-0.71129 0.24677-1.4661 0.24678-0.76935 0.72581-1.5968 0.39194-0.68226 0.91452-1.4081-0.23226-0.0145-0.43549-0.0726-0.31935-0.0871-0.59516-0.18871-0.26129-0.11613-0.50806-0.20322-0.23226-0.0871-0.46452-0.0871-0.31935 0-0.31935 0.26129 0 0.11613 0.0581 0.24677 0.0726 0.11613 0.14516 0.26129 0.0871 0.13065 0.14516 0.29033 0.0726 0.14516 0.0726 0.31935 0 0.34839-0.21774 0.58065-0.20323 0.21774-0.55162 0.21774-0.37742 0-0.59516-0.24677-0.20322-0.2613-0.20322-0.69678 0-0.5371 0.30484-0.95806 0.30483-0.42097 0.79838-0.66775 0.49355-0.24677 1.0452-0.24677 0.43549 0 0.75484 0.10161 0.31936 0.10162 0.60968 0.24678 0.18871 0.11613 0.39194 0.20322 0.20322-0.24677 0.39193-0.37742 0.26129-0.17419 0.49355-0.17419 0.24677 0 0.37742 0.11613 0.14516 0.10161 0.14516 0.30484 0 0.34839-0.42097 0.56613-0.33387 0.17419-0.85645 0.20322-0.49355 1.1758-0.71129 2.1048-0.24677 1.0306-0.24677 1.8581 0 0.78387 0.30483 1.2048 0.30484 0.40646 0.87097 0.40646 0.58065 0 1.1032-0.31936 0.52258-0.31935 0.94355-0.84193 0.42096-0.52258 0.65322-1.1468 0.24678-0.62419 0.24678-1.2194 0-0.42097-0.11613-0.71129-0.11613-0.29033-0.27581-0.50807-0.14516-0.21774-0.31935-0.40645-0.15968-0.20323-0.27581-0.39193-0.10161-0.20323-0.10161-0.45 0-0.33388 0.21774-0.55162t0.59516-0.21774q0.49355 0 0.75484 0.43548 0.27581 0.43549 0.27581 1.3936 0 1.1613-0.37742 2.2355-0.36291 1.0742-1.0016 1.9452-0.63871 0.85645-1.4516 1.3645-0.8129 0.49355-1.7129 0.49355zm8.6952 0q-1.1323 0-1.7564-0.71129-0.60968-0.7258-0.60968-2.0323 0-1.0161 0.34839-1.9306 0.3629-0.92903 0.95806-1.6403 0.60968-0.72581 1.379-1.1323 0.78387-0.42097 1.6548-0.42097 0.78388 0 1.1903 0.34839 0.40645 0.34838 0.40645 1.0016 0 0.78387-0.58065 1.4952-0.58064 0.69678-1.6403 1.2339-0.9871 0.50807-2.3081 0.82742 0 0.0581 0 0.11613 0 1.0161 0.39193 1.5677 0.39194 0.5371 1.1032 0.5371 0.59516 0 1.0742-0.3629 0.49355-0.37742 0.88549-1.1178h0.50806q-0.49355 1.0887-1.2629 1.6548-0.76936 0.56613-1.7419 0.56613zm-0.92903-3.4113q0.95806-0.29032 1.6694-0.7258 0.76936-0.46452 1.1758-1.0452 0.40645-0.59516 0.40645-1.2919 0-0.43549-0.17419-0.65323-0.15968-0.23226-0.49355-0.23226-0.45 0-0.91452 0.40646-0.46451 0.39193-0.85645 1.0597-0.37742 0.65323-0.60968 1.4516-0.14516 0.52258-0.20322 1.0306zm6.5032 3.2081 1.0452-3.7161 0.50807-1.829q0.17419-0.60968 0.0581-0.95807-0.10161-0.3629-0.49355-0.3629-0.31935 0-0.60968 0.26129-0.29032 0.24677-0.55161 0.74032l-0.27581 0.5371h-0.52258l0.31936-0.6242q0.27581-0.50806 0.58064-0.88548 0.30484-0.39194 0.69678-0.60968 0.39193-0.21774 0.87097-0.21774 0.60967 0 0.94354 0.30484 0.34839 0.29032 0.42097 0.8129 0.0145 0.10162 0.0145 0.20323 0.3629-0.58065 0.84193-0.91452 0.58065-0.40645 1.2484-0.40645 0.55161 0 0.84194 0.27581 0.30483 0.2758 0.30483 0.8129 0 0.40645-0.17419 0.79839-0.15968 0.37742-0.43548 0.60967-0.26129 0.23226-0.58065 0.23226-0.24677 0-0.40645-0.14516-0.14516-0.15968-0.14516-0.39193 0-0.23226 0.11613-0.43549 0.11613-0.21774 0.21774-0.40645 0.11613-0.20323 0.11613-0.34839 0-0.24677-0.39194-0.24677-0.42096 0-0.9 0.34839-0.39193 0.2758-0.68225 0.71129-0.029 0.26129-0.11613 0.53709l-0.45 1.5968-1.0452 3.7161zm13.456 0.20322q-0.97258 0-1.5242-0.74032-0.55161-0.75484-0.55161-2.0613 0-1.0161 0.31935-1.9306 0.31935-0.91451 0.87097-1.6113 0.56613-0.71129 1.2774-1.1177 0.7258-0.40645 1.5242-0.40645 0.68226 0 1.2919 0.30484 0.37742 0.20322 0.69677 0.50806 0.20323-0.11613 0.40645-0.23225 0.45-0.27581 0.81291-0.6242l0.29032 0.39194q-0.23226 0.21774-0.39194 0.42097-0.14516 0.1887-0.24677 0.43548-0.10161 0.23226-0.20323 0.58064l-0.59516 2.1629-0.52258 1.829q-0.17419 0.59516-0.0726 0.95806 0.11613 0.36291 0.50806 0.36291 0.31936 0 0.60968-0.26129t0.55161-0.74033l0.27581-0.53709h0.5371l-0.33387 0.62419q-0.26129 0.49355-0.58065 0.88549-0.30484 0.39193-0.69677 0.60967-0.37742 0.21774-0.87097 0.21774-0.59516 0-0.94355-0.30483-0.34839-0.30484-0.40645-0.84194-0.0145-0.0726-0.0145-0.14516-0.31935 0.5371-0.74032 0.84193-0.56613 0.42097-1.2774 0.42097zm2.5984-3.9194 0.63871-2.3081q-0.11613-0.46451-0.37742-0.75484-0.34839-0.3629-0.87097-0.3629-0.50806 0-1.0016 0.37742-0.47903 0.3629-0.85645 0.9871-0.37742 0.62419-0.59516 1.4226-0.21775 0.79838-0.21775 1.6694 0 1.0306 0.33387 1.5387 0.33388 0.49355 0.97259 0.49355 0.46451 0 0.87096-0.29032 0.29033-0.21774 0.5371-0.59516 0.029-0.27581 0.11613-0.59516zm10.394 3.9194q-0.97258 0-1.5387-0.75484t-0.56613-2.0468q0-0.97258 0.30484-1.8871 0.31936-0.91451 0.85645-1.6258 0.5371-0.72581 1.2194-1.1323 0.68226-0.42097 1.4081-0.42097 0.65323 0 1.1468 0.31936 0.37742 0.26129 0.58064 0.65322l0.66774-2.4097q0.14517-0.49354 0.0726-0.78387-0.0581-0.29032-0.39194-0.40645-0.33387-0.11613-1.0306-0.13064l0.15968-0.52258q1.0016-0.0145 1.8-0.15968 0.79839-0.15968 1.4371-0.43549l-2.1774 7.8242-0.50807 1.829q-0.17419 0.59516-0.0726 0.95806 0.10162 0.36291 0.50807 0.36291 0.31935 0 0.60968-0.26129 0.29032-0.26129 0.55161-0.74033l0.27581-0.53709h0.52258l-0.31936 0.62419q-0.27581 0.50807-0.59516 0.9-0.30484 0.37742-0.68226 0.59516t-0.87097 0.21774q-0.60967 0-0.95806-0.30483-0.33387-0.30484-0.39194-0.84194-0.0145-0.0726-0.0145-0.15968-0.33387 0.5371-0.75484 0.85645-0.55161 0.42097-1.2484 0.42097zm2.5839-3.9194 0.68226-2.4387q-0.18871-0.33387-0.47903-0.52258-0.34839-0.21774-0.78387-0.21774-0.5371 0-1.0306 0.33387-0.47903 0.33387-0.85645 0.92903-0.37742 0.58064-0.59516 1.3355t-0.21774 1.5968q0 0.98709 0.33387 1.5242 0.33387 0.52258 0.9871 0.52258 0.45 0 0.85645-0.30484 0.30484-0.21774 0.53709-0.58064 0.029-0.27581 0.11613-0.59516zm6.5323 3.9194q-0.97258 0-1.5242-0.74032-0.55161-0.75484-0.55161-2.0613 0-1.0161 0.31935-1.9306 0.31936-0.91451 0.87097-1.6113 0.56613-0.71129 1.2774-1.1177 0.72581-0.40645 1.5242-0.40645 0.68226 0 1.2919 0.30484 0.37742 0.20322 0.69677 0.50806 0.20323-0.11613 0.40646-0.23225 0.45-0.27581 0.8129-0.6242l0.29032 0.39194q-0.23226 0.21774-0.39193 0.42097-0.14517 0.1887-0.24678 0.43548-0.10161 0.23226-0.20322 0.58064l-0.59517 2.1629-0.52258 1.829q-0.17419 0.59516-0.0726 0.95806 0.11613 0.36291 0.50807 0.36291 0.31935 0 0.60967-0.26129 0.29033-0.26129 0.55162-0.74033l0.2758-0.53709h0.5371l-0.33387 0.62419q-0.26129 0.49355-0.58065 0.88549-0.30483 0.39193-0.69677 0.60967-0.37742 0.21774-0.87097 0.21774-0.59516 0-0.94355-0.30483-0.34838-0.30484-0.40645-0.84194-0.0145-0.0726-0.0145-0.14516-0.31936 0.5371-0.74033 0.84193-0.56612 0.42097-1.2774 0.42097zm2.5984-3.9194 0.63871-2.3081q-0.11613-0.46451-0.37742-0.75484-0.34838-0.3629-0.87097-0.3629-0.50806 0-1.0016 0.37742-0.47903 0.3629-0.85645 0.9871-0.37742 0.62419-0.59516 1.4226-0.21774 0.79838-0.21774 1.6694 0 1.0306 0.33387 1.5387 0.33387 0.49355 0.97258 0.49355 0.46451 0 0.87097-0.29032 0.29032-0.21774 0.53709-0.59516 0.029-0.27581 0.11613-0.59516zm6.4742 1.8581q-0.20323 0.59516-0.14517 0.94355 0.0726 0.34839 0.46452 0.34839 0.33387 0 0.62419-0.26129 0.29033-0.26129 0.5371-0.74033l0.29032-0.53709h0.52258l-0.33387 0.62419q-0.26129 0.49355-0.58064 0.88549-0.30484 0.39193-0.69678 0.60967-0.37742 0.21774-0.85645 0.21774-0.60968 0-0.94355-0.29032-0.31935-0.30484-0.3629-0.82742-0.0436-0.52258 0.18871-1.2048l1.1323-3.4984q0.20322-0.59516 0.13064-0.92904-0.0581-0.34838-0.46451-0.34838-0.31936 0-0.60968 0.26129-0.27581 0.24677-0.55161 0.74032l-0.27581 0.5371h-0.52258l0.31935-0.6242q0.27581-0.50806 0.58065-0.88548 0.31935-0.39194 0.69677-0.60968 0.39194-0.21774 0.87097-0.21774 0.60968 0 0.92903 0.30484 0.33388 0.29032 0.37742 0.8129 0.0581 0.50807-0.18871 1.1903zm1.1613-7.3306q-0.40646 0-0.68226-0.26129-0.26129-0.27581-0.26129-0.66775 0-0.42096 0.31935-0.7258 0.31936-0.30484 0.75484-0.30484 0.39194 0 0.65323 0.27581 0.2758 0.26129 0.2758 0.65322 0 0.40645-0.31935 0.72581-0.31936 0.30484-0.74032 0.30484zm3.121 5.4726 1.4952-5.3855q0.14516-0.49354 0.0726-0.78387-0.0581-0.29032-0.39193-0.40645-0.33387-0.11613-1.0161-0.13064l0.14516-0.52258q1.0016-0.0145 1.8-0.15968 0.79839-0.15968 1.4371-0.43549l-2.1774 7.8242-0.50807 1.829q-0.17419 0.59516-0.0726 0.95806 0.11613 0.36291 0.50807 0.36291 0.31935 0 0.60967-0.26129 0.29033-0.26129 0.55162-0.74033l0.2758-0.53709h0.5371l-0.33387 0.62419q-0.26129 0.50807-0.58065 0.9-0.30483 0.37742-0.69677 0.59516-0.37742 0.21774-0.87097 0.21774-0.60967 0-0.95806-0.30483-0.33387-0.30484-0.40645-0.82742-0.0581-0.5371 0.13064-1.2339zm3.2226 7.1855q-0.47903 0-0.76935-0.21774-0.30484-0.21774-0.30484-0.59516 0-0.33387 0.24677-0.55161 0.23226-0.21775 0.59516-0.21775 0.21775 0 0.42097 0.0581 0.20323 0.0726 0.39194 0.15968 0.18871 0.0871 0.37742 0.14516 0.20322 0.0581 0.40645 0.0581 0.40645 0 0.98709-0.39193 0.45-0.30484 0.92904-0.78388 0.10161-1.0161 0.11613-2.0177 0.0145-1.2194-0.0726-2.2936t-0.24678-1.8871q-0.15968-0.81291-0.39193-1.2774-0.21775-0.46452-0.49355-0.46452-0.18871 0-0.40645 0.21774-0.20323 0.21775-0.46452 0.72581l-0.27581 0.5371h-0.53709l0.43548-0.84194q0.40645-0.76935 0.82742-1.1323 0.42097-0.3629 0.88548-0.3629 0.71129 0 1.1613 0.85645 0.46452 0.85645 0.66775 2.5839 0.18871 1.5823 0.13064 3.8758 0.0871-0.11613 0.17419-0.23226 0.60968-0.78387 1.1032-1.6113t0.78387-1.5532q0.30484-0.72581 0.30484-1.2484 0-0.37742-0.15968-0.6242-0.14516-0.26129-0.3629-0.45-0.20323-0.20322-0.3629-0.40645-0.14517-0.20322-0.14517-0.46451 0-0.30484 0.21775-0.50807 0.21774-0.21774 0.59516-0.21774 0.49355 0 0.76935 0.37742 0.27581 0.37742 0.27581 1.0742 0 0.84194-0.37742 1.8871-0.3629 1.0306-1.0016 2.1194-0.63871 1.0887-1.4516 2.1048-0.8129 1.0016-1.6839 1.8145-0.87096 0.8129-1.7274 1.2774-0.84193 0.47903-1.5677 0.47903zm15.373-3.2661q-0.97258 0-1.5242-0.74032-0.55161-0.75484-0.55161-2.0613 0-1.0161 0.31935-1.9306 0.31936-0.91451 0.87097-1.6113 0.56613-0.71129 1.2774-1.1177 0.7258-0.40645 1.5242-0.40645 0.68226 0 1.2919 0.30484 0.37742 0.20322 0.69677 0.50806 0.20323-0.11613 0.40645-0.23225 0.45-0.27581 0.81291-0.6242l0.29032 0.39194q-0.23226 0.21774-0.39194 0.42097-0.14516 0.1887-0.24677 0.43548-0.10161 0.23226-0.20323 0.58064l-0.59516 2.1629-0.52258 1.829q-0.17419 0.59516-0.0726 0.95806 0.11613 0.36291 0.50806 0.36291 0.31936 0 0.60968-0.26129t0.55162-0.74033l0.2758-0.53709h0.5371l-0.33387 0.62419q-0.26129 0.49355-0.58065 0.88549-0.30484 0.39193-0.69677 0.60967-0.37742 0.21774-0.87097 0.21774-0.59516 0-0.94355-0.30483-0.34839-0.30484-0.40645-0.84194-0.0145-0.0726-0.0145-0.14516-0.31935 0.5371-0.74032 0.84193-0.56613 0.42097-1.2774 0.42097zm2.5984-3.9194 0.63871-2.3081q-0.11613-0.46451-0.37742-0.75484-0.34839-0.3629-0.87097-0.3629-0.50806 0-1.0016 0.37742-0.47903 0.3629-0.85645 0.9871-0.37742 0.62419-0.59516 1.4226-0.21775 0.79838-0.21775 1.6694 0 1.0306 0.33388 1.5387 0.33387 0.49355 0.97258 0.49355 0.46451 0 0.87096-0.29032 0.29033-0.21774 0.5371-0.59516 0.029-0.27581 0.11613-0.59516zm5.1387 0 1.4952-5.3855q0.14516-0.49354 0.0726-0.78387-0.0581-0.29032-0.39193-0.40645-0.33388-0.11613-1.0161-0.13064l0.14516-0.52258q1.0016-0.0145 1.8-0.15968 0.79839-0.15968 1.4371-0.43549l-2.1774 7.8242-0.50807 1.829q-0.17419 0.59516-0.0726 0.95806 0.11613 0.36291 0.50806 0.36291 0.31936 0 0.60968-0.26129t0.55162-0.74033l0.2758-0.53709h0.5371l-0.33387 0.62419q-0.26128 0.50807-0.58065 0.9-0.30484 0.37742-0.69677 0.59516-0.37741 0.21774-0.87097 0.21774-0.60968 0-0.95806-0.30483-0.33388-0.30484-0.40646-0.82742-0.0581-0.5371 0.13065-1.2339zm6.8952 3.9194q-0.91452 0-1.4516-0.45-0.5371-0.45-0.65323-1.2774-0.11613-0.84193 0.20323-2.0177l0.0581-0.17419 1.4952-5.3855q0.14516-0.49354 0.0726-0.78387-0.0581-0.29032-0.39193-0.40645-0.33387-0.11613-1.0161-0.13064l0.14516-0.52258q1.0016-0.0145 1.8-0.15968 0.79839-0.15968 1.4371-0.43549l-1.3355 4.7903q0.21774-0.29033 0.49355-0.49355 0.56613-0.42097 1.2774-0.42097 0.97258 0 1.5242 0.75484 0.56613 0.75484 0.56613 2.0758 0 1.0306-0.33387 1.9452-0.33387 0.91451-0.91452 1.6113-0.58064 0.69677-1.35 1.0887-0.75483 0.39193-1.6258 0.39193zm0.15968-6.1984-0.63871 2.279-0.13065 0.49355q-0.37742 1.4226-0.21774 2.1629 0.17419 0.74032 0.9 0.74032 0.5371 0 1.0306-0.3629 0.49355-0.3629 0.88549-0.97258 0.39193-0.6242 0.60968-1.4226 0.21774-0.79839 0.21774-1.6694 0-1.0306-0.33387-1.5823-0.31936-0.55161-0.94355-0.55161-0.46452 0-0.88549 0.31936-0.2758 0.21774-0.49354 0.56613zm8.4774 2.279-0.29032 1.0742q-0.29032 1.0016-0.0581 1.5387 0.23225 0.52258 0.92903 0.52258 0.62419 0 1.1613-0.45 0.2758-0.23226 0.55161-0.60968 0.0435-0.23225 0.11613-0.49354l0.45-1.5823 1.0306-3.7306h1.3645l-1.0306 3.7306-0.52258 1.829q-0.15968 0.59516-0.0581 0.95806 0.10161 0.36291 0.50807 0.36291 0.31935 0 0.60967-0.26129 0.29033-0.26129 0.5371-0.74033l0.29032-0.53709h0.52258l-0.33387 0.62419q-0.26129 0.50807-0.58064 0.9-0.30484 0.37742-0.68226 0.59516t-0.87097 0.21774q-0.60968 0-0.95806-0.30483-0.33387-0.30484-0.40645-0.84194-0.0145-0.11613-0.0145-0.26129-0.3629 0.52258-0.75484 0.84194-0.69677 0.56612-1.5823 0.56612-1.0887 0-1.5242-0.78387-0.43549-0.78387-0.0726-2.0758l0.30484-1.0887 0.50806-1.829q0.17419-0.60968 0.0581-0.95807-0.10162-0.3629-0.49355-0.3629-0.31936 0-0.60968 0.26129-0.29032 0.24677-0.55161 0.74032l-0.27581 0.5371h-0.52258l0.31935-0.6242q0.27581-0.50806 0.58065-0.88548 0.30484-0.39194 0.69677-0.60968 0.39194-0.21774 0.87097-0.21774 0.60968 0 0.94355 0.30484 0.34839 0.29032 0.42097 0.82742 0.0726 0.52258-0.13065 1.2194zm12.847 0 0.29032-1.0452q0.29033-1.0452 0.0581-1.5678-0.23226-0.53709-0.95807-0.53709-0.65322 0-1.1903 0.43548-0.31935 0.26129-0.60968 0.66774-0.029 0.21775-0.10161 0.45l-0.45 1.5968-1.0452 3.7161h-1.3645l1.0452-3.7161 0.50807-1.829q0.17419-0.60968 0.0581-0.95807-0.10161-0.3629-0.49355-0.3629-0.31935 0-0.60967 0.26129-0.29033 0.24677-0.55162 0.74032l-0.2758 0.5371h-0.52258l0.31935-0.6242q0.27581-0.50806 0.58065-0.88548 0.30484-0.39194 0.69677-0.60968 0.39194-0.21774 0.87097-0.21774 0.60968 0 0.94355 0.30484 0.34838 0.29032 0.42097 0.8129 0.0145 0.13065 0.0145 0.27581 0.3629-0.52258 0.78387-0.84194 0.71129-0.55161 1.6113-0.55161 1.1032 0 1.5532 0.78387 0.20322 0.3629 0.23226 0.82742 0.42096-0.68226 0.91451-1.0597 0.68226-0.55161 1.5532-0.55161 1.0742 0 1.5097 0.78387 0.43548 0.76936 0.0871 2.0613l-0.31935 1.1032-0.50807 1.829q-0.17419 0.59516-0.0726 0.95806 0.11613 0.36291 0.50807 0.36291 0.31935 0 0.60967-0.26129 0.29033-0.26129 0.55162-0.74033l0.2758-0.53709h0.52258l-0.31935 0.62419q-0.26129 0.50807-0.58065 0.9-0.30483 0.37742-0.69677 0.59516-0.37742 0.21774-0.87097 0.21774-0.60967 0-0.95806-0.30483-0.33387-0.30484-0.40645-0.82742-0.0581-0.5371 0.13064-1.2339l0.45-1.5823 0.30484-1.0887q0.27581-1.0016 0.0436-1.5242-0.21774-0.53709-0.91452-0.53709-0.60967 0-1.1323 0.43548-0.34838 0.29032-0.68225 0.79839-0.029 0.39193-0.15968 0.87097l-0.29032 1.0452-1.0452 3.7161h-1.3645zm15.561 3.9194q-0.88549 0-1.4226-0.53709-0.52258-0.5371-0.52258-1.5387 0-0.74033 0.26129-1.5242 0.2758-0.78387 0.79838-1.6258 0.43549-0.69678 1.0452-1.4516-0.26129-0.0145-0.49354-0.0726-0.34839-0.0871-0.65323-0.18871-0.29032-0.11613-0.55161-0.20322-0.24678-0.0871-0.50807-0.0871-0.31935 0-0.31935 0.26129 0 0.11613 0.0581 0.24677 0.0726 0.11613 0.14516 0.26129 0.0871 0.13065 0.14517 0.29033 0.0726 0.14516 0.0726 0.31935 0 0.34839-0.21775 0.58065-0.20322 0.21774-0.55161 0.21774-0.37742 0-0.59516-0.24677-0.20323-0.2613-0.20323-0.69678 0-0.5371 0.30484-0.95806 0.30484-0.42097 0.79839-0.66775 0.49355-0.24677 1.0452-0.24677 0.46452 0 0.82742 0.10161 0.3629 0.10162 0.68226 0.24678 0.23226 0.11613 0.45 0.21774 0.20322-0.26129 0.39193-0.39194 0.26129-0.17419 0.50807-0.17419 0.24677 0 0.37742 0.11613 0.13064 0.10161 0.13064 0.30484 0 0.34839-0.42096 0.56613-0.33388 0.17419-0.87097 0.20322-0.37742 0.75484-0.60968 1.3936-0.29032 0.75484-0.42097 1.3936-0.13064 0.63871-0.13064 1.2048 0 0.8129 0.33387 1.2774 0.33387 0.45 0.95806 0.45 0.29033 0 0.5371-0.0726 0.0726-0.029 0.15968-0.0581-0.20323-0.50806-0.20323-1.2484 0-0.71129 0.20323-1.3936 0.20322-0.69678 0.53709-1.2484t0.75484-0.87097q0.42097-0.33387 0.85645-0.33387 0.42097 0 0.65323 0.3629 0.24677 0.36291 0.24677 1.0452 0 0.98709-0.47903 1.9306-0.40645 0.78387-1.1468 1.5097 0.30484 0.34839 0.8129 0.34839 0.52258 0 1.0306-0.31936 0.52258-0.33387 0.94354-0.87097 0.43549-0.53709 0.69678-1.1758 0.26129-0.65323 0.26129-1.2774 0-0.42097-0.11613-0.71129-0.10161-0.29033-0.26129-0.50807-0.15968-0.23226-0.31936-0.42097-0.15967-0.18871-0.2758-0.37741-0.10161-0.20323-0.10161-0.45 0-0.34839 0.21774-0.55162 0.21774-0.21774 0.58064-0.21774 0.52258 0 0.78387 0.45t0.26129 1.3645q0 1.1468-0.3629 2.2355-0.3629 1.0742-0.9871 1.9452-0.60967 0.85645-1.379 1.3645-0.76935 0.50806-1.5968 0.50806-0.87097 0-1.3355-0.59516-0.3629 0.24678-0.74032 0.39194-0.52258 0.20322-1.0742 0.20322zm2.729-1.6839q0.59516-0.60968 0.94355-1.3355 0.40645-0.85645 0.40645-1.6694 0-0.42097-0.10161-0.63871-0.10162-0.21774-0.30484-0.21774-0.27581 0-0.5371 0.40645t-0.43548 1.0452q-0.1742 0.6242-0.1742 1.2919 0 0.68226 0.20323 1.1177zm9.029 1.6984q-1.1323 0-1.771-0.75484-0.62419-0.75484-0.62419-2.0758 0-1.0161 0.33387-1.9161 0.33387-0.91451 0.91452-1.6113 0.59516-0.71129 1.3355-1.1177 0.75484-0.40645 1.5968-0.40645 1.1177 0 1.7564 0.75484 0.63871 0.74032 0.63871 2.0758 0 1.0161-0.33387 1.9306-0.33387 0.9-0.92904 1.6113-0.58064 0.69678-1.3355 1.1032t-1.5823 0.40645zm0.0871-0.52258q0.40645 0 0.79839-0.26129 0.40645-0.27581 0.74032-0.74033 0.34839-0.47903 0.60968-1.0887 0.2758-0.6242 0.42096-1.3355t0.14516-1.4371q0-0.97258-0.2758-1.4661-0.27581-0.50807-0.8129-0.50807-0.40646 0-0.81291 0.27581-0.39193 0.26129-0.74032 0.7258-0.34839 0.46452-0.60968 1.0887-0.26129 0.6242-0.42097 1.3355-0.14516 0.69677-0.14516 1.4226 0 0.98709 0.27581 1.4952 0.29032 0.49355 0.82742 0.49355zm6.0968 0.30484 1.0452-3.7161 0.50807-1.829q0.17419-0.60968 0.0581-0.95807-0.10161-0.3629-0.49355-0.3629-0.31935 0-0.60968 0.26129-0.29032 0.24677-0.55161 0.74032l-0.2758 0.5371h-0.52259l0.31936-0.6242q0.27581-0.50806 0.58064-0.88548 0.30484-0.39194 0.69678-0.60968 0.39193-0.21774 0.87097-0.21774 0.60967 0 0.94354 0.30484 0.34839 0.29032 0.42097 0.8129 0.0145 0.10162 0.0145 0.20323 0.3629-0.58065 0.84193-0.91452 0.58065-0.40645 1.2484-0.40645 0.55161 0 0.84194 0.27581 0.30484 0.2758 0.30484 0.8129 0 0.40645-0.1742 0.79839-0.15968 0.37742-0.43548 0.60967-0.26129 0.23226-0.58065 0.23226-0.24677 0-0.40645-0.14516-0.14516-0.15968-0.14516-0.39193 0-0.23226 0.11613-0.43549 0.11613-0.21774 0.21774-0.40645 0.11613-0.20323 0.11613-0.34839 0-0.24677-0.39194-0.24677-0.42096 0-0.9 0.34839-0.39193 0.2758-0.68225 0.71129-0.029 0.26129-0.11613 0.53709l-0.45 1.5968-1.0452 3.7161zm7.8387-3.7161 0.9-3.2081h-1.6113l0.14516-0.52258h1.6113l0.6242-2.221q0.37742-0.0145 0.7258-0.0726 0.36291-0.0581 0.69678-0.14516l-0.68226 2.4387h2.279l-0.15968 0.52258h-2.2645l-0.9 3.2081-0.49355 1.8145q-0.18871 0.65323-0.0436 0.97258 0.15968 0.31936 0.62419 0.31936 0.37742 0 0.68226-0.24678 0.31936-0.24677 0.59516-0.75483l0.27581-0.52258h0.52258l-0.43548 0.84193q-0.21775 0.39194-0.50807 0.74032-0.29032 0.33387-0.68226 0.55162-0.37742 0.20322-0.9 0.20322-0.92903 0-1.3355-0.65322-0.39194-0.65323-0.10161-1.6984zm10.277 0 0.2758-1.0161q0.29033-1.0597 0.0581-1.5968-0.23226-0.53709-0.9871-0.53709-0.65322 0-1.1903 0.42097-0.31936 0.24677-0.60968 0.6387l-0.58064 2.0903-1.0452 3.7161h-1.3645l1.0452-3.7161 1.4952-5.3855q0.14516-0.49354 0.0726-0.78387-0.0581-0.29032-0.39193-0.40645-0.33387-0.11613-1.0161-0.13064l0.14516-0.52258q1.0016-0.0145 1.8-0.15968 0.79839-0.15968 1.4371-0.43549l-1.4081 5.0806q0.30484-0.40645 0.65323-0.66774 0.71129-0.5371 1.6113-0.5371 1.1323 0 1.5823 0.79839 0.45 0.78387 0.0726 2.1194l-0.29033 1.0306-0.52258 1.829q-0.15967 0.59516-0.0581 0.95806 0.10161 0.36291 0.49355 0.36291 0.33387 0 0.62419-0.26129t0.5371-0.74033l0.29032-0.53709h0.52258l-0.33387 0.62419q-0.26129 0.50807-0.58065 0.9-0.30483 0.37742-0.69677 0.59516-0.37742 0.21774-0.85645 0.21774-0.60968 0-0.95807-0.30483-0.33387-0.30484-0.40645-0.82742-0.0726-0.5371 0.13065-1.2339zm10.379 3.9194q-0.97258 0-1.5242-0.74032-0.55161-0.75484-0.55161-2.0613 0-1.0161 0.31935-1.9306 0.31936-0.91451 0.87097-1.6113 0.56613-0.71129 1.2774-1.1177 0.72581-0.40645 1.5242-0.40645 0.68226 0 1.2919 0.30484 0.37742 0.20322 0.69677 0.50806 0.20323-0.11613 0.40646-0.23225 0.45-0.27581 0.8129-0.6242l0.29032 0.39194q-0.23226 0.21774-0.39193 0.42097-0.14517 0.1887-0.24678 0.43548-0.10161 0.23226-0.20322 0.58064l-0.59517 2.1629-0.52258 1.829q-0.17419 0.59516-0.0726 0.95806 0.11613 0.36291 0.50807 0.36291 0.31935 0 0.60967-0.26129 0.29033-0.26129 0.55162-0.74033l0.2758-0.53709h0.5371l-0.33387 0.62419q-0.26129 0.49355-0.58065 0.88549-0.30483 0.39193-0.69677 0.60967-0.37742 0.21774-0.87097 0.21774-0.59516 0-0.94355-0.30483-0.34838-0.30484-0.40645-0.84194-0.0145-0.0726-0.0145-0.14516-0.31936 0.5371-0.74033 0.84193-0.56612 0.42097-1.2774 0.42097zm2.5984-3.9194 0.63871-2.3081q-0.11613-0.46451-0.37742-0.75484-0.34838-0.3629-0.87097-0.3629-0.50806 0-1.0016 0.37742-0.47903 0.3629-0.85645 0.9871-0.37742 0.62419-0.59516 1.4226-0.21774 0.79838-0.21774 1.6694 0 1.0306 0.33387 1.5387 0.33387 0.49355 0.97258 0.49355 0.46451 0 0.87097-0.29032 0.29032-0.21774 0.53709-0.59516 0.029-0.27581 0.11613-0.59516zm9.029 0 1.4952-5.3855q0.14516-0.49354 0.0726-0.78387-0.0581-0.29032-0.39194-0.40645-0.33387-0.11613-1.0161-0.13064l0.14517-0.52258q1.0016-0.0145 1.8-0.15968 0.79838-0.15968 1.4371-0.43549l-2.1774 7.8242-0.50806 1.829q-0.17419 0.59516-0.0726 0.95806 0.11613 0.36291 0.50806 0.36291 0.31936 0 0.60968-0.26129t0.55161-0.74033l0.27581-0.53709h0.5371l-0.33387 0.62419q-0.2613 0.50807-0.58065 0.9-0.30484 0.37742-0.69677 0.59516-0.37742 0.21774-0.87097 0.21774-0.60968 0-0.95807-0.30483-0.33387-0.30484-0.40645-0.82742-0.0581-0.5371 0.13065-1.2339zm6.5178 1.8581q-0.20322 0.59516-0.14516 0.94355 0.0726 0.34839 0.46452 0.34839 0.33387 0 0.62419-0.26129t0.5371-0.74033l0.29032-0.53709h0.52258l-0.33387 0.62419q-0.26129 0.49355-0.58065 0.88549-0.30483 0.39193-0.69677 0.60967-0.37742 0.21774-0.85645 0.21774-0.60968 0-0.94355-0.29032-0.31935-0.30484-0.3629-0.82742-0.0435-0.52258 0.18871-1.2048l1.1322-3.4984q0.20323-0.59516 0.13065-0.92904-0.0581-0.34838-0.46452-0.34838-0.31935 0-0.60967 0.26129-0.27581 0.24677-0.55162 0.74032l-0.2758 0.5371h-0.52258l0.31935-0.6242q0.27581-0.50806 0.58065-0.88548 0.31935-0.39194 0.69677-0.60968 0.39194-0.21774 0.87097-0.21774 0.60968 0 0.92903 0.30484 0.33387 0.29032 0.37742 0.8129 0.0581 0.50807-0.18871 1.1903zm1.1613-7.3306q-0.40645 0-0.68226-0.26129-0.26129-0.27581-0.26129-0.66775 0-0.42096 0.31936-0.7258 0.31935-0.30484 0.75484-0.30484 0.39193 0 0.65322 0.27581 0.27581 0.26129 0.27581 0.65322 0 0.40645-0.31935 0.72581-0.31936 0.30484-0.74033 0.30484zm4.6452 9.3919q-0.79838 0-1.4226-0.23226-0.60967-0.23225-0.95806-0.62419-0.34839-0.40645-0.34839-0.9 0-0.40645 0.21774-0.63871 0.21775-0.24677 0.58065-0.24677 0.33387 0 0.50806 0.20322 0.18871 0.18871 0.20323 0.55162 0.0145 0.14516 0 0.33387t-0.0145 0.31935q0.0435 0.37742 0.33387 0.55161 0.30484 0.1742 0.88549 0.1742 0.8129 0 1.2774-0.34839 0.47903-0.3629 0.47903-0.97258 0-0.43548-0.23226-0.76935-0.21774-0.33388-0.56613-0.59517-0.33387-0.26129-0.7258-0.50806-0.39194-0.26129-0.74033-0.55161-0.34838-0.29033-0.56612-0.66775-0.21775-0.37741-0.21775-0.88548 0-0.91452 0.76936-1.4806 0.76935-0.58065 1.9597-0.58065 0.7258 0 1.2919 0.21774 0.56613 0.20323 0.88548 0.56613 0.33388 0.3629 0.33388 0.82742 0 0.3629-0.18871 0.58065-0.18871 0.21774-0.52258 0.21774-0.30484 0-0.50807-0.1742-0.18871-0.17419-0.20322-0.47903 0-0.15968 0.0145-0.31935 0.0145-0.1742 0-0.27581-0.0145-0.33387-0.29032-0.49355-0.27581-0.15968-0.79839-0.15968-0.68226 0-1.0597 0.30484-0.37742 0.29033-0.37742 0.79839 0 0.42097 0.21775 0.74032 0.23225 0.30484 0.56613 0.58065 0.34838 0.26129 0.74032 0.52258 0.39193 0.26129 0.7258 0.56613 0.34839 0.29032 0.56613 0.68226 0.23226 0.37742 0.23226 0.9 0 0.66774-0.40645 1.1758-0.39194 0.50807-1.0742 0.79839t-1.5678 0.29032zm6.1984-3.9194 0.9-3.2081h-1.6113l0.14516-0.52258h1.6113l0.62419-2.221q0.37742-0.0145 0.72581-0.0726 0.3629-0.0581 0.69677-0.14516l-0.68225 2.4387h2.279l-0.15968 0.52258h-2.2645l-0.9 3.2081-0.49354 1.8145q-0.18871 0.65323-0.0435 0.97258 0.15968 0.31936 0.62419 0.31936 0.37742 0 0.68226-0.24678 0.31935-0.24677 0.59516-0.75483l0.27581-0.52258h0.52258l-0.43549 0.84193q-0.21774 0.39194-0.50806 0.74032-0.29032 0.33387-0.68226 0.55162-0.37742 0.20322-0.9 0.20322-0.92903 0-1.3355-0.65322-0.39194-0.65323-0.10162-1.6984zm7.4032 3.9194q-1.1323 0-1.7564-0.71129-0.60968-0.7258-0.60968-2.0323 0-1.0161 0.34839-1.9306 0.3629-0.92903 0.95806-1.6403 0.60968-0.72581 1.379-1.1323 0.78387-0.42097 1.6548-0.42097 0.78387 0 1.1903 0.34839 0.40645 0.34838 0.40645 1.0016 0 0.78387-0.58065 1.4952-0.58064 0.69678-1.6403 1.2339-0.9871 0.50807-2.3081 0.82742 0 0.0581 0 0.11613 0 1.0161 0.39193 1.5677 0.39194 0.5371 1.1032 0.5371 0.59516 0 1.0742-0.3629 0.49355-0.37742 0.88549-1.1178h0.50806q-0.49355 1.0887-1.2629 1.6548-0.76936 0.56613-1.7419 0.56613zm-0.92903-3.4113q0.95806-0.29032 1.6694-0.7258 0.76936-0.46452 1.1758-1.0452 0.40645-0.59516 0.40645-1.2919 0-0.43549-0.17419-0.65323-0.15968-0.23226-0.49355-0.23226-0.45 0-0.91452 0.40646-0.46451 0.39193-0.85645 1.0597-0.37742 0.65323-0.60967 1.4516-0.14517 0.52258-0.20323 1.0306zm11.976-0.50806 0.27581-1.0016q0.30484-1.0742 0.0581-1.6113-0.23226-0.53709-0.9871-0.53709-0.66774 0-1.2339 0.43548-0.31935 0.24678-0.62419 0.65323-0.029 0.21774-0.10161 0.46451l-0.45 1.5968-1.0452 3.7161h-1.3645l1.0452-3.7161 0.50807-1.829q0.17419-0.60968 0.0581-0.95807-0.10161-0.3629-0.49355-0.3629-0.31935 0-0.60968 0.26129-0.29032 0.24677-0.55161 0.74032l-0.27581 0.5371h-0.52258l0.31936-0.6242q0.27581-0.50806 0.58064-0.88548 0.30484-0.39194 0.69678-0.60968 0.39193-0.21774 0.87097-0.21774 0.60967 0 0.94354 0.30484 0.34839 0.29032 0.42097 0.8129 0.0145 0.14516 0.0145 0.29032 0.37742-0.53709 0.8129-0.85645 0.72581-0.55161 1.6403-0.55161 1.1468 0 1.5968 0.79839 0.46451 0.78387 0.0726 2.1484l-0.27581 1.0016-0.52258 1.829q-0.17419 0.59516-0.0726 0.95806 0.11613 0.36291 0.50807 0.36291 0.31935 0 0.60967-0.26129 0.29033-0.26129 0.55162-0.74033l0.2758-0.53709h0.5371l-0.33387 0.62419q-0.26129 0.50807-0.58065 0.9-0.30484 0.37742-0.69677 0.59516-0.37742 0.21774-0.87097 0.21774-0.59516 0-0.94355-0.30483-0.34838-0.30484-0.42097-0.82742-0.0581-0.5371 0.13065-1.2339zm5.0226 3.9194q-0.46452 0-0.75484-0.2758-0.29033-0.29033-0.29033-0.72581 0-0.47903 0.33388-0.8129 0.34838-0.33387 0.85645-0.33387 0.46451 0 0.75484 0.29032 0.29032 0.2758 0.29032 0.71129 0 0.47903-0.34839 0.8129t-0.84193 0.33387z"
  />
</svg>
