<?xml version="1.0" encoding="UTF-8"?>
<svg version="1.1" viewBox="0 0 500 500" xmlns="http://www.w3.org/2000/svg">
  <rect id="background" width="500" height="500" fill="#001d3d" />
  <path
    id="emblem"
    fill="#ffd60a"
    d="m250 50a200 200 0 0 0-200 200 200 200 0 0 0 200 200 200 200 0 0 0 200-200 200 200 0 0 0-200-200zm0 40v10a150 150 0 0 0-150 150h-10a160 160 0 0 1 160-160zm0 20v10a130 130 0 0 0-130 130h-10a140 140 0 0 1 140-140zm0 20v10c-60.751 0-110 49.249-110 110h-10c0-66.274 53.726-120 120-120zm113.14 6.8594-48.484 99.836c0.8792 4.2964 1.3436 8.7483 1.3436 13.305 0 36.451-29.549 66-66 66-4.556 0-9.008-0.4646-13.304-1.3438l-99.836 48.484 48.484-99.836c-0.8792-4.2964-1.344-8.7483-1.344-13.305 0-36.451 29.549-66 66-66 4.5564 0 9.0084 0.4646 13.305 1.3438zm-113.14 93.141c-11.046 0-20 8.9543-20 20s8.9544 20 20 20c11.046 0 20-8.9543 20-20s-8.954-20-20-20zm110 20h10c0 66.274-53.726 120-120 120v-10c60.752 0 110-49.249 110-110zm20 0h10a140 140 0 0 1-140 140v-10a130 130 0 0 0 130-130zm20 0h10a160 160 0 0 1-160 160v-10a150 150 0 0 0 150-150z"
  />
</svg>
