<svg version="1.1" viewBox="0 0 100 100" xmlns="http://www.w3.org/2000/svg">
  <path
    id="emblem"
    fill="currentColor"
    d="m50 0a50 50 0 0 0-50 50 50 50 0 0 0 50 50 50 50 0 0 0 50-50 50 50 0 0 0-50-50zm0 10v2.5a37.5 37.5 0 0 0-37.5 37.5h-2.5a40 40 0 0 1 40-40zm0 5v2.5a32.5 32.5 0 0 0-32.5 32.5h-2.5a35 35 0 0 1 35-35zm0 5v2.5c-15.188 0-27.5 12.312-27.5 27.5h-2.5c0-16.569 13.431-30 30-30zm28.285 1.7148-12.121 24.959c0.21979 1.0741 0.33594 2.1871 0.33594 3.3262 0 9.1127-7.3873 16.5-16.5 16.5-1.1391 0-2.2521-0.11615-3.3262-0.33594l-24.959 12.121 12.121-24.959c-0.21979-1.0741-0.33594-2.1871-0.33594-3.3262 0-9.1127 7.3873-16.5 16.5-16.5 1.1391 0 2.2521 0.11615 3.3262 0.33594zm-28.285 23.285c-2.7614 0-5 2.2386-5 5s2.2386 5 5 5 5-2.2386 5-5-2.2386-5-5-5zm27.5 5h2.5c0 16.569-13.431 30-30 30v-2.5c15.188 0 27.5-12.312 27.5-27.5zm5 0h2.5a35 35 0 0 1-35 35v-2.5a32.5 32.5 0 0 0 32.5-32.5zm5 0h2.5a40 40 0 0 1-40 40v-2.5a37.5 37.5 0 0 0 37.5-37.5z"
  />
</svg>
