<svg viewBox="0 0 100 100" xmlns="http://www.w3.org/2000/svg">
  <g id="pictorial-mark">
    <circle
      id="pictorial-mark-background"
      fill="transparent"
      cx="50"
      cy="50"
      r="45"
    />
    <path
      id="pictorial-mark-shape"
      fill="currentColor"
      d="m50 0a50 50 0 0 0-50 50 50 50 0 0 0 50 50 50 50 0 0 0 50-50 50 50 0 0 0-50-50zm0 10v2.5a37.5 37.5 0 0 0-37.5 37.5h-2.5a40 40 0 0 1 40-40zm0 5v2.5a32.5 32.5 0 0 0-32.5 32.5h-2.5a35 35 0 0 1 35-35zm0 5v2.5c-15.188 0-27.5 12.312-27.5 27.5h-2.5c0-16.569 13.431-30 30-30zm0 13.5a16.5 16.5 0 0 1 16.5 16.5 16.5 16.5 0 0 1-16.5 16.5 16.5 16.5 0 0 1-16.5-16.5 16.5 16.5 0 0 1 16.5-16.5zm0 11.5a5 5 0 0 0-5 5 5 5 0 0 0 5 5 5 5 0 0 0 5-5 5 5 0 0 0-5-5zm27.5 5h2.5c0 16.569-13.431 30-30 30v-2.5c15.188 0 27.5-12.312 27.5-27.5zm5 0h2.5a35 35 0 0 1-35 35v-2.5a32.5 32.5 0 0 0 32.5-32.5zm5 0h2.5a40 40 0 0 1-40 40v-2.5a37.5 37.5 0 0 0 37.5-37.5z"
    />
  </g>
</svg>
