<svg
  width="92.604mm"
  viewBox="0 0 350 19.169"
  xmlns="http://www.w3.org/2000/svg"
>
  <path
    id="slogan"
    fill="currentColor"
    d="m3.0773 14.682q-0.55613 0-1.1494 0.0186-0.57468 0-1.0752 0.0186-0.50053 0-0.85276 0.0186l0.18538-0.66737 0.72299-0.0742q0.63029-0.0555 0.96398-0.18539 0.35223-0.1483 0.53761-0.44492 0.20392-0.31514 0.37076-0.88982l2.3914-8.6017q0.16684-0.55615 0.14831-0.85276-0.0185-0.31515-0.29661-0.46344-0.25954-0.14832-0.87129-0.20394l-0.68591-0.0742 0.18537-0.66736q0.33369 0 0.81568 0.0186 0.50053 0.0186 1.0937 0.0186h1.1679l0.12976 0.0185q0.44492-0.0185 0.81567-0.0185 0.38931 0 0.68592-0.0186 0.31515-0.0186 0.50053-0.0186 2.7807 0 4.3194 1.4274 1.5572 1.4274 1.5572 3.9672 0 1.7055-0.66737 3.1144-0.64884 1.4089-1.8538 2.447-1.1864 1.0382-2.8363 1.6128-1.6499 0.55615-3.6149 0.55615-0.35223 0-0.77861-0.0186-0.40784-0.0186-0.88983-0.0186-0.46345-0.0186-1.0011-0.0186zm2.9105-0.59322q1.483 0 2.7066-0.51906 1.2421-0.51907 2.1319-1.4645 0.90837-0.96398 1.4089-2.2431 0.50053-1.2977 0.50053-2.8363 0-2.2987-1.0937-3.5222-1.0938-1.2235-3.1515-1.2235h-0.98252l-2.8549 10.233q-0.25954 0.94543 0 1.2606 0.27807 0.31515 1.3347 0.31515zm13.959-1.724q-0.25954 0.76007-0.18538 1.205 0.09268 0.44491 0.59322 0.44491 0.42637 0 0.79714-0.33368 0.37076-0.3337 0.68592-0.94545l0.37075-0.68591h0.66737l-0.42637 0.79714q-0.33369 0.6303-0.74153 1.1308-0.3893 0.50053-0.88983 0.7786-0.48199 0.27808-1.0938 0.27808-0.7786 0-1.205-0.37077-0.40784-0.38929-0.46345-1.0567-0.05559-0.66737 0.241-1.5387l1.446-4.4677q0.25952-0.76006 0.16684-1.1864-0.07419-0.44492-0.59322-0.44492-0.40784 0-0.7786 0.3337-0.35223 0.31514-0.70444 0.94544l-0.35223 0.68591h-0.66737l0.40784-0.79715q0.35223-0.64883 0.74153-1.1308 0.40784-0.50052 0.88983-0.7786 0.50054-0.27806 1.1123-0.27806 0.7786 0 1.1864 0.38931 0.42638 0.37075 0.48199 1.0381 0.07419 0.64884-0.24099 1.5201zm1.483-9.3618q-0.51906 0-0.87129-0.33368-0.33368-0.35223-0.33368-0.85275 0-0.53761 0.40784-0.92692 0.40784-0.3893 0.96398-0.3893 0.50053 0 0.83422 0.35224 0.35222 0.33367 0.35222 0.8342 0 0.51908-0.40784 0.92691-0.40784 0.3893-0.94545 0.3893zm5.9322 11.994q-1.0196 0-1.8167-0.29661-0.7786-0.29662-1.2235-0.79714-0.44492-0.51907-0.44492-1.1494 0-0.51907 0.27807-0.81568 0.27807-0.31515 0.74153-0.31515 0.42637 0 0.64883 0.25954 0.241 0.24098 0.25954 0.70444 0.0185 0.18538 0 0.42638t-0.0185 0.40785q0.05559 0.48198 0.42637 0.70443 0.3893 0.22247 1.1308 0.22247 1.0381 0 1.6314-0.44492 0.61176-0.46346 0.61176-1.2421 0-0.55615-0.29662-0.98252-0.27806-0.42638-0.72298-0.76007-0.42638-0.33368-0.92691-0.64882-0.50053-0.33369-0.94545-0.70445-0.44491-0.37076-0.72298-0.85275-0.27807-0.48199-0.27807-1.1308 0-1.1679 0.98252-1.8909 0.98252-0.74151 2.5026-0.74151 0.92691 0 1.6499 0.27806 0.72298 0.25954 1.1308 0.72299 0.42638 0.46346 0.42638 1.0567 0 0.46345-0.241 0.74152-0.24099 0.27808-0.66737 0.27808-0.3893 0-0.64882-0.22246-0.241-0.22246-0.25954-0.61177 0-0.20391 0.0185-0.40783 0.0185-0.22246 0-0.35223-0.0185-0.42638-0.37076-0.6303-0.35223-0.20391-1.0196-0.20391-0.87129 0-1.3533 0.38931-0.48199 0.37075-0.48199 1.0196 0 0.53761 0.27807 0.94545 0.29661 0.3893 0.72299 0.74152 0.44491 0.33369 0.94544 0.66738 0.50053 0.33368 0.9269 0.72298 0.44492 0.37076 0.72299 0.87129 0.29661 0.48199 0.29661 1.1494 0 0.85276-0.51906 1.5016-0.50054 0.64884-1.3718 1.0196-0.87129 0.37075-2.0021 0.37075zm9.714 0q-1.3904 0-2.169-0.9269-0.7786-0.94545-0.7786-2.6139 0-1.2976 0.44492-2.4656 0.44491-1.1679 1.205-2.0763 0.76006-0.90837 1.7426-1.4274 0.98252-0.5376 2.0577-0.5376 1.0196 0 1.6128 0.48199 0.61175 0.46344 0.61175 1.2977 0 0.51907-0.24099 1.0011-0.241 0.46344-0.6303 0.76007-0.3893 0.27806-0.85275 0.27806-0.35222 0-0.57468-0.18539-0.20392-0.18536-0.20392-0.50052t0.16684-0.57468q0.18538-0.25953 0.42637-0.482 0.241-0.22245 0.40785-0.4449 0.18538-0.24101 0.18538-0.50054 0-0.46344-0.68592-0.46344-0.74152 0-1.446 0.48199-0.68591 0.46344-1.2421 1.2791-0.55614 0.79715-0.8713 1.8167-0.31514 1.001-0.31514 2.0948 0 1.3348 0.46346 2.0577 0.46345 0.70446 1.3533 0.70446 0.72299 0 1.3162-0.46345 0.61176-0.46346 1.0938-1.4274h0.64884q-0.6303 1.3904-1.5757 2.1134-0.94543 0.72298-2.1504 0.72298zm9.3618 0.0187q-1.446 0-2.2616-0.96398-0.79715-0.96399-0.79715-2.651 0-1.2977 0.42638-2.447 0.42637-1.1679 1.1679-2.0577 0.76006-0.90837 1.7055-1.4274 0.96398-0.51907 2.0392-0.51907 1.4274 0 2.2431 0.96398 0.81567 0.94544 0.81567 2.651 0 1.2977-0.42637 2.4656-0.42639 1.1494-1.1864 2.0577-0.74152 0.88983-1.7055 1.4089-0.96398 0.51908-2.0207 0.51908zm0.11124-0.66738q0.51906 0 1.0196-0.33368 0.51907-0.35223 0.94545-0.94546 0.44492-0.61175 0.7786-1.3904 0.35223-0.79715 0.53761-1.7055 0.18538-0.90836 0.18538-1.8353 0-1.2421-0.35222-1.8724-0.35223-0.64883-1.0381-0.64883-0.51906 0-1.0381 0.35221-0.50053 0.33369-0.94543 0.92691-0.44492 0.59323-0.77861 1.3904-0.33368 0.79714-0.5376 1.7055-0.18538 0.88982-0.18538 1.8167 0 1.2606 0.35223 1.9094 0.37076 0.63031 1.0567 0.63031zm11.382 0.64883q-1.0938 0-1.724-0.72299-0.61176-0.74152-0.61176-2.0948 0-0.90837 0.31515-1.8724 0.31515-0.98252 0.9269-2.0392 0.50053-0.8713 1.1679-1.7982-0.29661-0.0186-0.55613-0.0926-0.40785-0.11118-0.76007-0.24099-0.33369-0.14831-0.64884-0.25953-0.2966-0.11118-0.59321-0.11118-0.40785 0-0.40785 0.33369 0 0.14829 0.0742 0.31514 0.0927 0.14829 0.18538 0.33369 0.11122 0.16683 0.18539 0.37075 0.0926 0.18539 0.0926 0.40785 0 0.44492-0.27808 0.74152-0.25954 0.27807-0.70444 0.27807-0.482 0-0.76006-0.31514-0.25955-0.3337-0.25955-0.88983 0-0.68591 0.38931-1.2235 0.3893-0.53763 1.0196-0.85277t1.3348-0.31514q0.55615 0 0.96398 0.12977 0.40784 0.12976 0.7786 0.31514 0.241 0.14831 0.50054 0.25954 0.25953-0.31514 0.50053-0.482 0.33368-0.22245 0.6303-0.22245 0.31514 0 0.48198 0.1483 0.18538 0.12977 0.18538 0.3893 0 0.44492-0.53761 0.723-0.42637 0.22246-1.0937 0.25952-0.6303 1.5016-0.90838 2.688-0.31514 1.3162-0.31514 2.3729 0 1.0011 0.3893 1.5387 0.38929 0.51908 1.1123 0.51908 0.74152 0 1.4089-0.40785 0.66737-0.40783 1.205-1.0752 0.53761-0.66737 0.83421-1.4645 0.31515-0.79712 0.31515-1.5572 0-0.53761-0.14829-0.90837-0.14832-0.37076-0.35223-0.64883-0.18539-0.27807-0.40784-0.51907-0.20392-0.25953-0.35223-0.50053-0.12977-0.25954-0.12977-0.57468 0-0.42638 0.27808-0.70445 0.27807-0.27807 0.76006-0.27807 0.6303 0 0.96398 0.55614 0.35223 0.55614 0.35223 1.7797 0 1.483-0.482 2.8549-0.46345 1.3718-1.2791 2.4841-0.81569 1.0937-1.8538 1.7426-1.0381 0.63028-2.1875 0.63028zm11.104 0q-1.446 0-2.2431-0.90837-0.7786-0.92689-0.7786-2.5953 0-1.2977 0.44492-2.4656 0.46346-1.1864 1.2235-2.0948 0.7786-0.92691 1.7611-1.446 1.0011-0.5376 2.1134-0.5376 1.0011 0 1.5201 0.44492 0.51907 0.44492 0.51907 1.2791 0 1.001-0.74152 1.9094-0.74153 0.88984-2.0948 1.5758-1.2606 0.64883-2.9476 1.0567 0 0.0742 0 0.14831 0 1.2977 0.50053 2.0021 0.50053 0.68592 1.4089 0.68592 0.76008 0 1.3718-0.46346 0.6303-0.48199 1.1308-1.4274h0.64884q-0.63031 1.3904-1.6128 2.1133t-2.2246 0.72299zm-1.1864-4.3564q1.2235-0.37077 2.1319-0.92692 0.98252-0.59321 1.5016-1.3348 0.51908-0.76006 0.51908-1.6499 0-0.55615-0.22246-0.83421-0.20394-0.29661-0.63031-0.29661-0.57467 0-1.1679 0.51907-0.59324 0.50052-1.0938 1.3533-0.48199 0.83421-0.77861 1.8538-0.18538 0.66737-0.25953 1.3162zm8.3051 4.0969 1.3347-4.7458 0.64884-2.3358q0.22245-0.7786 0.0742-1.2235-0.12976-0.46346-0.6303-0.46346-0.40783 0-0.77859 0.33369-0.37076 0.31514-0.70444 0.94545l-0.35224 0.6859h-0.66737l0.40783-0.79713q0.35223-0.64883 0.74152-1.1308 0.38931-0.50052 0.88984-0.7786 0.50053-0.27807 1.1123-0.27807 0.7786 0 1.205 0.3893 0.44492 0.37076 0.53761 1.0381 0.0186 0.12975 0.0186 0.25953 0.46345-0.74153 1.0752-1.1679 0.74152-0.51907 1.5943-0.51907 0.70445 0 1.0752 0.35223 0.38931 0.35221 0.38931 1.0381 0 0.51907-0.22245 1.0196-0.20392 0.48198-0.55615 0.77861-0.33369 0.2966-0.74154 0.2966-0.31514 0-0.51906-0.18537-0.18538-0.20394-0.18538-0.50054 0-0.29661 0.14831-0.55615 0.1483-0.27807 0.27807-0.51906 0.1483-0.25954 0.1483-0.44493 0-0.31514-0.50053-0.31514-0.5376 0-1.1494 0.44492-0.50053 0.35222-0.87129 0.90837-0.037 0.33367-0.14831 0.6859l-0.57469 2.0392-1.3347 4.7458zm17.185 0.25953q-1.242 0-1.9465-0.94543-0.70446-0.96399-0.70446-2.6324 0-1.2977 0.40784-2.4656 0.40784-1.1679 1.1123-2.0577 0.72301-0.90837 1.6314-1.4274 0.9269-0.51907 1.9465-0.51907 0.8713 0 1.6499 0.3893 0.48198 0.25953 0.88983 0.64883 0.25953-0.14829 0.51906-0.29661 0.57468-0.35222 1.0382-0.79714l0.37075 0.50054q-0.29661 0.27807-0.50052 0.5376-0.18539 0.24098-0.31515 0.55615-0.12978 0.2966-0.25953 0.74152l-0.76007 2.7622-0.66737 2.3358q-0.22246 0.76007-0.0926 1.2235 0.14832 0.46347 0.64883 0.46347 0.40785 0 0.77861-0.33369t0.70444-0.94544l0.35223-0.68592h0.68591l-0.42637 0.79713q-0.33369 0.63032-0.74154 1.1308-0.3893 0.50053-0.88982 0.7786-0.482 0.27808-1.1123 0.27808-0.76006 0-1.205-0.38931-0.44491-0.38929-0.51907-1.0752-0.0186-0.0926-0.0186-0.18538-0.40783 0.68591-0.94544 1.0752-0.72299 0.5376-1.6314 0.5376zm3.3183-5.0053 0.81568-2.9476q-0.14831-0.59321-0.48199-0.96397-0.44493-0.46344-1.1123-0.46344-0.64883 0-1.2791 0.48199-0.61176 0.46344-1.0938 1.2606-0.482 0.79713-0.76007 1.8167-0.27808 1.0196-0.27808 2.1319 0 1.3162 0.42637 1.965 0.42639 0.63032 1.2421 0.63032 0.59321 0 1.1123-0.37077 0.37076-0.27807 0.68592-0.76006 0.037-0.35223 0.1483-0.76007zm13.273 5.0053q-1.2421 0-1.965-0.96398-0.72299-0.96399-0.72299-2.6139 0-1.242 0.38931-2.4099 0.40783-1.1679 1.0937-2.0763 0.6859-0.92691 1.5572-1.446 0.87129-0.5376 1.7982-0.5376 0.83423 0 1.4645 0.40784 0.48199 0.33368 0.74153 0.83421l0.85275-3.0773q0.1854-0.63031 0.0926-1.0011-0.0742-0.37077-0.50052-0.51908-0.42638-0.14829-1.3162-0.16684l0.20393-0.66736q1.2791-0.0185 2.2987-0.20393 1.0196-0.20391 1.8353-0.55614l-2.7807 9.992-0.64884 2.3358q-0.22245 0.76007-0.0926 1.2235 0.12977 0.46347 0.64883 0.46347 0.40785 0 0.7786-0.33369 0.37077-0.33369 0.70446-0.94544l0.35223-0.68592h0.66737l-0.40783 0.79713q-0.35224 0.64885-0.76008 1.1494-0.3893 0.482-0.87129 0.76007-0.48199 0.27808-1.1123 0.27808-0.77859 0-1.2235-0.38931-0.4264-0.38929-0.50054-1.0752-0.0186-0.0926-0.0186-0.20392-0.42637 0.68592-0.96398 1.0938-0.70446 0.5376-1.5943 0.5376zm3.2998-5.0053 0.87129-3.1144q-0.24099-0.42639-0.61176-0.66738-0.44492-0.27807-1.0011-0.27807-0.6859 0-1.3162 0.42638-0.61175 0.42637-1.0938 1.1864-0.48199 0.74152-0.76007 1.7055-0.27807 0.964-0.27807 2.0392 0 1.2606 0.42639 1.9465 0.42637 0.66738 1.2606 0.66738 0.57467 0 1.0937-0.38931 0.38931-0.27807 0.68592-0.74152 0.037-0.35223 0.14831-0.76007zm8.3422 5.0053q-1.2421 0-1.9465-0.94543-0.70447-0.96399-0.70447-2.6324 0-1.2977 0.40785-2.4656 0.40785-1.1679 1.1123-2.0577 0.72299-0.90837 1.6314-1.4274 0.92691-0.51907 1.9465-0.51907 0.87131 0 1.6499 0.3893 0.48199 0.25953 0.88983 0.64883 0.25954-0.14829 0.51908-0.29661 0.57467-0.35222 1.0381-0.79714l0.37075 0.50054q-0.2966 0.27807-0.50051 0.5376-0.18539 0.24098-0.31514 0.55615-0.12978 0.2966-0.25955 0.74152l-0.76006 2.7622-0.66738 2.3358q-0.22246 0.76007-0.0926 1.2235 0.14831 0.46347 0.64883 0.46347 0.40784 0 0.7786-0.33369 0.37077-0.33369 0.70446-0.94544l0.35221-0.68592h0.68592l-0.42637 0.79713q-0.33369 0.63032-0.74154 1.1308-0.38929 0.50053-0.88982 0.7786-0.48199 0.27808-1.1123 0.27808-0.76007 0-1.205-0.38931-0.44491-0.38929-0.51906-1.0752-0.0186-0.0926-0.0186-0.18538-0.40786 0.68591-0.94546 1.0752-0.72298 0.5376-1.6314 0.5376zm3.3183-5.0053 0.81566-2.9476q-0.1483-0.59321-0.48199-0.96397-0.4449-0.46344-1.1123-0.46344-0.64886 0-1.2792 0.48199-0.61175 0.46344-1.0937 1.2606-0.48199 0.79713-0.76007 1.8167-0.27807 1.0196-0.27807 2.1319 0 1.3162 0.42638 1.965 0.42637 0.63032 1.242 0.63032 0.59324 0 1.1123-0.37077 0.37076-0.27807 0.68591-0.76006 0.037-0.35223 0.14831-0.76007zm8.268 2.3729q-0.25953 0.76006-0.18538 1.205 0.0926 0.44492 0.59322 0.44492 0.42638 0 0.79713-0.33369 0.37076-0.33369 0.68593-0.94544l0.37075-0.68592h0.66737l-0.42637 0.79713q-0.33368 0.63032-0.74153 1.1308-0.3893 0.50053-0.88982 0.7786-0.482 0.27808-1.0938 0.27808-0.77861 0-1.205-0.37078-0.40784-0.3893-0.46346-1.0567-0.0555-0.66735 0.24101-1.5386l1.446-4.4677q0.25952-0.76006 0.16683-1.1864-0.0742-0.44492-0.59321-0.44492-0.40785 0-0.77861 0.33369-0.35223 0.31514-0.70445 0.94545l-0.35223 0.6859h-0.66735l0.40783-0.79713q0.35222-0.64883 0.74152-1.1308 0.40783-0.50052 0.88983-0.7786 0.50053-0.27807 1.1123-0.27807 0.7786 0 1.1864 0.3893 0.42638 0.37076 0.48199 1.0381 0.0742 0.64883-0.24098 1.5201zm1.483-9.3618q-0.51905 0-0.87129-0.33368-0.33368-0.35223-0.33368-0.85277 0-0.53761 0.40785-0.9269 0.40783-0.38931 0.96398-0.38931 0.50052 0 0.83421 0.35223 0.35222 0.33369 0.35222 0.8342 0 0.51909-0.40783 0.92692-0.40785 0.38931-0.94546 0.38931zm3.9857 6.9889 1.9094-6.8776q0.18538-0.63031 0.0926-1.0011-0.0742-0.37077-0.50052-0.51908-0.42637-0.14829-1.2976-0.16684l0.18537-0.66736q1.2791-0.0185 2.2987-0.20393 1.0196-0.20391 1.8353-0.55614l-2.7807 9.992-0.64883 2.3358q-0.22246 0.76007-0.0926 1.2235 0.14831 0.46347 0.64883 0.46347 0.40784 0 0.7786-0.33369 0.37077-0.33369 0.70444-0.94544l0.35223-0.68592h0.68592l-0.42637 0.79713q-0.3337 0.64885-0.74154 1.1494-0.38929 0.482-0.88982 0.76007-0.48199 0.27808-1.1123 0.27808-0.77861 0-1.2235-0.38931-0.42638-0.38929-0.51907-1.0567-0.0742-0.68592 0.16684-1.5758zm4.1155 9.1764q-0.61176 0-0.98252-0.27808-0.38931-0.27807-0.38931-0.76006 0-0.42637 0.31515-0.70444 0.29662-0.27808 0.76007-0.27808 0.27808 0 0.5376 0.0742 0.25953 0.0926 0.50054 0.20392 0.24099 0.11119 0.48198 0.18538 0.25954 0.0742 0.51907 0.0742 0.51907 0 1.2606-0.50055 0.5747-0.38928 1.1864-1.001 0.12977-1.2977 0.14831-2.5768 0.0185-1.5572-0.0926-2.929-0.11119-1.3718-0.31516-2.41-0.20392-1.0381-0.50053-1.6314-0.27806-0.59322-0.63029-0.59322-0.24099 0-0.51906 0.27808-0.25954 0.27806-0.59322 0.92689l-0.35223 0.68592h-0.68592l0.55615-1.0752q0.51907-0.98254 1.0567-1.446 0.5376-0.46345 1.1308-0.46345 0.90837 0 1.483 1.0938 0.59321 1.0937 0.85275 3.2998 0.241 2.0207 0.16684 4.9497 0.11119-0.14829 0.22246-0.2966 0.7786-1.0011 1.4089-2.0577 0.63029-1.0567 1.001-1.9836 0.38931-0.9269 0.38931-1.5943 0-0.482-0.20391-0.79715-0.1854-0.33368-0.46347-0.57468-0.25953-0.25953-0.46344-0.51907-0.18539-0.25952-0.18539-0.59323 0-0.38929 0.27807-0.64883 0.27808-0.27806 0.76006-0.27806 0.63031 0 0.98255 0.482 0.3522 0.48198 0.3522 1.3718 0 1.0752-0.48198 2.41-0.46346 1.3162-1.2791 2.7066-0.81568 1.3904-1.8538 2.688-1.0381 1.2791-2.1504 2.3172-1.1123 1.0381-2.206 1.6314-1.0752 0.61174-2.0021 0.61174zm19.632-4.1711q-1.242 0-1.9465-0.94543-0.70444-0.96399-0.70444-2.6324 0-1.2977 0.40782-2.4656 0.40785-1.1679 1.1123-2.0577 0.72298-0.90837 1.6314-1.4274 0.9269-0.51907 1.9465-0.51907 0.8713 0 1.6499 0.3893 0.48198 0.25953 0.88984 0.64883 0.25952-0.14829 0.51907-0.29661 0.57468-0.35222 1.0381-0.79714l0.37076 0.50054q-0.29662 0.27807-0.50054 0.5376-0.18539 0.24098-0.31514 0.55615-0.12977 0.2966-0.25954 0.74152l-0.76007 2.7622-0.66736 2.3358q-0.22246 0.76007-0.0926 1.2235 0.14832 0.46347 0.64884 0.46347 0.40785 0 0.77861-0.33369 0.37075-0.33369 0.70444-0.94544l0.35222-0.68592h0.68592l-0.42638 0.79713q-0.33368 0.63032-0.74152 1.1308-0.38931 0.50053-0.88983 0.7786-0.482 0.27808-1.1123 0.27808-0.76005 0-1.205-0.38931-0.44492-0.38929-0.51907-1.0752-0.0186-0.0926-0.0186-0.18538-0.40784 0.68591-0.94544 1.0752-0.72299 0.5376-1.6314 0.5376zm3.3183-5.0053 0.81568-2.9476q-0.14831-0.59321-0.48199-0.96397-0.44492-0.46344-1.1123-0.46344-0.64884 0-1.2791 0.48199-0.61177 0.46344-1.0938 1.2606-0.48199 0.79713-0.76006 1.8167-0.27808 1.0196-0.27808 2.1319 0 1.3162 0.42638 1.965 0.42639 0.63032 1.2421 0.63032 0.59322 0 1.1123-0.37077 0.37076-0.27807 0.68592-0.76006 0.037-0.35223 0.1483-0.76007zm6.5625 0 1.9094-6.8776q0.18537-0.63031 0.0926-1.0011-0.0742-0.37077-0.50052-0.51908-0.42637-0.14829-1.2977-0.16684l0.18538-0.66736q1.2791-0.0185 2.2987-0.20393 1.0196-0.20391 1.8353-0.55614l-2.7807 9.992-0.64884 2.3358q-0.22246 0.76007-0.0926 1.2235 0.1483 0.46347 0.64883 0.46347 0.40783 0 0.7786-0.33369t0.70445-0.94544l0.35222-0.68592h0.68591l-0.42638 0.79713q-0.33369 0.64885-0.74152 1.1494-0.38931 0.482-0.88983 0.76007-0.482 0.27808-1.1123 0.27808-0.77861 0-1.2235-0.38931-0.42637-0.38929-0.51906-1.0567-0.0742-0.68592 0.16683-1.5758zm8.8056 5.0053q-1.1679 0-1.8538-0.57469-0.68591-0.57468-0.83422-1.6314-0.14829-1.0752 0.25954-2.5768l0.0742-0.22247 1.9094-6.8776q0.18538-0.63031 0.0926-1.0011-0.0742-0.37077-0.50054-0.51908-0.42638-0.14829-1.2977-0.16684l0.18537-0.66736q1.2791-0.0185 2.2987-0.20393 1.0196-0.20391 1.8353-0.55614l-1.7055 6.1176q0.27808-0.37077 0.63029-0.6303 0.72299-0.5376 1.6314-0.5376 1.2421 0 1.9465 0.96398 0.72299 0.96399 0.72299 2.651 0 1.3162-0.42639 2.4841-0.42637 1.1679-1.1679 2.0577-0.74154 0.88982-1.7241 1.3904-0.96397 0.50053-2.0763 0.50053zm0.20393-7.9158-0.81569 2.9105-0.16684 0.6303q-0.48199 1.8167-0.27808 2.7622 0.22247 0.94544 1.1494 0.94544 0.68593 0 1.3162-0.46345 0.63029-0.46346 1.1308-1.242 0.50054-0.79715 0.7786-1.8168 0.27808-1.0196 0.27808-2.1319 0-1.3162-0.42637-2.0207-0.40785-0.70443-1.205-0.70443-0.59322 0-1.1308 0.40783-0.35223 0.27807-0.63029 0.72298zm10.826 2.9105-0.37077 1.3718q-0.37075 1.2791-0.0742 1.965 0.29662 0.66738 1.1864 0.66738 0.79714 0 1.4831-0.57468 0.35223-0.29661 0.70445-0.7786 0.0555-0.2966 0.1483-0.6303l0.57469-2.0206 1.3162-4.7643h1.7426l-1.3162 4.7643-0.66737 2.3358q-0.20393 0.76007-0.0742 1.2235 0.12976 0.46347 0.64883 0.46347 0.40783 0 0.7786-0.33369t0.68591-0.94544l0.37076-0.68592h0.66738l-0.42638 0.79713q-0.33369 0.64885-0.74152 1.1494-0.38932 0.482-0.8713 0.76007-0.482 0.27808-1.1123 0.27808-0.77861 0-1.2235-0.38931-0.42637-0.38929-0.51907-1.0752-0.0186-0.14831-0.0186-0.33369-0.46345 0.66738-0.96398 1.0752-0.88982 0.723-2.0207 0.723-1.3904 0-1.9465-1.0011-0.55614-1.0011-0.0926-2.651l0.3893-1.3904 0.64883-2.3358q0.22245-0.7786 0.0742-1.2235-0.12977-0.46346-0.63029-0.46346-0.40784 0-0.7786 0.33369-0.37078 0.31514-0.70444 0.94545l-0.35224 0.6859h-0.66732l0.40783-0.79713q0.35223-0.64883 0.74152-1.1308 0.3893-0.50052 0.88983-0.7786 0.50052-0.27807 1.1123-0.27807 0.7786 0 1.205 0.3893 0.44492 0.37076 0.53761 1.0567 0.0926 0.66736-0.16686 1.5572zm16.406 0 0.37075-1.3348q0.37076-1.3348 0.0742-2.0021-0.29661-0.68591-1.2235-0.68591-0.83423 0-1.5201 0.55615-0.40785 0.33368-0.7786 0.85276-0.0371 0.27807-0.12978 0.57467l-0.57468 2.0392-1.3348 4.7458h-1.7426l1.3348-4.7458 0.64883-2.3358q0.22246-0.7786 0.0742-1.2235-0.12978-0.46346-0.6303-0.46346-0.40785 0-0.7786 0.33369-0.37077 0.31514-0.70446 0.94545l-0.35221 0.6859h-0.66737l0.40783-0.79713q0.35223-0.64883 0.74153-1.1308 0.3893-0.50052 0.88982-0.7786 0.50053-0.27807 1.1123-0.27807 0.7786 0 1.205 0.3893 0.44492 0.37076 0.53761 1.0381 0.0186 0.16683 0.0186 0.35221 0.46345-0.66738 1.0011-1.0752 0.90836-0.70444 2.0577-0.70444 1.4089 0 1.9836 1.0011 0.25953 0.46344 0.29661 1.0567 0.53761-0.87129 1.1679-1.3533 0.87129-0.70444 1.9836-0.70444 1.3718 0 1.928 1.0011 0.55614 0.98251 0.11118 2.6324l-0.40783 1.4089-0.64884 2.3358q-0.22245 0.76007-0.0926 1.2235 0.14831 0.46347 0.64885 0.46347 0.40783 0 0.77858-0.33369 0.37077-0.33369 0.70445-0.94544l0.35224-0.68592h0.66737l-0.40784 0.79713q-0.3337 0.64885-0.74152 1.1494-0.3893 0.482-0.88984 0.76007-0.48198 0.27808-1.1123 0.27808-0.77859 0-1.2235-0.38931-0.42637-0.38929-0.51907-1.0567-0.0742-0.68592 0.16684-1.5758l0.5747-2.0206 0.38929-1.3904q0.35222-1.2791 0.0555-1.9465-0.27806-0.68591-1.1679-0.68591-0.7786 0-1.446 0.55615-0.44492 0.37076-0.87129 1.0196-0.037 0.50052-0.20393 1.1123l-0.37076 1.3348-1.3347 4.7458h-1.7426zm19.873 5.0053q-1.1308 0-1.8167-0.68591-0.66736-0.68591-0.66736-1.965 0-0.94545 0.33367-1.9465 0.35224-1.001 1.0196-2.0763 0.55613-0.88984 1.3347-1.8538-0.33369-0.0186-0.63029-0.0926-0.44492-0.11118-0.83421-0.24099-0.37077-0.14831-0.70445-0.25953-0.31515-0.11118-0.64884-0.11118-0.40783 0-0.40783 0.33369 0 0.14829 0.0742 0.31514 0.0926 0.14829 0.18538 0.33369 0.11119 0.16683 0.18537 0.37075 0.0926 0.18539 0.0926 0.40785 0 0.44492-0.27808 0.74152-0.25952 0.27807-0.70445 0.27807-0.48199 0-0.76006-0.31514-0.25953-0.3337-0.25953-0.88983 0-0.68591 0.38931-1.2235 0.38928-0.53763 1.0196-0.85277t1.3348-0.31514q0.59323 0 1.0567 0.12977 0.46345 0.12976 0.87129 0.31514 0.29662 0.14831 0.57469 0.27808 0.25953-0.33368 0.50052-0.50054 0.33368-0.22245 0.64883-0.22245 0.31516 0 0.482 0.1483 0.16685 0.12977 0.16685 0.3893 0 0.44492-0.5376 0.723-0.4264 0.22246-1.1123 0.25952-0.48199 0.96398-0.7786 1.7797-0.37076 0.96397-0.5376 1.7797-0.16685 0.81567-0.16685 1.5387 0 1.0381 0.42637 1.6314 0.42638 0.57469 1.2235 0.57469 0.37076 0 0.6859-0.0926 0.0926-0.037 0.20392-0.0742-0.25954-0.64883-0.25954-1.5943 0-0.90837 0.25954-1.7797 0.25954-0.88984 0.68591-1.5943 0.42638-0.70445 0.96398-1.1123 0.53761-0.42637 1.0938-0.42637 0.5376 0 0.8342 0.46345 0.31515 0.46345 0.31515 1.3347 0 1.2606-0.61175 2.4656-0.51906 1.0011-1.4645 1.928 0.38931 0.44492 1.0382 0.44492 0.66737 0 1.3162-0.40785 0.66738-0.42637 1.205-1.1123 0.55615-0.68591 0.88983-1.5016 0.33369-0.83422 0.33369-1.6314 0-0.5376-0.1483-0.90838-0.12978-0.37076-0.33369-0.64883-0.20391-0.2966-0.40784-0.5376-0.20392-0.241-0.35222-0.482-0.12978-0.25952-0.12978-0.57467 0-0.44492 0.27808-0.70446 0.27807-0.27806 0.74152-0.27806 0.66738 0 1.0011 0.57467 0.33368 0.5747 0.33368 1.7426 0 1.4645-0.46346 2.8549-0.46345 1.3718-1.2606 2.4841-0.7786 1.0938-1.7611 1.7426-0.98253 0.64881-2.0392 0.64881-1.1123 0-1.7055-0.76004-0.46345 0.31515-0.94545 0.50052-0.66736 0.25952-1.3718 0.25952zm3.4852-2.1504q0.76008-0.77858 1.205-1.7055 0.51909-1.0937 0.51909-2.1319 0-0.53762-0.12978-0.81568-0.12977-0.27806-0.38931-0.27806-0.3522 0-0.68589 0.51906-0.33369 0.51905-0.55615 1.3348-0.22245 0.79712-0.22245 1.6499 0 0.87131 0.25952 1.4274zm11.531 2.169q-1.446 0-2.2617-0.96398-0.79714-0.96399-0.79714-2.651 0-1.2977 0.42637-2.447 0.42638-1.1679 1.1679-2.0577 0.76006-0.90837 1.7055-1.4274 0.96399-0.51907 2.0392-0.51907 1.4274 0 2.2431 0.96398 0.81567 0.94544 0.81567 2.651 0 1.2977-0.42637 2.4656-0.42638 1.1494-1.1864 2.0577-0.74153 0.88983-1.7055 1.4089-0.96397 0.51908-2.0206 0.51908zm0.11119-0.66738q0.51906 0 1.0196-0.33368 0.51906-0.35223 0.94543-0.94546 0.44492-0.61175 0.77861-1.3904 0.35221-0.79715 0.5376-1.7055 0.18538-0.90836 0.18538-1.8353 0-1.2421-0.35223-1.8724-0.35223-0.64883-1.0381-0.64883-0.51907 0-1.0381 0.35221-0.50053 0.33369-0.94545 0.92691-0.44491 0.59323-0.77859 1.3904-0.3337 0.79714-0.53762 1.7055-0.18538 0.88982-0.18538 1.8167 0 1.2606 0.35222 1.9094 0.37078 0.63031 1.0567 0.63031zm7.786 0.3893 1.3347-4.7458 0.64884-2.3358q0.22245-0.7786 0.0742-1.2235-0.12978-0.46346-0.63031-0.46346-0.40784 0-0.77859 0.33369-0.37078 0.31514-0.70447 0.94545l-0.35221 0.6859h-0.66738l0.40785-0.79713q0.35221-0.64883 0.74152-1.1308 0.3893-0.50052 0.88983-0.7786 0.50053-0.27807 1.1123-0.27807 0.7786 0 1.205 0.3893 0.44493 0.37076 0.53763 1.0381 0.0186 0.12975 0.0186 0.25953 0.46345-0.74153 1.0752-1.1679 0.74153-0.51907 1.5943-0.51907 0.70445 0 1.0752 0.35223 0.38931 0.35221 0.38931 1.0381 0 0.51907-0.22246 1.0196-0.20391 0.48198-0.55614 0.77861-0.33368 0.2966-0.74153 0.2966-0.31514 0-0.51907-0.18537-0.18538-0.20394-0.18538-0.50054 0-0.29661 0.14831-0.55615 0.14829-0.27807 0.27807-0.51906 0.1483-0.25954 0.1483-0.44493 0-0.31514-0.50053-0.31514-0.53761 0-1.1494 0.44492-0.50053 0.35222-0.8713 0.90837-0.037 0.33367-0.14831 0.6859l-0.57467 2.0392-1.3348 4.7458zm15.461-4.7458 0.35222-1.2977q0.37077-1.3533 0.0742-2.0392-0.29662-0.68591-1.2606-0.68591-0.83422 0-1.5201 0.5376-0.40785 0.31516-0.77861 0.81568l-0.74154 2.6695-1.3347 4.7458h-1.7426l1.3347-4.7458 1.9094-6.8776q0.18538-0.63031 0.0926-1.0011-0.0742-0.37077-0.50053-0.51908-0.42637-0.14829-1.2977-0.16684l0.18538-0.66736q1.2791-0.0185 2.2987-0.20393 1.0196-0.20391 1.8353-0.55614l-1.7982 6.4884q0.38931-0.51908 0.83422-0.85277 0.90836-0.6859 2.0577-0.6859 1.446 0 2.0206 1.0196 0.57468 1.0011 0.0926 2.7066l-0.37076 1.3162-0.66737 2.3358q-0.20392 0.76007-0.0742 1.2235 0.12977 0.46347 0.6303 0.46347 0.42638 0 0.79713-0.33369 0.37076-0.33369 0.68592-0.94544l0.37077-0.68592h0.66736l-0.42637 0.79713q-0.33368 0.64885-0.74153 1.1494-0.3893 0.482-0.88983 0.76007-0.48199 0.27808-1.0938 0.27808-0.77861 0-1.2235-0.38931-0.42639-0.38929-0.51908-1.0567-0.0926-0.68592 0.16685-1.5758zm13.255 5.0053q-1.242 0-1.9465-0.94543-0.70446-0.96399-0.70446-2.6324 0-1.2977 0.40786-2.4656 0.40783-1.1679 1.1123-2.0577 0.72299-0.90837 1.6314-1.4274 0.92692-0.51907 1.9465-0.51907 0.8713 0 1.6499 0.3893 0.48198 0.25953 0.88981 0.64883 0.25955-0.14829 0.51909-0.29661 0.57468-0.35222 1.0381-0.79714l0.37076 0.50054q-0.2966 0.27807-0.50051 0.5376-0.1854 0.24098-0.31516 0.55615-0.12978 0.2966-0.25954 0.74152l-0.76005 2.7622-0.66738 2.3358q-0.22246 0.76007-0.0926 1.2235 0.14831 0.46347 0.64883 0.46347 0.40785 0 0.7786-0.33369 0.37077-0.33369 0.70445-0.94544l0.35223-0.68592h0.68591l-0.42637 0.79713q-0.3337 0.63032-0.74154 1.1308-0.38928 0.50053-0.88982 0.7786-0.48199 0.27808-1.1123 0.27808-0.76007 0-1.205-0.38931-0.44492-0.38929-0.51907-1.0752-0.0186-0.0926-0.0186-0.18538-0.40784 0.68591-0.94545 1.0752-0.72298 0.5376-1.6314 0.5376zm3.3183-5.0053 0.81566-2.9476q-0.14829-0.59321-0.48199-0.96397-0.4449-0.46344-1.1123-0.46344-0.64884 0-1.2791 0.48199-0.61176 0.46344-1.0937 1.2606-0.482 0.79713-0.76007 1.8167-0.27808 1.0196-0.27808 2.1319 0 1.3162 0.42637 1.965 0.42638 0.63032 1.2421 0.63032 0.59324 0 1.1123-0.37077 0.37075-0.27807 0.68589-0.76006 0.037-0.35223 0.14832-0.76007zm11.531 0 1.9094-6.8776q0.18538-0.63031 0.0926-1.0011-0.0742-0.37077-0.50052-0.51908-0.42637-0.14829-1.2977-0.16684l0.18538-0.66736q1.2791-0.0185 2.2987-0.20393 1.0196-0.20391 1.8353-0.55614l-2.7807 9.992-0.64883 2.3358q-0.22245 0.76007-0.0926 1.2235 0.1483 0.46347 0.64883 0.46347 0.40784 0 0.7786-0.33369 0.37077-0.33369 0.70446-0.94544l0.35223-0.68592h0.6859l-0.42638 0.79713q-0.33369 0.64885-0.74152 1.1494-0.3893 0.482-0.88983 0.76007-0.48199 0.27808-1.1123 0.27808-0.77859 0-1.2235-0.38931-0.42637-0.38929-0.51905-1.0567-0.0742-0.68592 0.16685-1.5758zm8.3237 2.3729q-0.25955 0.76006-0.18538 1.205 0.0926 0.44492 0.59321 0.44492 0.4264 0 0.79715-0.33369 0.37076-0.33369 0.68591-0.94544l0.37077-0.68592h0.66736l-0.42638 0.79713q-0.33368 0.63032-0.74153 1.1308-0.38931 0.50053-0.88982 0.7786-0.48199 0.27808-1.0938 0.27808-0.77861 0-1.205-0.37078-0.40783-0.3893-0.46346-1.0567-0.0555-0.66735 0.241-1.5386l1.446-4.4677q0.25954-0.76006 0.16685-1.1864-0.0742-0.44492-0.59323-0.44492-0.40783 0-0.7786 0.33369-0.35223 0.31514-0.70444 0.94545l-0.35223 0.6859h-0.66738l0.40783-0.79713q0.35224-0.64883 0.74153-1.1308 0.40785-0.50052 0.88984-0.7786 0.50053-0.27807 1.1123-0.27807 0.7786 0 1.1864 0.3893 0.42637 0.37076 0.482 1.0381 0.0742 0.64883-0.24101 1.5201zm1.483-9.3618q-0.51906 0-0.87127-0.33368-0.33368-0.35223-0.33368-0.85277 0-0.53761 0.40782-0.9269 0.40785-0.38931 0.96398-0.38931 0.50053 0 0.83422 0.35223 0.35223 0.33369 0.35223 0.8342 0 0.51909-0.40784 0.92692-0.40784 0.38931-0.94546 0.38931zm5.9322 11.994q-1.0196 0-1.8167-0.29662-0.7786-0.2966-1.2235-0.79712-0.44491-0.51907-0.44491-1.1494 0-0.51905 0.27805-0.81567 0.27808-0.31515 0.74154-0.31515 0.42639 0 0.64884 0.25953 0.24099 0.241 0.25954 0.70445 0.0186 0.18539 0 0.42638-0.0187 0.241-0.0187 0.40784 0.0555 0.482 0.42639 0.70445 0.38931 0.22246 1.1308 0.22246 1.0381 0 1.6314-0.44491 0.61175-0.46347 0.61175-1.2421 0-0.55615-0.29661-0.98252-0.27808-0.42639-0.72297-0.76006-0.4264-0.33369-0.92692-0.64884-0.50052-0.33368-0.94544-0.70444-0.44492-0.37077-0.723-0.85276-0.27806-0.48199-0.27806-1.1308 0-1.1679 0.98252-1.8909 0.98252-0.74152 2.5026-0.74152 0.92692 0 1.6499 0.27807 0.723 0.25953 1.1308 0.723 0.42639 0.46344 0.42639 1.0567 0 0.46346-0.24099 0.74153-0.24101 0.27808-0.66738 0.27808-0.38929 0-0.64884-0.22247-0.24098-0.22245-0.25953-0.61176 0-0.20392 0.0186-0.40784 0.0186-0.22246 0-0.35222-0.0186-0.42638-0.37076-0.6303-0.35223-0.20392-1.0196-0.20392-0.87129 0-1.3533 0.3893-0.48199 0.37077-0.48199 1.0196 0 0.53761 0.27807 0.94544 0.2966 0.38931 0.72297 0.74152 0.44493 0.33369 0.94546 0.66738 0.50052 0.33368 0.9269 0.72299 0.44492 0.37076 0.723 0.87129 0.2966 0.48199 0.2966 1.1494 0 0.85275-0.51906 1.5016-0.50054 0.64886-1.3718 1.0196-0.8713 0.37076-2.0021 0.37076zm7.9158-5.0053 1.1494-4.0969h-2.0577l0.18539-0.66737h2.0577l0.79714-2.8363q0.482-0.0185 0.92691-0.0926 0.46345-0.0742 0.88984-0.1854l-0.87131 3.1144h2.9105l-0.20392 0.66738h-2.892l-1.1494 4.0969-0.63032 2.3173q-0.24099 0.83423-0.0555 1.2421 0.20395 0.40784 0.79716 0.40784 0.48199 0 0.87128-0.31515 0.40784-0.31515 0.76007-0.96397l0.35221-0.66738h0.66738l-0.55614 1.0752q-0.27807 0.50054-0.64884 0.94544-0.37076 0.42637-0.87128 0.70445-0.482 0.25952-1.1494 0.25952-1.1864 0-1.7055-0.8342-0.50051-0.83422-0.12976-2.169zm9.4545 5.0053q-1.446 0-2.2431-0.90837-0.77859-0.92689-0.77859-2.5953 0-1.2977 0.44492-2.4656 0.46345-1.1864 1.2235-2.0948 0.77861-0.92691 1.7611-1.446 1.001-0.5376 2.1133-0.5376 1.001 0 1.5201 0.44492 0.51906 0.44492 0.51906 1.2791 0 1.001-0.74152 1.9094-0.74152 0.88984-2.0948 1.5758-1.2606 0.64883-2.9476 1.0567 0 0.0742 0 0.14831 0 1.2977 0.50052 2.0021 0.50053 0.68592 1.4089 0.68592 0.76008 0 1.3718-0.46346 0.63029-0.48199 1.1308-1.4274h0.64883q-0.63031 1.3904-1.6128 2.1133-0.98252 0.72299-2.2246 0.72299zm-1.1865-4.3564q1.2235-0.37077 2.1319-0.92692 0.98252-0.59321 1.5016-1.3348 0.51908-0.76006 0.51908-1.6499 0-0.55615-0.22246-0.83421-0.20391-0.29661-0.6303-0.29661-0.57468 0-1.1679 0.51907-0.59321 0.50052-1.0938 1.3533-0.482 0.83421-0.7786 1.8538-0.18538 0.66737-0.25955 1.3162zm15.294-0.64884 0.35224-1.2791q0.3893-1.3718 0.0742-2.0577-0.2966-0.68591-1.2606-0.68591-0.85275 0-1.5757 0.55615-0.40785 0.31514-0.79715 0.83422-0.037 0.27807-0.12976 0.59321l-0.57469 2.0392-1.3348 4.7458h-1.7426l1.3348-4.7458 0.64884-2.3358q0.22245-0.7786 0.0742-1.2235-0.12975-0.46346-0.63029-0.46346-0.40783 0-0.7786 0.33369-0.37076 0.31514-0.70445 0.94545l-0.35222 0.6859h-0.66737l0.40783-0.79713q0.35223-0.64883 0.74154-1.1308 0.38929-0.50052 0.88981-0.7786 0.50054-0.27807 1.1123-0.27807 0.77861 0 1.205 0.3893 0.44492 0.37076 0.53761 1.0381 0.0186 0.18537 0.0186 0.37075 0.482-0.68592 1.0382-1.0938 0.92689-0.70444 2.0948-0.70444 1.4645 0 2.0392 1.0196 0.59323 1.0011 0.0926 2.7436l-0.35222 1.2791-0.66737 2.3358q-0.22246 0.76007-0.0926 1.2235 0.14831 0.46347 0.64882 0.46347 0.40786 0 0.77861-0.33369 0.37077-0.33369 0.70446-0.94544l0.35222-0.68592h0.6859l-0.42637 0.79713q-0.33369 0.64885-0.74153 1.1494-0.38931 0.482-0.88982 0.76007-0.48199 0.27808-1.1123 0.27808-0.76007 0-1.205-0.38931-0.44492-0.38929-0.53761-1.0567-0.0742-0.68592 0.16685-1.5758zm6.4142 5.0053q-0.59324 0-0.964-0.35222-0.37075-0.37077-0.37075-0.92692 0-0.61174 0.42637-1.0381 0.44492-0.42638 1.0938-0.42638 0.59323 0 0.96399 0.37078 0.37076 0.3522 0.37076 0.90835 0 0.61177-0.44492 1.0381t-1.0752 0.42637z"
  />
</svg>
