<svg
  width="92.604mm"
  viewBox="0 0 350 18.44"
  xmlns="http://www.w3.org/2000/svg"
>
  <path
    id="slogan"
    fill="currentColor"
    d="m3.0495 14.124q-0.55284 0-1.1235 0.0178-0.57067 0-1.07 0.0178-0.49934 0-0.85601 0.0178l0.17834-0.642 0.67767-0.0714q0.5885-0.0535 0.90951-0.17832 0.33884-0.14268 0.51717-0.42801 0.19617-0.30317 0.35667-0.85601l2.3005-8.2747q0.1605-0.55283 0.14267-0.83817-0.01783-0.30318-0.2675-0.44584-0.24967-0.14267-0.82034-0.19616l-0.65984-0.0535 0.17834-0.64201q0.33884 0 0.82034 0.0178 0.49934 0.0179 1.0878 0.0179h1.1413l0.14267 0.0178q0.428-0.0178 0.78467-0.0178 0.3745 0 0.65984-0.0179 0.30317-0.0178 0.4815-0.0178 2.7464 0 4.2622 1.391 1.5158 1.3732 1.5158 3.8342 0 1.6228-0.64201 2.9782-0.62417 1.3554-1.8012 2.354-1.1592 0.98084-2.7464 1.5337-1.5872 0.535-3.5132 0.535-0.35667 0-0.76684-0.0178-0.39234-0.0178-0.85601-0.0178-0.46367-0.0178-0.99868-0.0178zm2.8712-0.57068q1.3732 0 2.5145-0.49933 1.1592-0.51718 1.9974-1.4445 0.85601-0.92734 1.3197-2.1757 0.46367-1.2484 0.46367-2.7285 0-2.1757-1.0165-3.3527-1.0165-1.177-2.889-1.177h-0.85601l-2.7464 9.8619q-0.24967 0.89168 0 1.2127 0.24967 0.30317 1.2127 0.30317zm13.589-1.6585q-0.23184 0.71334-0.1605 1.1414 0.08917 0.41016 0.5885 0.41016 0.39234 0 0.73117-0.30317 0.35667-0.30316 0.67767-0.9095l0.33884-0.65984h0.64201l-0.41017 0.78467q-0.321 0.62417-0.73117 1.1057-0.39234 0.46368-0.87384 0.71334-0.4815 0.26751-1.1057 0.26751-0.78467 0-1.2305-0.35667-0.428-0.37451-0.49934-1.0343-0.05351-0.65984 0.23184-1.5337l1.3732-4.2265q0.24967-0.71335 0.1605-1.1235-0.08917-0.428-0.58851-0.428-0.3745 0-0.73117 0.321-0.35667 0.30316-0.67767 0.89168l-0.33884 0.65983h-0.64201l0.41017-0.78468q0.33884-0.62416 0.73117-1.0878 0.39234-0.48151 0.87384-0.73117 0.49934-0.26751 1.1057-0.26751 0.80251 0 1.2305 0.37451 0.428 0.3745 0.49934 1.0343 0.07134 0.642-0.23184 1.5337zm1.2662-8.9346q-0.535 0-0.89168-0.33883-0.33884-0.33884-0.33884-0.85601 0-0.55283 0.41017-0.94518 0.428-0.39233 0.99868-0.39233 0.535 0 0.89167 0.33884 0.35667 0.33883 0.35667 0.856 0 0.53501-0.428 0.94517-0.41017 0.39234-0.99868 0.39234zm5.9029 11.467q-0.99868 0-1.8012-0.28534-0.78467-0.28533-1.2305-0.78468-0.44584-0.51716-0.44584-1.1413 0-0.535 0.28534-0.856 0.30317-0.32101 0.78467-0.32101 0.44584 0 0.67767 0.24967 0.24967 0.24967 0.2675 0.73118 0 0.214-0.03566 0.4815t-0.03566 0.44584q0.03566 0.428 0.39234 0.642 0.3745 0.214 1.0878 0.214 0.98084 0 1.5337-0.41016 0.55284-0.42801 0.55284-1.1592 0-0.51717-0.2675-0.90951-0.2675-0.41017-0.69551-0.73118-0.428-0.33883-0.90951-0.65983t-0.90951-0.67767q-0.428-0.35667-0.71334-0.82035-0.2675-0.4815-0.2675-1.1057 0-1.1592 0.96301-1.8725 0.98084-0.71335 2.5145-0.71335 0.92734 0 1.6407 0.26751 0.73117 0.2675 1.1413 0.73117 0.428 0.46367 0.428 1.0343 0 0.46367-0.2675 0.76684-0.24967 0.28533-0.69551 0.28533-0.39234 0-0.64201-0.214-0.24967-0.23184-0.2675-0.62417 0-0.214 0.03566-0.44584 0.03566-0.24966 0.03566-0.39233-0.03566-0.39234-0.3745-0.58851-0.321-0.19616-0.96301-0.19616-0.82034 0-1.284 0.35666-0.44584 0.35667-0.44584 0.98084 0 0.48151 0.2675 0.87385 0.28534 0.39233 0.71334 0.73117 0.428 0.321 0.90951 0.65984 0.4815 0.321 0.90951 0.6955 0.428 0.3745 0.6955 0.85602 0.2675 0.4815 0.2675 1.1057 0 0.83818-0.49934 1.4623-0.49934 0.62417-1.3732 0.98085-0.85601 0.35667-1.9795 0.35667zm9.5052 0q-1.4088 0-2.1935-0.90951-0.78467-0.92734-0.78467-2.5502 0-1.2305 0.428-2.354t1.177-1.9974q0.76684-0.87384 1.7298-1.3732 0.98084-0.49934 2.0508-0.49934 1.0343 0 1.6407 0.46367t0.60634 1.2662q0 0.535-0.24967 0.99867-0.24967 0.44584-0.65984 0.73117-0.39234 0.28534-0.83817 0.28534-0.3745 0-0.60634-0.17833-0.214-0.19617-0.214-0.51717 0-0.30317 0.17834-0.55284 0.19617-0.2675 0.428-0.4815 0.24967-0.23184 0.428-0.44584 0.19617-0.214 0.19617-0.4815 0-0.44584-0.65984-0.44584-0.6955 0-1.3553 0.46367-0.65984 0.44584-1.1948 1.2127-0.51717 0.76683-0.82034 1.7477-0.30317 0.963-0.30317 1.9795 0 1.284 0.44584 1.9795 0.44584 0.67767 1.3197 0.67767 0.71334 0 1.284-0.428t1.0522-1.3375h0.62417q-0.62417 1.3554-1.5693 2.0508-0.92734 0.69551-2.14 0.69551zm9.1664 0.0178q-1.4623 0-2.2827-0.92734-0.80251-0.94518-0.80251-2.6037 0-1.2305 0.41017-2.3362 0.428-1.1235 1.1592-1.9795 0.73117-0.87384 1.6763-1.3553 0.96301-0.49934 2.033-0.49934 1.4623 0 2.2827 0.94518 0.82034 0.92734 0.82034 2.5858 0 1.2305-0.42801 2.354-0.41017 1.1057-1.1592 1.9617-0.73117 0.856-1.6942 1.3553-0.96301 0.49934-2.0152 0.49934zm0.107-0.64201q0.49934 0 0.96301-0.33884 0.4815-0.33883 0.89168-0.92734 0.41017-0.5885 0.71334-1.3553 0.321-0.78467 0.49934-1.6585 0.17834-0.87385 0.17834-1.7655 0-1.177-0.321-1.7655-0.321-0.60633-0.92734-0.60633-0.49934 0-0.98084 0.33883-0.46367 0.33884-0.87384 0.92735-0.41017 0.5885-0.73117 1.3553-0.321 0.76684-0.49934 1.6407-0.17833 0.87385-0.17833 1.7655 0 1.177 0.321 1.7834 0.321 0.60633 0.94517 0.60633zm11.11 0.62418q-1.0878 0-1.712-0.71335-0.62418-0.71334-0.62418-2.0152 0-0.87384 0.321-1.819 0.32101-0.94518 0.94518-1.9439 0.49934-0.82033 1.2127-1.6763-0.30317-0.0178-0.57067-0.107-0.41018-0.107-0.76685-0.24968-0.33883-0.14266-0.642-0.24966t-0.60634-0.107q-0.39233 0-0.39233 0.30317 0 0.14266 0.0892 0.30317 0.0892 0.1605 0.19616 0.33884 0.12483 0.1605 0.214 0.35667 0.0892 0.19616 0.0892 0.42799 0 0.44584-0.2675 0.73118-0.26751 0.2675-0.71335 0.2675-0.49933 0-0.78466-0.321-0.26751-0.32101-0.26751-0.87384 0-0.67767 0.37451-1.1948 0.39233-0.535 1.0165-0.83817 0.64201-0.30317 1.3554-0.30317 0.51717 0 0.92734 0.12483 0.41017 0.12484 0.78467 0.30317 0.24967 0.14267 0.49934 0.28535 0.24967-0.32101 0.48151-0.48152 0.32099-0.23183 0.62417-0.23183 0.30317 0 0.46367 0.14267 0.17834 0.14267 0.17834 0.39234 0 0.428-0.51718 0.71333-0.41016 0.21401-1.0343 0.26751-0.58851 1.4088-0.83817 2.4967-0.30318 1.2127-0.30318 2.2114 0 0.96301 0.37451 1.4802 0.39234 0.49935 1.1057 0.49935 0.6955 0 1.3197-0.35667 0.62417-0.37451 1.1235-0.98085 0.49934-0.62416 0.78468-1.3553 0.28534-0.73117 0.28534-1.4445 0-0.51718-0.14268-0.87385-0.14266-0.3745-0.33884-0.64199-0.19616-0.26751-0.41016-0.49935-0.214-0.24967-0.35667-0.49933-0.14266-0.24967-0.14266-0.57068 0-0.428 0.26749-0.6955 0.28534-0.28534 0.76685-0.28534 0.642 0 0.963 0.55284 0.33884 0.53501 0.33884 1.7298 0 1.4267-0.46367 2.7464-0.44584 1.3197-1.2484 2.3719-0.8025 1.0522-1.819 1.6763-1.0165 0.60635-2.14 0.60635zm10.807 0q-1.4267 0-2.2292-0.89168-0.80251-0.90951-0.80251-2.5324 0-1.2484 0.42801-2.3719 0.44584-1.1235 1.2127-1.9974 0.76683-0.89167 1.7477-1.391 0.98084-0.49934 2.0687-0.49934 1.0165 0 1.5515 0.44584 0.55284 0.428 0.55284 1.2662 0 0.94518-0.73117 1.819-0.71334 0.85601-2.0152 1.5158-1.2305 0.64201-2.8534 1.0165 0 0.0178 0 0.0357 0 1.2662 0.48152 1.9438 0.4815 0.65984 1.3732 0.65984 0.71334 0 1.3018-0.428 0.60633-0.44584 1.0878-1.3375h0.62418q-0.62418 1.3554-1.5872 2.0508-0.963 0.69551-2.2114 0.69551zm-1.0343-4.173q1.1592-0.3745 1.9973-0.90951 0.90951-0.58851 1.391-1.3197 0.49933-0.74901 0.49933-1.5872 0-0.53501-0.21399-0.8025-0.19617-0.2675-0.57068-0.2675-0.55284 0-1.1057 0.49933-0.55284 0.4815-1.0165 1.284-0.44583 0.80251-0.73117 1.7655-0.19617 0.65983-0.24966 1.3375zm7.9002 3.9234 1.3018-4.5832 0.62417-2.247q0.214-0.74901 0.0714-1.177-0.12484-0.428-0.62418-0.428-0.39233 0-0.749 0.321-0.33884 0.30316-0.65984 0.89168l-0.33884 0.65983h-0.642l0.41016-0.78468q0.32101-0.62416 0.71334-1.0878 0.41018-0.48151 0.89168-0.73117 0.49933-0.26751 1.1057-0.26751 0.80251 0 1.2483 0.37451 0.44584 0.3745 0.55283 1.0343 0.0179 0.0892 0.0179 0.17833 0.46367-0.67767 1.0343-1.0878 0.71334-0.49934 1.5337-0.49934 0.71334 0 1.0878 0.35667 0.37451 0.35668 0.37451 1.0165 0 0.53501-0.23183 1.0343-0.21401 0.4815-0.57067 0.78467-0.33884 0.28535-0.74902 0.28535-0.33883 0-0.53499-0.17834-0.17834-0.19617-0.17834-0.51717 0-0.28534 0.14266-0.55284 0.14267-0.28534 0.26751-0.51718 0.14267-0.24966 0.14267-0.46367 0-0.30316-0.46367-0.30316-0.51718 0-1.07 0.39233-0.44583 0.32101-0.78466 0.82034-0.0535 0.39235-0.17834 0.82034l-0.51717 1.8725-1.284 4.5832zm16.87 0.24968q-1.2305 0-1.9438-0.90951-0.71334-0.92734-0.71334-2.5324 0-1.2662 0.41017-2.3897 0.41017-1.1235 1.1057-1.9795 0.71335-0.87384 1.6229-1.3732 0.92734-0.49934 1.9438-0.49934 0.85601 0 1.6229 0.37451 0.49933 0.2675 0.92734 0.65983 0.23183-0.12483 0.4815-0.2675 0.5885-0.35667 1.0878-0.82034l0.37451 0.49934q-0.28534 0.24966-0.48151 0.49934-0.17833 0.23184-0.30317 0.535-0.12483 0.28534-0.24966 0.71334l-0.74902 2.6572-0.64201 2.247q-0.19616 0.73117-0.0714 1.177 0.14266 0.428 0.62416 0.428 0.39235 0 0.74902-0.30317 0.35666-0.30316 0.65984-0.9095l0.35667-0.65984h0.642l-0.41017 0.78467q-0.33884 0.62417-0.73118 1.1057-0.39233 0.46368-0.89167 0.71334-0.48151 0.26751-1.1057 0.26751-0.78467 0-1.2483-0.3745-0.44584-0.37451-0.53501-1.0522-0.0178-0.0714-0.0178-0.14267-0.39233 0.65984-0.90951 1.0343-0.71334 0.51718-1.605 0.51718zm3.21-4.8329 0.78468-2.782q-0.14267-0.60633-0.44584-0.963-0.41016-0.46367-1.0343-0.46367-0.62417 0-1.1948 0.46367-0.57067 0.44584-1.0343 1.2305-0.44584 0.76684-0.71334 1.7477-0.24968 0.96301-0.24968 2.0152 0 1.2484 0.39235 1.8547 0.41016 0.60634 1.1592 0.60634 0.55284 0 1.0165-0.33884 0.33884-0.23183 0.62417-0.65984 0.0357-0.39233 0.16051-0.83817zm13.001 4.8329q-1.2305 0-1.9438-0.92734-0.71335-0.92735-0.71335-2.5324 0-1.2127 0.39235-2.3184 0.39233-1.1235 1.0522-1.9973 0.67767-0.89168 1.5337-1.391 0.85601-0.51717 1.7834-0.51717 0.80251 0 1.4088 0.37451 0.46367 0.32099 0.71334 0.80251l0.80251-2.9069q0.17834-0.62417 0.107-0.963-0.0714-0.35667-0.4815-0.49934-0.41018-0.16051-1.2662-0.17834l0.17834-0.64201q1.3197-0.0178 2.354-0.19616 1.0343-0.19617 1.8903-0.53501l-2.675 9.5944-0.642 2.2648q-0.19617 0.73118-0.0714 1.1592 0.14267 0.428 0.62417 0.428 0.39234 0 0.73118-0.30317 0.35667-0.30316 0.67767-0.9095l0.33884-0.64201h0.65983l-0.41016 0.76684q-0.33884 0.62417-0.73118 1.1057-0.39233 0.46368-0.89167 0.71334-0.48151 0.26751-1.1057 0.26751-0.78467 0-1.2483-0.3745-0.44584-0.37451-0.535-1.0522-0.0178-0.0714-0.0178-0.14267-0.39234 0.65984-0.90951 1.0343-0.71334 0.51718-1.605 0.51718zm3.21-4.8329 0.83818-3.0495q-0.23183-0.35666-0.57067-0.5885-0.41017-0.24967-0.92734-0.24967-0.64201 0-1.2305 0.41017-0.57068 0.41017-1.0344 1.1413-0.44583 0.71334-0.71333 1.6407-0.24967 0.90951-0.24967 1.926 0 1.2127 0.39233 1.8547 0.41018 0.62418 1.177 0.62418 0.53501 0 1.0165-0.33884 0.321-0.23183 0.60634-0.62418 0.0357-0.41016 0.1605-0.87383zm8.2569 4.8329q-1.2305 0-1.9438-0.90951-0.71334-0.92734-0.71334-2.5324 0-1.2662 0.41017-2.3897 0.41017-1.1235 1.1057-1.9795 0.71335-0.87384 1.6229-1.3732 0.92734-0.49934 1.9438-0.49934 0.85601 0 1.6229 0.37451 0.49933 0.2675 0.92734 0.65983 0.23183-0.12483 0.4815-0.2675 0.5885-0.35667 1.0878-0.82034l0.37451 0.49934q-0.28534 0.24966-0.48151 0.49934-0.17833 0.23184-0.30317 0.535-0.12483 0.28534-0.24966 0.71334l-0.74901 2.6572-0.64201 2.247q-0.19617 0.73117-0.0714 1.177 0.14266 0.428 0.62417 0.428 0.39234 0 0.74901-0.30317 0.35667-0.30316 0.65984-0.9095l0.35667-0.65984h0.642l-0.41017 0.78467q-0.33883 0.62417-0.73118 1.1057-0.39233 0.46368-0.89166 0.71334-0.48152 0.26751-1.1057 0.26751-0.78468 0-1.2484-0.3745-0.44584-0.37451-0.53501-1.0522-0.0178-0.0714-0.0178-0.14267-0.39233 0.65984-0.90951 1.0343-0.71334 0.51718-1.605 0.51718zm3.21-4.8329 0.78467-2.782q-0.14266-0.60633-0.44584-0.963-0.41016-0.46367-1.0343-0.46367-0.62417 0-1.1948 0.46367-0.57067 0.44584-1.0343 1.2305-0.44584 0.76684-0.71334 1.7477-0.24968 0.96301-0.24968 2.0152 0 1.2484 0.39235 1.8547 0.41016 0.60634 1.1592 0.60634 0.55284 0 1.0165-0.33884 0.33884-0.23183 0.62417-0.65984 0.0357-0.39233 0.16051-0.83817zm8.3104 2.3005q-0.23184 0.71334-0.16051 1.1414 0.0892 0.41016 0.5885 0.41016 0.39234 0 0.73118-0.30317 0.35667-0.30316 0.67768-0.9095l0.33883-0.65984h0.642l-0.41016 0.78467q-0.32101 0.62417-0.73118 1.1057-0.39233 0.46368-0.87384 0.71334-0.48151 0.26751-1.1057 0.26751-0.78467 0-1.2305-0.35667-0.428-0.37451-0.49933-1.0343-0.0535-0.65984 0.23183-1.5337l1.3732-4.2265q0.24967-0.71335 0.1605-1.1235-0.0892-0.428-0.58851-0.428-0.3745 0-0.73117 0.321-0.35667 0.30316-0.67767 0.89168l-0.33884 0.65983h-0.64201l0.41018-0.78468q0.33883-0.62416 0.73117-1.0878 0.39234-0.48151 0.87384-0.73117 0.49934-0.26751 1.1057-0.26751 0.80251 0 1.2305 0.37451 0.428 0.3745 0.49934 1.0343 0.0714 0.642-0.23184 1.5337zm1.2662-8.9346q-0.535 0-0.89167-0.33883-0.33884-0.33884-0.33884-0.85601 0-0.55283 0.41016-0.94518 0.42801-0.39233 0.99868-0.39233 0.53501 0 0.89168 0.33884 0.35667 0.33883 0.35667 0.856 0 0.53501-0.42801 0.94517-0.41016 0.39234-0.99867 0.39234zm3.8699 6.6341 1.8368-6.5806q0.17834-0.62417 0.0892-0.963-0.0714-0.35667-0.4815-0.49934-0.41018-0.16051-1.2662-0.17834l0.19617-0.64201q1.3018-0.0178 2.3362-0.19616 1.0522-0.19617 1.8903-0.53501l-2.675 9.5944-0.62417 2.2648q-0.214 0.73118-0.0892 1.1592 0.14267 0.428 0.62417 0.428 0.39234 0 0.74901-0.30317 0.35667-0.30316 0.65984-0.9095l0.35667-0.64201h0.642l-0.41016 0.76684q-0.33884 0.62417-0.73118 1.1057-0.39233 0.46368-0.89167 0.71334-0.48151 0.26751-1.1057 0.26751-0.78467 0-1.2305-0.3745-0.44584-0.37451-0.55284-1.0343-0.0892-0.67768 0.14267-1.5694zm4.1909 8.8454q-0.60633 0-0.99868-0.28534-0.39233-0.28533-0.39233-0.749 0-0.44584 0.30316-0.71334 0.30318-0.2675 0.78468-0.2675 0.28534 0 0.53501 0.0892 0.2675 0.0892 0.49933 0.19617 0.24967 0.12483 0.4815 0.21399 0.24968 0.0892 0.49935 0.0892 0.51716 0 1.2127-0.4815 0.49934-0.32101 1.0343-0.82034 0.107-1.2662 0.12483-2.5145 0-1.4802-0.107-2.7999-0.10699-1.3375-0.32099-2.354-0.19617-1.0165-0.48151-1.5872-0.28534-0.5885-0.62417-0.5885-0.23184 0-0.4815 0.2675-0.24967 0.24968-0.57068 0.83818l-0.321 0.642h-0.65984l0.53501-1.0343q0.49933-0.94517 1.0343-1.391t1.1592-0.44584q0.92734 0 1.5158 1.0343 0.5885 1.0165 0.87384 3.103 0.24967 1.926 0.19617 4.7615 0.0357-0.0714 0.0891-0.12483 0.74901-0.96301 1.3375-1.9617 0.60633-0.99868 0.963-1.8725 0.37451-0.89166 0.37451-1.5158 0-0.46367-0.19617-0.78468-0.19617-0.321-0.46367-0.57067-0.24966-0.2675-0.44584-0.51716-0.19617-0.26751-0.19617-0.62418 0-0.39233 0.26751-0.65983 0.28533-0.26751 0.76683-0.26751 0.62418 0 0.96302 0.4815 0.35667 0.48151 0.35667 1.3375 0 1.0343-0.46367 2.3184-0.44584 1.284-1.2484 2.6215-0.78467 1.3197-1.7834 2.568-0.99867 1.2305-2.0865 2.2114-1.07 0.99867-2.1222 1.5693-1.0522 0.58851-1.9438 0.58851zm18.993-4.0125q-1.2305 0-1.9438-0.90951-0.71334-0.92734-0.71334-2.5324 0-1.2662 0.41018-2.3897 0.41016-1.1235 1.1057-1.9795 0.71334-0.87384 1.6228-1.3732 0.92734-0.49934 1.9438-0.49934 0.85602 0 1.6228 0.37451 0.49934 0.2675 0.92735 0.65983 0.23184-0.12483 0.4815-0.2675 0.58851-0.35667 1.0878-0.82034l0.3745 0.49934q-0.28533 0.24966-0.4815 0.49934-0.17833 0.23184-0.30316 0.535-0.12484 0.28534-0.24968 0.71334l-0.749 2.6572-0.64201 2.247q-0.19616 0.73117-0.0714 1.177 0.14267 0.428 0.62417 0.428 0.39234 0 0.74901-0.30317 0.35667-0.30316 0.65983-0.9095l0.35668-0.65984h0.642l-0.41016 0.78467q-0.33884 0.62417-0.73118 1.1057-0.39234 0.46368-0.89168 0.71334-0.4815 0.26751-1.1057 0.26751-0.78468 0-1.2484-0.3745-0.44583-0.37451-0.535-1.0522-0.0179-0.0714-0.0179-0.14267-0.39233 0.65984-0.9095 1.0343-0.71334 0.51718-1.605 0.51718zm3.21-4.8329 0.78467-2.782q-0.14266-0.60633-0.44583-0.963-0.41017-0.46367-1.0344-0.46367-0.62416 0-1.1948 0.46367-0.57067 0.44584-1.0343 1.2305-0.44584 0.76684-0.71334 1.7477-0.24967 0.96301-0.24967 2.0152 0 1.2484 0.39234 1.8547 0.41016 0.60634 1.1592 0.60634 0.55284 0 1.0165-0.33884 0.33883-0.23183 0.62416-0.65984 0.0357-0.39233 0.16051-0.83817zm6.4379 0 1.8368-6.5806q0.17834-0.62417 0.0892-0.963-0.0714-0.35667-0.4815-0.49934-0.41018-0.16051-1.2662-0.17834l0.19616-0.64201q1.3018-0.0178 2.3362-0.19616 1.0522-0.19617 1.8904-0.53501l-2.675 9.5944-0.62417 2.2648q-0.214 0.73118-0.0892 1.1592 0.14267 0.428 0.62417 0.428 0.39234 0 0.74901-0.30317 0.35667-0.30316 0.65983-0.9095l0.35668-0.64201h0.642l-0.41016 0.76684q-0.33884 0.62417-0.73118 1.1057-0.39234 0.46368-0.89168 0.71334-0.4815 0.26751-1.1057 0.26751-0.78468 0-1.2305-0.3745-0.44584-0.37451-0.55284-1.0343-0.0891-0.67768 0.14267-1.5694zm8.7562 4.8329q-1.1592 0-1.8547-0.53501-0.69551-0.55284-0.87384-1.5694-0.16051-1.0343 0.23184-2.4432l0.0892-0.28534 1.8368-6.5806q0.17833-0.62417 0.0892-0.963-0.0714-0.35667-0.4815-0.49934-0.41016-0.16051-1.2662-0.17834l0.19617-0.64201q1.3018-0.0178 2.3362-0.19616 1.0522-0.19617 1.8904-0.53501l-1.6407 5.8672q0.28534-0.35667 0.64201-0.62417 0.6955-0.49934 1.5694-0.49934 1.2305 0 1.926 0.92734 0.71334 0.92734 0.71334 2.5502 0 1.284-0.428 2.4075-0.42801 1.1235-1.177 1.9795-0.73118 0.856-1.712 1.3375t-2.0865 0.48151zm0.30317-7.6684-0.78468 2.8355-0.214 0.80251q-0.44583 1.6763-0.23183 2.5324 0.214 0.856 1.0522 0.856 0.642 0 1.2305-0.44584 0.60635-0.44584 1.07-1.2127 0.46367-0.76684 0.73117-1.7477 0.2675-0.98084 0.2675-2.033 0-1.2662-0.39233-1.926-0.3745-0.67767-1.1235-0.67767-0.535 0-1.0165 0.3745-0.321 0.24966-0.5885 0.64201zm10.682 2.8355-0.39233 1.391q-0.321 1.1948-0.0714 1.819 0.2675 0.62418 1.1057 0.62418 0.74901 0 1.391-0.53501 0.33884-0.2675 0.642-0.71333 0.0535-0.33884 0.14268-0.71334l0.535-1.8725 1.284-4.5832h1.926l-1.284 4.5832-0.62417 2.2648q-0.214 0.73118-0.0892 1.1592 0.14267 0.428 0.62417 0.428 0.39234 0 0.74901-0.30317 0.35667-0.30316 0.65984-0.9095l0.35667-0.64201h0.642l-0.41017 0.76684q-0.33883 0.62417-0.73118 1.1057-0.39233 0.46368-0.89166 0.71334-0.48151 0.26751-1.1057 0.26751-0.78468 0-1.2484-0.3745-0.44584-0.37451-0.53501-1.0522-0.0178-0.12484-0.0178-0.2675-0.44584 0.62417-0.92734 1.0165-0.87383 0.67767-1.9795 0.67767-1.391 0-1.9438-0.96301t-0.10701-2.5858l0.37451-1.3018 0.62417-2.247q0.21401-0.74901 0.0714-1.177-0.12483-0.428-0.62417-0.428-0.39233 0-0.74901 0.321-0.33883 0.30316-0.65983 0.89168l-0.33884 0.65983h-0.64201l0.41018-0.78468q0.321-0.62416 0.71334-1.0878 0.41017-0.48151 0.89167-0.73117 0.49934-0.26751 1.1057-0.26751 0.80251 0 1.2484 0.37451 0.44584 0.3745 0.55284 1.0522 0.107 0.65983-0.1605 1.5515zm15.89 0 0.35668-1.3375q0.35667-1.2484 0.0714-1.8725-0.2675-0.62418-1.1235-0.62418-0.78466 0-1.4267 0.51717-0.35667 0.30317-0.67767 0.76684-0.0535 0.321-0.1605 0.67767l-0.51718 1.8725-1.284 4.5832h-1.9438l1.3018-4.5832 0.62418-2.247q0.214-0.74901 0.0714-1.177-0.12484-0.428-0.62418-0.428-0.39233 0-0.749 0.321-0.33884 0.30316-0.65984 0.89168l-0.33884 0.65983h-0.64201l0.41018-0.78468q0.321-0.62416 0.71333-1.0878 0.41018-0.48151 0.89168-0.73117 0.49934-0.26751 1.1057-0.26751 0.80251 0 1.2484 0.37451 0.44583 0.3745 0.55284 1.0343 0.0178 0.14267 0.0357 0.28533 0.42801-0.62417 0.94518-1.0165 0.87384-0.67767 1.9974-0.67767 1.4267 0 1.9974 0.96301 0.24967 0.428 0.30317 0.96301 0.49933-0.78468 1.0878-1.2484 0.856-0.67767 1.9438-0.67767 1.3732 0 1.926 0.96301t0.107 2.5858l-0.3745 1.3018-0.64201 2.2648q-0.19616 0.73118-0.0714 1.1592 0.14267 0.428 0.62417 0.428 0.39234 0 0.73118-0.30317 0.35667-0.30316 0.67766-0.9095l0.33884-0.64201h0.65984l-0.41016 0.76684q-0.33884 0.62417-0.74902 1.1057-0.39233 0.46368-0.87384 0.71334-0.4815 0.26751-1.1057 0.26751-0.78468 0-1.2484-0.3745-0.44583-0.37451-0.55284-1.0343-0.0892-0.67768 0.16051-1.5694l0.535-1.8725 0.39234-1.4088q0.321-1.1948 0.0535-1.8012-0.24967-0.62418-1.07-0.62418-0.73118 0-1.3554 0.51717-0.41017 0.33884-0.78467 0.90951-0.0357 0.535-0.214 1.1592l-0.33884 1.2483-1.284 4.5832h-1.9438zm19.492 4.8329q-1.1413 0-1.8012-0.67767-0.65984-0.67768-0.65984-1.926 0-0.90951 0.33883-1.8725 0.35667-0.96301 1.0344-1.9795 0.57067-0.83817 1.3553-1.712-0.33883-0.0178-0.62417-0.107-0.44584-0.107-0.82034-0.24968-0.3745-0.14266-0.71334-0.24966t-0.65984-0.107q-0.39233 0-0.39233 0.30317 0 0.14266 0.0891 0.30317 0.0892 0.1605 0.19618 0.33884 0.12483 0.1605 0.214 0.35667 0.0892 0.19616 0.0892 0.42799 0 0.44584-0.26751 0.73118-0.2675 0.2675-0.71334 0.2675-0.49933 0-0.78467-0.321-0.2675-0.32101-0.2675-0.87384 0-0.67767 0.3745-1.1948 0.39234-0.535 1.0165-0.83817 0.64201-0.30317 1.3554-0.30317 0.57067 0 1.0165 0.12483 0.44584 0.12484 0.856 0.30317 0.30317 0.14267 0.5885 0.30318 0.24968-0.33884 0.48152-0.49935 0.32099-0.23183 0.62416-0.23183 0.30318 0 0.46367 0.14267 0.17834 0.14267 0.17834 0.39234 0 0.428-0.51717 0.71333-0.41017 0.23184-1.07 0.26751-0.44584 0.89167-0.73118 1.6585-0.33884 0.90951-0.49933 1.6942-0.1605 0.76683-0.1605 1.4445 0 1.0165 0.41016 1.5694 0.41018 0.53501 1.177 0.53501 0.32101 0 0.60635-0.0714 0.0535-0.0178 0.12483-0.0357-0.24967-0.62418-0.24967-1.5158 0-0.87384 0.24967-1.712 0.24967-0.85601 0.65984-1.5337 0.428-0.67767 0.94518-1.07 0.53499-0.41018 1.07-0.41018t0.83817 0.46367q0.30318 0.46367 0.30318 1.3018 0 1.1948-0.58851 2.3362-0.4815 0.92734-1.3197 1.7655 0.37451 0.41017 0.99868 0.41017t1.2305-0.3745q0.62417-0.37451 1.1235-0.99867 0.51717-0.64201 0.82034-1.391 0.32101-0.76684 0.32101-1.5158 0-0.51718-0.14268-0.87385-0.14266-0.3745-0.35667-0.642-0.19616-0.28534-0.41016-0.51717-0.19617-0.23184-0.33884-0.4815-0.14267-0.24967-0.14267-0.57068 0-0.44583 0.28534-0.71333 0.28533-0.26751 0.749-0.26751 0.65984 0 0.98084 0.57067 0.32101 0.55284 0.32101 1.6942 0 1.4088-0.44584 2.7285-0.42801 1.3197-1.1948 2.3897-0.74901 1.0522-1.6942 1.6763-0.94518 0.62418-1.9438 0.62418-1.0878 0-1.6942-0.74901-0.46367 0.321-0.92734 0.49933-0.65984 0.24968-1.3554 0.24968zm3.5132-2.1578q0.67767-0.71334 1.0878-1.5694 0.49935-1.0343 0.49935-2.0152 0-0.51718-0.14268-0.78468-0.12483-0.28534-0.3745-0.28534-0.321 0-0.642 0.48151-0.30317 0.46367-0.49934 1.2127-0.19616 0.73117-0.19616 1.5337 0 0.87385 0.2675 1.4267zm11.039 2.1757q-1.4624 0-2.2827-0.92734-0.8025-0.94518-0.8025-2.6037 0-1.2305 0.41017-2.3362 0.428-1.1235 1.1592-1.9795 0.73116-0.87384 1.6763-1.3553 0.96301-0.49934 2.033-0.49934 1.4624 0 2.2827 0.94518 0.82033 0.92734 0.82033 2.5858 0 1.2305-0.428 2.354-0.41017 1.1057-1.1592 1.9617-0.73117 0.856-1.6942 1.3553-0.96302 0.49934-2.0152 0.49934zm0.107-0.64201q0.49934 0 0.96301-0.33884 0.4815-0.33883 0.89167-0.92734 0.41018-0.5885 0.71334-1.3553 0.32101-0.78467 0.49934-1.6585 0.17833-0.87385 0.17833-1.7655 0-1.177-0.321-1.7655-0.321-0.60633-0.92734-0.60633-0.49934 0-0.98084 0.33883-0.46367 0.33884-0.87384 0.92735-0.41017 0.5885-0.73117 1.3553-0.32101 0.76684-0.49935 1.6407-0.17833 0.87385-0.17833 1.7655 0 1.177 0.32101 1.7834 0.32099 0.60633 0.94517 0.60633zm7.5257 0.3745 1.3018-4.5832 0.62417-2.247q0.21401-0.74901 0.0714-1.177-0.12483-0.428-0.62418-0.428-0.39233 0-0.749 0.321-0.33884 0.30316-0.65984 0.89168l-0.33884 0.65983h-0.642l0.41017-0.78468q0.321-0.62416 0.71334-1.0878 0.41017-0.48151 0.89167-0.73117 0.49934-0.26751 1.1057-0.26751 0.80251 0 1.2484 0.37451 0.44584 0.3745 0.55283 1.0343 0.0178 0.0892 0.0178 0.17833 0.46367-0.67767 1.0343-1.0878 0.71334-0.49934 1.5337-0.49934 0.71334 0 1.0878 0.35667 0.37451 0.35668 0.37451 1.0165 0 0.53501-0.23184 1.0343-0.214 0.4815-0.57067 0.78467-0.33884 0.28535-0.74901 0.28535-0.33884 0-0.53501-0.17834-0.17833-0.19617-0.17833-0.51717 0-0.28534 0.14267-0.55284 0.14266-0.28534 0.26751-0.51718 0.14266-0.24966 0.14266-0.46367 0-0.30316-0.46367-0.30316-0.51718 0-1.07 0.39233-0.44582 0.32101-0.78466 0.82034-0.0535 0.39235-0.17834 0.82034l-0.51717 1.8725-1.284 4.5832zm9.8797-4.5832 1.1057-3.9412h-1.9974l0.17833-0.642h1.9974l0.749-2.6929q0.53501-0.0179 1.0343-0.0892 0.49933-0.0714 0.96301-0.19617l-0.82034 2.9782h2.7464l-0.17833 0.642h-2.7464l-1.1057 3.9412-0.62417 2.247q-0.214 0.78467-0.0357 1.177 0.17834 0.39234 0.74902 0.39234 0.46367 0 0.83817-0.30317 0.39234-0.30318 0.73118-0.92734l0.32099-0.62417h0.65984l-0.535 1.0165q-0.28534 0.51717-0.65984 0.94518-0.3745 0.41017-0.87384 0.65983-0.4815 0.24968-1.1235 0.24968-1.2305 0-1.7477-0.82035-0.51717-0.82034-0.14267-2.1578zm12.822 0 0.3745-1.3197q0.33884-1.2483 0.0535-1.8725-0.26751-0.64201-1.1592-0.64201-0.74901 0-1.3732 0.46367-0.39234 0.28534-0.73117 0.76684l-0.73117 2.6037-1.284 4.5832h-1.926l1.284-4.5832 1.8368-6.5806q0.17834-0.62417 0.0892-0.963-0.0714-0.35667-0.48151-0.49934-0.41017-0.16051-1.2662-0.17834l0.19616-0.64201q1.3018-0.0178 2.3362-0.19616 1.0522-0.19617 1.8904-0.53501l-1.7298 6.1882q0.39234-0.48151 0.83818-0.82034 0.856-0.62418 1.9617-0.62418 1.4445 0 1.9974 0.98084 0.57067 0.98084 0.107 2.6572l-0.35667 1.2127-0.62418 2.2648q-0.21399 0.73118-0.0892 1.1592 0.14267 0.428 0.62417 0.428 0.39234 0 0.74901-0.30317 0.35667-0.30316 0.65984-0.9095l0.35666-0.64201h0.64201l-0.41017 0.76684q-0.33883 0.62417-0.73117 1.1057-0.39233 0.46368-0.89168 0.71334-0.4815 0.26751-1.1057 0.26751-0.78467 0-1.2305-0.3745-0.44584-0.37451-0.55284-1.0343-0.0892-0.67768 0.14267-1.5694zm13.018 4.8329q-1.2305 0-1.9438-0.90951-0.71334-0.92734-0.71334-2.5324 0-1.2662 0.41017-2.3897 0.41017-1.1235 1.1057-1.9795 0.71334-0.87384 1.6228-1.3732 0.92734-0.49934 1.9438-0.49934 0.856 0 1.6228 0.37451 0.49934 0.2675 0.92734 0.65983 0.23184-0.12483 0.48151-0.2675 0.5885-0.35667 1.0878-0.82034l0.37452 0.49934q-0.28535 0.24966-0.48152 0.49934-0.17833 0.23184-0.30316 0.535-0.12483 0.28534-0.24967 0.71334l-0.74901 2.6572-0.642 2.247q-0.19617 0.73117-0.0714 1.177 0.14267 0.428 0.62417 0.428 0.39234 0 0.74901-0.30317 0.35667-0.30316 0.65985-0.9095l0.35666-0.65984h0.642l-0.41016 0.78467q-0.33884 0.62417-0.73118 1.1057-0.39233 0.46368-0.89167 0.71334-0.48151 0.26751-1.1057 0.26751-0.78467 0-1.2483-0.3745-0.44584-0.37451-0.53501-1.0522-0.0178-0.0714-0.0178-0.14267-0.39234 0.65984-0.90951 1.0343-0.71334 0.51718-1.605 0.51718zm3.21-4.8329 0.78468-2.782q-0.14267-0.60633-0.44584-0.963-0.41016-0.46367-1.0343-0.46367-0.62417 0-1.1948 0.46367-0.57067 0.44584-1.0343 1.2305-0.44584 0.76684-0.71334 1.7477-0.24967 0.96301-0.24967 2.0152 0 1.2484 0.39233 1.8547 0.41018 0.60634 1.1592 0.60634 0.55284 0 1.0165-0.33884 0.33884-0.23183 0.62417-0.65984 0.0357-0.39233 0.1605-0.83817zm11.271 0 1.8368-6.5806q0.17833-0.62417 0.0892-0.963-0.0714-0.35667-0.48151-0.49934-0.41016-0.16051-1.2662-0.17834l0.19617-0.64201q1.3018-0.0178 2.3362-0.19616 1.0522-0.19617 1.8904-0.53501l-2.675 9.5944-0.62417 2.2648q-0.214 0.73118-0.0892 1.1592 0.14266 0.428 0.62418 0.428 0.39233 0 0.749-0.30317 0.35667-0.30316 0.65984-0.9095l0.35667-0.64201h0.642l-0.41017 0.76684q-0.33883 0.62417-0.73117 1.1057-0.39234 0.46368-0.89167 0.71334-0.4815 0.26751-1.1057 0.26751-0.78468 0-1.2305-0.3745-0.44582-0.37451-0.55283-1.0343-0.0892-0.67768 0.14267-1.5694zm8.3639 2.3005q-0.23184 0.71334-0.1605 1.1414 0.0892 0.41016 0.58851 0.41016 0.39234 0 0.73116-0.30317 0.35668-0.30316 0.67768-0.9095l0.33884-0.65984h0.642l-0.41017 0.78467q-0.32099 0.62417-0.73117 1.1057-0.39233 0.46368-0.87384 0.71334-0.48151 0.26751-1.1057 0.26751-0.78468 0-1.2305-0.35667-0.428-0.37451-0.49933-1.0343-0.0535-0.65984 0.23183-1.5337l1.3732-4.2265q0.24967-0.71335 0.1605-1.1235-0.0892-0.428-0.5885-0.428-0.3745 0-0.73117 0.321-0.35668 0.30316-0.67768 0.89168l-0.33883 0.65983h-0.64201l0.41017-0.78468q0.33884-0.62416 0.73117-1.0878 0.39233-0.48151 0.87385-0.73117 0.49933-0.26751 1.1057-0.26751 0.8025 0 1.2305 0.37451 0.42801 0.3745 0.49933 1.0343 0.0714 0.642-0.23183 1.5337zm1.2662-8.9346q-0.535 0-0.89167-0.33883-0.33884-0.33884-0.33884-0.85601 0-0.55283 0.41017-0.94518 0.428-0.39233 0.99868-0.39233 0.535 0 0.89167 0.33884 0.35667 0.33883 0.35667 0.856 0 0.53501-0.42801 0.94517-0.41016 0.39234-0.99867 0.39234zm5.9029 11.467q-0.99868 0-1.8012-0.28534-0.78467-0.28533-1.2305-0.78468-0.44583-0.51716-0.44583-1.1413 0-0.535 0.28533-0.856 0.30317-0.32101 0.78467-0.32101 0.44584 0 0.67768 0.24967 0.24967 0.24967 0.2675 0.73118 0 0.214-0.0357 0.4815t-0.0357 0.44584q0.0357 0.428 0.39234 0.642 0.3745 0.214 1.0878 0.214 0.98085 0 1.5337-0.41016 0.55283-0.42801 0.55283-1.1592 0-0.51717-0.2675-0.90951-0.2675-0.41017-0.69551-0.73118-0.428-0.33883-0.90951-0.65984-0.4815-0.32099-0.90951-0.67766-0.42799-0.35668-0.71333-0.82035-0.2675-0.4815-0.2675-1.1057 0-1.1592 0.963-1.8725 0.98085-0.71335 2.5145-0.71335 0.92734 0 1.6407 0.26751 0.73118 0.2675 1.1414 0.73117 0.428 0.46367 0.428 1.0343 0 0.46367-0.26749 0.76684-0.24968 0.28533-0.69551 0.28533-0.39234 0-0.64201-0.214-0.24967-0.23184-0.2675-0.62417 0-0.214 0.0357-0.44584 0.0357-0.24966 0.0357-0.39233-0.0357-0.39234-0.3745-0.58851-0.32101-0.19616-0.96301-0.19616-0.82035 0-1.284 0.35666-0.44582 0.35667-0.44582 0.98084 0 0.48151 0.26749 0.87385 0.28534 0.39233 0.71334 0.73117 0.42801 0.321 0.90951 0.65984 0.4815 0.321 0.90951 0.6955t0.69551 0.85602q0.26749 0.4815 0.26749 1.1057 0 0.83818-0.49933 1.4623-0.49933 0.62417-1.3732 0.98085-0.856 0.35667-1.9795 0.35667zm7.6327-4.8329 1.1057-3.9412h-1.9974l0.17834-0.642h1.9973l0.74901-2.6929q0.53501-0.0179 1.0344-0.0892 0.49933-0.0714 0.963-0.19617l-0.82034 2.9782h2.7464l-0.17833 0.642h-2.7464l-1.1057 3.9412-0.62417 2.247q-0.214 0.78467-0.0357 1.177 0.17834 0.39234 0.74901 0.39234 0.46367 0 0.83817-0.30317 0.39234-0.30318 0.73117-0.92734l0.32101-0.62417h0.65984l-0.53501 1.0165q-0.28533 0.51717-0.65983 0.94518-0.37451 0.41017-0.87385 0.65983-0.4815 0.24968-1.1235 0.24968-1.2305 0-1.7477-0.82035-0.51717-0.82034-0.14266-2.1578zm9.3448 4.8329q-1.4267 0-2.2292-0.89168-0.8025-0.90951-0.8025-2.5324 0-1.2484 0.428-2.3719 0.44584-1.1235 1.2127-1.9974 0.76684-0.89167 1.7477-1.391t2.0687-0.49934q1.0165 0 1.5515 0.44584 0.55284 0.428 0.55284 1.2662 0 0.94518-0.73117 1.819-0.71335 0.85601-2.0152 1.5158-1.2305 0.64201-2.8534 1.0165 0 0.0178 0 0.0357 0 1.2662 0.4815 1.9438 0.48151 0.65984 1.3732 0.65984 0.71335 0 1.3018-0.428 0.60634-0.44584 1.0878-1.3375h0.62418q-0.62418 1.3554-1.5872 2.0508-0.96302 0.69551-2.2114 0.69551zm-1.0344-4.173q1.1592-0.3745 1.9974-0.90951 0.90951-0.58851 1.391-1.3197 0.49934-0.74901 0.49934-1.5872 0-0.53501-0.214-0.8025-0.19617-0.2675-0.57067-0.2675-0.55284 0-1.1057 0.49933-0.55284 0.4815-1.0165 1.284-0.44584 0.80251-0.73117 1.7655-0.19617 0.65983-0.24967 1.3375zm14.73-0.65984 0.35667-1.3018q0.35667-1.2662 0.0714-1.8903-0.28534-0.64201-1.177-0.64201-0.80251 0-1.4623 0.51717-0.37451 0.28534-0.71335 0.74901-0.0535 0.321-0.16049 0.6955l-0.51717 1.8725-1.284 4.5832h-1.9438l1.3018-4.5832 0.62417-2.247q0.214-0.74901 0.0714-1.177-0.12484-0.428-0.62418-0.428-0.39233 0-0.749 0.321-0.33884 0.30316-0.65984 0.89168l-0.33884 0.65983h-0.642l0.41016-0.78468q0.32101-0.62416 0.71334-1.0878 0.41018-0.48151 0.89168-0.73117 0.49933-0.26751 1.1057-0.26751 0.80251 0 1.2483 0.37451 0.44584 0.3745 0.55283 1.0343 0.0178 0.14267 0.0357 0.28533 0.44584-0.62417 0.963-1.0165 0.90951-0.67767 2.0687-0.67767 1.4445 0 2.0152 0.98084 0.5885 0.98084 0.107 2.675l-0.33884 1.1948-0.64201 2.2648q-0.19617 0.73118-0.0714 1.1592 0.14268 0.428 0.62418 0.428 0.39233 0 0.73117-0.30317 0.35667-0.30316 0.67767-0.9095l0.33884-0.64201h0.65984l-0.41017 0.76684q-0.33884 0.62417-0.73117 1.1057-0.39233 0.46368-0.89168 0.71334-0.4815 0.26751-1.1057 0.26751-0.78467 0-1.2483-0.3745-0.44584-0.37451-0.55284-1.0343-0.0892-0.67768 0.16049-1.5694zm6.4557 4.8329q-0.57068 0-0.96301-0.35667-0.37451-0.35668-0.37451-0.90951 0-0.60634 0.44584-1.0165 0.44584-0.428 1.0878-0.428 0.60633 0 0.98083 0.35666 0.37451 0.35667 0.37451 0.90951 0 0.60634-0.44583 1.0343-0.44584 0.41018-1.1057 0.41018z"
  />
</svg>
