<svg
  version="1.1"
  viewBox="0 0 422.11 46.559"
  xmlns="http://www.w3.org/2000/svg"
>
  <path
    id="wordmark"
    fill="currentColor"
    d="m32.544 3.5513v0.96q-1.44 0.288-2.208 1.008-0.72 0.72-0.96 2.256-0.24 1.488-0.24 4.224v25.536q-0.72-0.096-1.584-0.096-0.816 0-1.776 0.096l-21.264-23.232v13.824q0 3.216 0.24 4.944 0.288 1.68 1.296 2.448 1.056 0.72 3.312 1.056v0.96q-0.96-0.096-2.496-0.096-1.536-0.048-2.88-0.048-1.056 0-2.16 0.048-1.104 0-1.824 0.096v-0.96q1.488-0.336 2.208-1.008 0.72-0.72 0.96-2.256t0.24-4.224v-20.448q0-1.776-0.24-2.592-0.24-0.864-1.008-1.152-0.72-0.336-2.16-0.384v-0.96q0.72 0.048 1.824 0.096t2.16 0.048q1.2 0 2.352-0.048t2.064-0.096l19.632 20.736v-11.328q0-3.216-0.288-4.896-0.24-1.728-1.248-2.496t-3.312-1.056v-0.96q0.96 0.048 2.496 0.096t2.88 0.048q1.104 0 2.16-0.048 1.104-0.048 1.824-0.096zm13.968 8.4q3.744 0 6.48 1.296 2.784 1.248 4.32 4.128t1.536 7.728-1.536 7.728-4.32 4.128q-2.736 1.248-6.48 1.248-3.696 0-6.48-1.248t-4.32-4.128-1.536-7.728 1.536-7.728 4.32-4.128q2.784-1.296 6.48-1.296zm0 0.96q-1.44 0-2.4 2.88t-0.96 9.312 0.96 9.312q0.96 2.832 2.4 2.832t2.4-2.832q0.96-2.88 0.96-9.312t-0.96-9.312-2.4-2.88zm27.312-0.288v1.008q-1.008 0-1.728 0.144-0.672 0.096-0.912 0.48t-0.048 1.2l3.984 13.296 4.128-16.08h0.048q1.248 0.096 2.544 0.096 1.296-0.048 2.544-0.096l5.472 17.568 2.064-6.864q1.008-3.312 0.768-5.376-0.24-2.112-1.296-3.168t-2.592-1.2v-1.008q0.672 0.048 1.728 0.096 1.104 0.048 2.16 0.096 1.056 0 1.632 0 0.864 0 2.016-0.048t1.68-0.144v1.008q-0.912 0.336-1.776 1.296t-1.632 3.36l-6 19.248q-1.152-0.096-2.352-0.096-1.152 0-2.304 0.096l-5.712-16.608-4.368 16.608q-1.152-0.096-2.352-0.096-1.152 0-2.304 0.096l-7.392-21.216q-0.672-1.92-1.488-2.304-0.768-0.384-1.296-0.384v-1.008q1.92 0.144 3.984 0.24 2.064 0.048 4.56 0.048 1.488 0 3.12-0.096 1.68-0.096 3.12-0.192zm34.656-9.072q1.392 0.048 3.648 0.096 2.304 0.048 4.608 0.048 2.4 0 4.608-0.048t3.12-0.048q7.296 0 10.848 2.64 3.6 2.64 3.6 6.816 0 1.728-0.72 3.648-0.72 1.872-2.448 3.504-1.728 1.584-4.752 2.592-2.976 1.008-7.584 1.008h-1.776v8.16q0 1.968 0.384 2.928 0.432 0.96 1.584 1.248t3.36 0.288v1.104q-1.632-0.048-4.272-0.096t-5.616-0.048q-2.208 0-4.416 0.048t-4.176 0.096v-0.96q1.488-0.096 2.208-0.384t0.96-1.152 0.24-2.592v-23.808q0-1.776-0.24-2.592-0.24-0.864-1.008-1.152-0.72-0.336-2.16-0.384zm13.152 19.296h1.296q2.448 0 3.696-1.296 1.296-1.296 1.728-3.408 0.48-2.112 0.48-4.56 0-4.56-1.056-6.816-1.008-2.256-3.552-2.256-1.632 0-2.112 0.816t-0.48 3.312zm29.712-22.848v33.072q0 2.016 0.576 2.736 0.624 0.72 2.112 0.72v1.008q-0.96-0.048-2.88-0.096-1.92-0.096-3.936-0.096t-4.08 0.096q-2.064 0.048-3.12 0.096v-1.008q1.488 0 2.064-0.72 0.624-0.72 0.624-2.736v-27.312q0-2.16-0.576-3.168-0.576-1.056-2.112-1.056v-1.008q1.536 0.144 2.976 0.144 2.4 0 4.464-0.144 2.112-0.192 3.888-0.528zm11.04 37.872q-2.256 0-3.696-0.864t-2.112-2.256q-0.624-1.392-0.624-2.928 0-2.016 0.912-3.264 0.912-1.296 2.352-2.064 1.488-0.816 3.12-1.344t3.072-1.008q1.488-0.528 2.4-1.2 0.912-0.72 0.912-1.824v-4.272q0-0.768-0.288-1.68-0.24-0.912-0.96-1.584t-2.16-0.672q-0.768 0-1.488 0.24-0.672 0.192-1.2 0.576 1.68 0.624 2.448 1.776 0.768 1.104 0.768 2.448 0 1.92-1.344 3.024t-3.168 1.104q-1.92 0-2.976-1.2t-1.056-2.976q0-1.488 0.72-2.496 0.768-1.056 2.256-1.92 1.44-0.816 3.456-1.152 2.016-0.384 4.224-0.384 2.352 0 4.368 0.48 2.016 0.432 3.456 1.92 1.008 1.056 1.296 2.64t0.288 4.08v12.864q0 1.2 0.144 1.632 0.192 0.432 0.624 0.432 0.384 0 0.72-0.24 0.384-0.24 0.72-0.48l0.48 0.816q-1.056 0.912-2.64 1.344-1.536 0.432-3.264 0.432-2.064 0-3.216-0.48-1.104-0.528-1.584-1.344-0.432-0.864-0.48-1.824-1.008 1.584-2.544 2.64-1.488 1.008-3.936 1.008zm4.56-3.84q0.528 0 0.912-0.144 0.432-0.192 0.864-0.672v-10.128q-0.336 0.624-0.912 1.248-0.528 0.576-1.104 1.2t-1.104 1.344q-0.48 0.72-0.816 1.68-0.288 0.912-0.288 2.16 0 1.824 0.672 2.592 0.72 0.72 1.776 0.72zm38.112-21.408v1.008q-0.912 0.336-1.776 1.344-0.816 0.96-1.632 3.312l-6 17.856-2.016 5.808q-0.432 1.2-0.96 2.064-0.48 0.864-1.152 1.392-0.624 0.48-1.68 0.816-1.008 0.336-2.784 0.336-1.344 0-2.88-0.432-1.488-0.432-2.592-1.44-1.056-0.96-1.056-2.64t1.296-2.688 3.408-1.008q1.968 0 3.12 0.864 1.2 0.912 1.2 2.688 0 1.056-0.768 2.112-0.72 1.056-2.352 1.584 0.384 0.048 0.864 0.048 0.48 0.048 0.768 0.048 1.536 0 2.736-0.96 1.2-0.912 1.824-2.88l0.24-0.816-11.184-24.72q-0.816-1.824-1.536-2.256t-1.248-0.432v-1.008q1.92 0.144 3.984 0.24 2.064 0.048 3.84 0.048 2.256 0 3.888-0.096t3.072-0.192v1.008q-0.864 0-1.632 0.096t-1.104 0.48q-0.336 0.336 0.048 1.248l5.904 14.064 2.016-6.144q1.104-3.264 0.912-5.376-0.144-2.112-1.104-3.168-0.96-1.104-2.4-1.2v-1.008q0.672 0.048 1.632 0.096t1.872 0.096q0.96 0 1.536 0 0.864 0 2.016-0.048t1.68-0.144zm7.92-12.624q2.496 0 3.84 1.056 1.392 1.008 1.392 3.072t-1.392 3.12q-1.344 1.008-3.84 1.008t-3.888-1.008q-1.344-1.056-1.344-3.12t1.344-3.072q1.392-1.056 3.888-1.056zm4.608 12.096v20.976q0 2.016 0.576 2.736 0.624 0.72 2.112 0.72v1.008q-0.96-0.048-2.88-0.096-1.92-0.096-3.936-0.096t-4.08 0.096q-2.064 0.048-3.12 0.096v-1.008q1.488 0 2.064-0.72 0.624-0.72 0.624-2.736v-15.216q0-2.16-0.576-3.168-0.576-1.056-2.112-1.056v-1.008q1.536 0.144 2.976 0.144 2.4 0 4.464-0.144 2.112-0.192 3.888-0.528zm23.472-0.144q2.208 0 3.456 0.576 1.296 0.528 1.968 1.344 0.72 0.864 1.056 2.304t0.336 3.888v13.008q0 2.016 0.576 2.736 0.624 0.72 2.112 0.72v1.008q-0.96-0.048-2.928-0.096-1.92-0.096-3.792-0.096-2.016 0-3.936 0.096-1.92 0.048-2.88 0.096v-1.008q1.248 0 1.728-0.72t0.48-2.736v-15.6q0-1.008-0.24-1.68t-0.768-1.008q-0.48-0.336-1.344-0.336t-1.68 0.432q-0.768 0.432-1.296 1.248-0.48 0.768-0.48 1.776v15.168q0 2.016 0.48 2.736 0.528 0.72 1.728 0.72v1.008q-0.912-0.048-2.688-0.096-1.776-0.096-3.648-0.096-2.016 0-4.08 0.096-2.064 0.048-3.12 0.096v-1.008q1.488 0 2.064-0.72 0.624-0.72 0.624-2.736v-15.216q0-2.16-0.576-3.168-0.576-1.056-2.112-1.056v-1.008q1.536 0.144 2.976 0.144 2.4 0 4.464-0.144 2.112-0.192 3.888-0.528v3.456q1.152-1.92 3.072-2.736 1.968-0.864 4.56-0.864zm20.4 34.608q-3.264 0-5.664-0.528-2.352-0.48-3.648-1.44-1.296-0.912-1.296-2.256t1.344-2.544q1.344-1.152 4.272-1.824l0.48 0.768q-0.768 0.912-1.056 1.632-0.24 0.768-0.24 1.44 0 1.872 1.68 2.88 1.728 1.056 4.8 1.056 2.16 0 3.6-0.624 1.488-0.576 2.208-1.632 0.768-1.056 0.768-2.4t-1.008-2.304-4.08-0.96h-2.592q-2.208 0-3.696-0.576t-2.256-1.584q-0.768-1.056-0.768-2.448 0-2.256 1.776-3.792 1.44-1.248 3.552-2.256-1.488-0.24-2.784-0.672-2.352-0.816-3.696-2.496-1.344-1.728-1.344-4.368t1.344-4.32q1.344-1.728 3.648-2.544 2.352-0.816 5.328-0.816t5.328 0.816q1.392 0.48 2.448 1.296 0.576-0.816 1.44-1.488 1.584-1.2 3.504-1.2 1.68 0 2.496 0.912t0.816 2.256q0 1.392-0.768 2.16-0.72 0.768-1.776 0.768-0.912 0-1.68-0.624-0.72-0.624-0.816-1.872-0.096-1.056 0.672-2.64-1.392 0.576-2.208 1.344-0.48 0.48-0.912 1.104 0.24 0.24 0.432 0.48 1.344 1.728 1.344 4.368t-1.344 4.368q-1.344 1.68-3.696 2.496-2.304 0.816-5.28 0.816-0.672 0-1.344-0.048-0.336 0.288-0.72 0.624-0.528 0.48-0.528 1.392 0 1.536 1.728 1.536h4.656q3.12 0 5.424 0.672 2.352 0.672 3.648 2.208 1.344 1.488 1.344 3.936 0 2.4-1.584 4.416-1.536 2.064-4.8 3.264-3.264 1.248-8.496 1.248zm0.672-20.112q0.912 0 1.44-1.488t0.528-5.328-0.528-5.328-1.44-1.488-1.44 1.488-0.528 5.328 0.528 5.328 1.44 1.488zm63.984 9.36 0.912 0.24q-0.24 3.072-1.104 5.376t-2.4 3.456q-1.056 0.816-2.688 1.248t-3.312 0.432q-2.688 0-5.328-0.816-2.592-0.768-5.232-1.968-2.592-1.152-5.376-2.304-0.288-0.096-0.624-0.24-0.336-0.096-0.528-0.096-0.912 0.528-2.016 0.864-1.056 0.336-2.016 0.336t-1.632-0.336q-0.624-0.336-0.624-1.104 0-1.488 2.64-1.488 1.68 0 3.648 0.864 1.824-0.48 3.168-1.104 1.248-0.576 2.64-1.056-3.888-0.384-7.008-1.968-4.08-2.064-6.336-5.952t-2.256-9.36q0-5.376 2.304-9.408 2.352-4.032 6.432-6.288t9.408-2.256q5.424 0 9.504 2.064t6.336 5.952q2.256 3.84 2.256 9.36 0 5.376-2.304 9.408t-6.384 6.288q-3.888 2.112-8.88 2.256-1.296 0.144-2.256 0.48-1.152 0.432-2.304 0.912-1.104 0.48-2.64 0.912 4.128 0.096 7.104 0.144 3.024 0.096 5.376-0.048 2.4-0.144 4.56-0.576 2.64-0.576 4.176-1.488 1.584-0.912 2.784-2.736zm-17.52-32.064q-2.4 0-4.176 2.16t-2.736 5.952q-0.96 3.792-0.96 8.784 0 5.088 1.104 8.88 1.104 3.744 2.976 5.808 1.872 2.016 4.128 2.016 2.4 0 4.176-2.16t2.736-5.952q0.96-3.84 0.96-8.784 0-5.136-1.104-8.88-1.104-3.744-2.976-5.76-1.872-2.064-4.128-2.064zm46.32 8.352v20.208q0 2.16 0.576 3.216 0.624 1.008 2.112 1.008v1.008q-1.488-0.144-2.976-0.144-2.4 0-4.464 0.144t-3.888 0.528v-3.456q-1.152 1.92-3.12 2.784-1.92 0.816-4.512 0.816-2.208 0-3.504-0.576-1.248-0.528-1.92-1.344-0.72-0.864-1.056-2.304t-0.336-3.888v-12.24q0-2.16-0.576-3.168-0.576-1.056-2.112-1.056v-1.008q1.536 0.144 2.976 0.144 2.4 0 4.464-0.144 2.112-0.192 3.888-0.528v20.592q0 1.008 0.24 1.68t0.768 1.008 1.344 0.336q0.912 0 1.68-0.432t1.248-1.2q0.528-0.816 0.528-1.824v-14.4q0-2.16-0.576-3.168-0.576-1.056-2.112-1.056v-1.008q1.536 0.144 2.976 0.144 2.4 0 4.464-0.144 2.112-0.192 3.888-0.528zm17.376-0.144q4.224 0 6.624 2.496 2.448 2.448 2.448 8.256h-12.384q-0.048 0.336-0.048 0.72v1.008q0 3.36 0.816 5.232 0.864 1.872 2.112 2.592 1.296 0.72 2.592 0.72 0.672 0 1.584-0.192 0.96-0.192 2.064-0.864 1.104-0.72 2.16-2.16l0.816 0.288q-0.576 1.92-1.872 3.84-1.248 1.872-3.264 3.12-2.016 1.2-4.896 1.2-3.072 0-5.616-1.248-2.496-1.248-3.984-4.128t-1.488-7.728q0-4.608 1.632-7.488 1.632-2.928 4.416-4.272 2.832-1.392 6.288-1.392zm-3.504 9.84h5.568q0.048-2.352-0.192-4.32-0.24-2.016-0.768-3.216t-1.44-1.2q-1.296 0-2.112 2.016t-1.056 6.72zm24.912-9.84q2.112 0 3.696 0.48 1.632 0.432 2.352 0.816 0.768 0.432 1.248 0.24 0.624-0.24 0.816-1.488h0.96q-0.096 1.392-0.144 3.408-0.048 1.968-0.048 5.232h-0.96q-0.192-1.776-0.864-3.504-0.624-1.728-1.872-2.88-1.2-1.152-3.168-1.152-1.2 0-2.016 0.72t-0.816 1.968q0 1.44 0.864 2.592 0.864 1.104 2.208 2.16 1.344 1.008 2.688 2.16 1.488 1.2 2.64 2.352t1.824 2.544q0.72 1.344 0.72 3.216 0 2.16-1.344 3.84-1.296 1.68-3.504 2.64-2.16 0.912-4.848 0.912-1.68 0-2.928-0.384-1.248-0.336-2.016-0.816-0.768-0.384-1.344-0.576-0.528-0.24-1.056-0.24-0.48 0-0.816 0.528-0.336 0.48-0.528 1.152h-0.96q0.096-1.536 0.144-3.744t0.048-5.856h0.96q0.288 2.544 1.104 4.512 0.864 1.968 2.16 3.12 1.344 1.104 3.072 1.104 0.768 0 1.392-0.288t1.008-0.864 0.384-1.488q0-2.112-1.296-3.552-1.248-1.44-3.168-3.168-1.44-1.344-2.736-2.592-1.248-1.296-2.064-2.784-0.816-1.536-0.816-3.408 0-2.16 1.248-3.696 1.296-1.536 3.36-2.352 2.064-0.864 4.416-0.864zm23.664-7.104v7.776h4.704v0.96h-4.704v19.92q0 0.912 0.336 1.344 0.336 0.384 1.104 0.384 0.528 0 1.248-0.288 0.72-0.336 1.344-1.104l0.72 0.576q-1.008 1.728-2.688 2.784-1.632 1.008-4.128 1.008-1.584 0-2.88-0.432-1.248-0.384-2.064-1.2-1.056-1.056-1.344-2.592-0.288-1.584-0.288-4.08v-16.32h-3.648v-0.96h3.648v-5.664q2.544 0 4.608-0.48 2.112-0.528 4.032-1.632z"
    stroke-width="4.4032"
  />
</svg>
