<svg viewBox="0 0 400 44.121" xmlns="http://www.w3.org/2000/svg">
  <path
    id="wordmark"
    fill="currentColor"
    d="m30.839 3.3659v0.90971q-1.3646 0.27292-2.0923 0.9552-0.68228 0.68228-0.90971 2.1378-0.22743 1.4101-0.22743 4.0027v24.198q-0.68228-0.091-1.501-0.091-0.77326 0-1.683 0.091l-20.15-22.015v13.1q0 3.0475 0.22743 4.685 0.27291 1.592 1.2281 2.3198 1.0007 0.68229 3.1385 1.0007v0.90971q-0.90971-0.091-2.3652-0.091-1.4555-0.0455-2.7291-0.0455-1.0007 0-2.0468 0.0455-1.0462 0-1.7285 0.091v-0.90971q1.4101-0.3184 2.0923-0.9552 0.68228-0.68229 0.90971-2.1378 0.22743-1.4555 0.22743-4.0027v-19.377q0-1.683-0.22743-2.4562-0.22743-0.81874-0.9552-1.0916-0.68228-0.3184-2.0469-0.36389v-0.90971q0.68228 0.0455 1.7285 0.091t2.0468 0.0455q1.1371 0 2.2288-0.0455 1.0917-0.0455 1.9559-0.091l18.604 19.65v-10.735q0-3.0475-0.27291-4.6395-0.22743-1.6375-1.1826-2.3652t-3.1385-1.0007v-0.90971q0.90971 0.0455 2.3652 0.091 1.4555 0.0455 2.7291 0.0455 1.0462 0 2.0468-0.0455 1.0462-0.0455 1.7285-0.091zm13.236 7.96q3.5479 0 6.1406 1.2281 2.6382 1.1826 4.0937 3.9118 1.4555 2.7291 1.4555 7.3232 0 4.594-1.4555 7.3232t-4.0937 3.9118q-2.5927 1.1826-6.1406 1.1826-3.5024 0-6.1406-1.1826-2.6382-1.1826-4.0937-3.9118-1.4555-2.7291-1.4555-7.3232 0-4.594 1.4555-7.3232 1.4555-2.7291 4.0937-3.9118 2.6382-1.2281 6.1406-1.2281zm0 0.90971q-1.3646 0-2.2743 2.7291-0.90971 2.7291-0.90971 8.8242 0 6.0951 0.90971 8.8242 0.90971 2.6836 2.2743 2.6836t2.2743-2.6836q0.90971-2.7291 0.90971-8.8242 0-6.0951-0.90971-8.8242-0.90971-2.7291-2.2743-2.7291zm25.881-0.27291v0.95519q-0.9552 0-1.6375 0.13646-0.6368 0.091-0.86423 0.45485-0.22743 0.36389-0.0455 1.1371l3.7753 12.6 3.9118-15.238h0.0455q1.1826 0.091 2.4107 0.091 1.2281-0.0455 2.4107-0.091l5.1854 16.648 1.9559-6.5044q0.9552-3.1385 0.72777-5.0944-0.22743-2.0014-1.2281-3.002-1.0007-1.0007-2.4562-1.1371v-0.95519q0.63679 0.0455 1.6375 0.091 1.0462 0.0455 2.0468 0.091 1.0007 0 1.5465 0 0.81874 0 1.9104-0.0455t1.592-0.13645v0.95519q-0.86423 0.3184-1.683 1.2281t-1.5465 3.184l-5.6857 18.24q-1.0916-0.091-2.2288-0.091-1.0916 0-2.1833 0.091l-5.4128-15.738-4.1392 15.738q-1.0916-0.091-2.2288-0.091-1.0916 0-2.1833 0.091l-7.0048-20.105q-0.6368-1.8194-1.4101-2.1833-0.72777-0.36389-1.2281-0.36389v-0.95519q1.8194 0.13645 3.7753 0.22742 1.9559 0.0455 4.3211 0.0455 1.4101 0 2.9566-0.091 1.592-0.091 2.9566-0.18194zm32.841-8.5968q1.3191 0.0455 3.4569 0.091 2.1833 0.0455 4.3666 0.0455 2.2743 0 4.3666-0.0455 2.0923-0.0455 2.9566-0.0455 6.9138 0 10.28 2.5017 3.4114 2.5017 3.4114 6.459 0 1.6375-0.68228 3.4569-0.68228 1.7739-2.3198 3.3204-1.6375 1.501-4.5031 2.4562-2.8201 0.95519-7.1867 0.95519h-1.683v7.7326q0 1.8649 0.36388 2.7746 0.40937 0.90971 1.501 1.1826 1.0916 0.27291 3.184 0.27291v1.0462q-1.5465-0.0455-4.0482-0.091-2.5017-0.0455-5.3218-0.0455-2.0923 0-4.1847 0.0455-2.0923 0.0455-3.9572 0.091v-0.90971q1.4101-0.091 2.0923-0.36389 0.68228-0.27291 0.90971-1.0916t0.22743-2.4562v-22.561q0-1.683-0.22743-2.4562-0.22743-0.81874-0.9552-1.0916-0.68228-0.3184-2.0468-0.36389zm12.463 18.285h1.2281q2.3198 0 3.5024-1.2281 1.2281-1.2281 1.6375-3.2295 0.45485-2.0014 0.45485-4.3211 0-4.3211-1.0007-6.459-0.95519-2.1378-3.3659-2.1378-1.5465 0-2.0014 0.77326-0.45485 0.77325-0.45485 3.1385zm28.156-21.651v31.34q0 1.9104 0.54583 2.5927 0.59131 0.68228 2.0014 0.68228v0.9552q-0.90971-0.0455-2.7291-0.091-1.8194-0.091-3.7298-0.091t-3.8663 0.091q-1.9559 0.0455-2.9566 0.091v-0.9552q1.4101 0 1.9559-0.68228 0.59132-0.68229 0.59132-2.5927v-25.881q0-2.0468-0.54583-3.002-0.54583-1.0007-2.0014-1.0007v-0.9552q1.4555 0.13646 2.8201 0.13646 2.2743 0 4.2302-0.13646 2.0014-0.18194 3.6843-0.50034zm10.462 35.888q-2.1378 0-3.5024-0.81874-1.3646-0.81874-2.0014-2.1378-0.59131-1.3191-0.59131-2.7746 0-1.9104 0.86422-3.093 0.86423-1.2281 2.2288-1.9559 1.4101-0.77326 2.9566-1.2736t2.9111-0.9552q1.4101-0.50034 2.2743-1.1371 0.86423-0.68228 0.86423-1.7284v-4.0482q0-0.72777-0.27292-1.592-0.22742-0.86423-0.90971-1.501-0.68228-0.6368-2.0468-0.6368-0.72777 0-1.41 0.22743-0.6368 0.18194-1.1371 0.54582 1.592 0.59132 2.3198 1.683 0.72777 1.0462 0.72777 2.3198 0 1.8194-1.2736 2.8656-1.2736 1.0462-3.002 1.0462-1.8194 0-2.8201-1.1371-1.0007-1.1371-1.0007-2.8201 0-1.41 0.68228-2.3652 0.72777-1.0007 2.1378-1.8194 1.3646-0.77326 3.275-1.0917 1.9104-0.36388 4.0027-0.36388 2.2288 0 4.1392 0.45485 1.9104 0.40937 3.275 1.8194 0.95519 1.0007 1.2281 2.5017 0.27291 1.501 0.27291 3.8663v12.19q0 1.1371 0.13646 1.5465 0.18194 0.40937 0.59131 0.40937 0.36388 0 0.68228-0.22743 0.36389-0.22743 0.68229-0.45486l0.45485 0.77326q-1.0007 0.86423-2.5017 1.2736-1.4555 0.40937-3.093 0.40937-1.9559 0-3.0475-0.45486-1.0462-0.50034-1.501-1.2736-0.40937-0.81874-0.45486-1.7284-0.95519 1.501-2.4107 2.5017-1.41 0.9552-3.7298 0.9552zm4.3211-3.6388q0.50034 0 0.86423-0.13646 0.40937-0.18194 0.81874-0.63679v-9.5975q-0.3184 0.59131-0.86423 1.1826-0.50034 0.54583-1.0462 1.1371-0.54582 0.59132-1.0462 1.2736-0.45485 0.68228-0.77325 1.592-0.27291 0.86423-0.27291 2.0469 0 1.7284 0.63679 2.4562 0.68229 0.68228 1.683 0.68228zm36.116-20.287v0.95519q-0.86422 0.3184-1.683 1.2736-0.77326 0.90971-1.5465 3.1385l-5.6857 16.921-1.9104 5.5038q-0.40937 1.1371-0.90971 1.9559-0.45486 0.81874-1.0917 1.3191-0.59131 0.45486-1.592 0.77325-0.9552 0.3184-2.6382 0.3184-1.2736 0-2.7291-0.40937-1.41-0.40937-2.4562-1.3646-1.0007-0.90971-1.0007-2.5017 0-1.592 1.2281-2.5472t3.2295-0.9552q1.8649 0 2.9566 0.81874 1.1371 0.86423 1.1371 2.5472 0 1.0007-0.72777 2.0014-0.68228 1.0007-2.2288 1.501 0.36389 0.0455 0.81874 0.0455 0.45486 0.0455 0.72777 0.0455 1.4555 0 2.5927-0.90971 1.1371-0.86422 1.7284-2.7291l0.22743-0.77326-10.598-23.425q-0.77325-1.7284-1.4555-2.1378-0.68228-0.40937-1.1826-0.40937v-0.95519q1.8194 0.13645 3.7753 0.22742 1.9559 0.0455 3.6388 0.0455 2.1378 0 3.6843-0.091t2.9111-0.18194v0.95519q-0.81874 0-1.5465 0.091t-1.0462 0.45486q-0.3184 0.3184 0.0455 1.1826l5.5947 13.327 1.9104-5.8222q1.0462-3.093 0.86423-5.0944-0.13646-2.0014-1.0462-3.002-0.90971-1.0462-2.2743-1.1371v-0.95519q0.6368 0.0455 1.5465 0.091t1.7739 0.091q0.90971 0 1.4555 0 0.81874 0 1.9104-0.0455 1.0916-0.0455 1.592-0.13645zm7.5051-11.963q2.3652 0 3.6388 1.0007 1.3191 0.9552 1.3191 2.9111t-1.3191 2.9566q-1.2736 0.9552-3.6388 0.9552t-3.6843-0.9552q-1.2736-1.0007-1.2736-2.9566t1.2736-2.9111q1.3191-1.0007 3.6843-1.0007zm4.3666 11.462v19.877q0 1.9104 0.54583 2.5927 0.59131 0.68228 2.0014 0.68228v0.9552q-0.90971-0.0455-2.7291-0.091-1.8194-0.091-3.7298-0.091t-3.8663 0.091q-1.9559 0.0455-2.9566 0.091v-0.9552q1.4101 0 1.9559-0.68228 0.59132-0.68229 0.59132-2.5927v-14.419q0-2.0468-0.54583-3.002-0.54583-1.0007-2.0014-1.0007v-0.95519q1.4555 0.13645 2.8201 0.13645 2.2743 0 4.2302-0.13645 2.0014-0.18195 3.6843-0.50035zm22.242-0.13645q2.0923 0 3.275 0.54582 1.2281 0.50035 1.8649 1.2736 0.68229 0.81874 1.0007 2.1833 0.31839 1.3646 0.31839 3.6843v12.327q0 1.9104 0.54583 2.5927 0.59131 0.68228 2.0014 0.68228v0.9552q-0.90971-0.0455-2.7746-0.091-1.8194-0.091-3.5934-0.091-1.9104 0-3.7298 0.091-1.8194 0.0455-2.7291 0.091v-0.9552q1.1826 0 1.6375-0.68228 0.45485-0.68229 0.45485-2.5927v-14.783q0-0.9552-0.22743-1.592-0.22742-0.6368-0.72776-0.95519-0.45486-0.3184-1.2736-0.3184t-1.592 0.40937q-0.72777 0.40937-1.2281 1.1826-0.45485 0.72777-0.45485 1.683v14.373q0 1.9104 0.45485 2.5927 0.50034 0.68228 1.6375 0.68228v0.9552q-0.86422-0.0455-2.5472-0.091-1.683-0.091-3.4569-0.091-1.9104 0-3.8663 0.091-1.9559 0.0455-2.9566 0.091v-0.9552q1.4101 0 1.9559-0.68228 0.59132-0.68229 0.59132-2.5927v-14.419q0-2.0468-0.54583-3.002-0.54583-1.0007-2.0014-1.0007v-0.95519q1.4555 0.13645 2.8201 0.13645 2.2743 0 4.2302-0.13645 2.0014-0.18195 3.6843-0.50035v3.275q1.0916-1.8194 2.9111-2.5927 1.8649-0.81874 4.3211-0.81874zm19.331 32.795q-3.093 0-5.3673-0.50034-2.2288-0.45485-3.4569-1.3646-1.2281-0.86423-1.2281-2.1378 0-1.2736 1.2736-2.4107 1.2736-1.0917 4.0482-1.7284l0.45486 0.72777q-0.72777 0.86422-1.0007 1.5465-0.22742 0.72776-0.22742 1.3646 0 1.7739 1.592 2.7291 1.6375 1.0007 4.5486 1.0007 2.0468 0 3.4114-0.59131 1.41-0.54583 2.0923-1.5465 0.72777-1.0007 0.72777-2.2743 0-1.2736-0.9552-2.1833-0.95519-0.90971-3.8663-0.90971h-2.4562q-2.0923 0-3.5024-0.54583-1.41-0.54582-2.1378-1.501-0.72777-1.0007-0.72777-2.3198 0-2.1378 1.683-3.5934 1.3646-1.1826 3.3659-2.1378-1.4101-0.22742-2.6382-0.63679-2.2288-0.77326-3.5024-2.3652-1.2736-1.6375-1.2736-4.1392 0-2.5017 1.2736-4.0937 1.2736-1.6375 3.4569-2.4107 2.2288-0.77325 5.0489-0.77325 2.8201 0 5.0489 0.77325 1.3191 0.45486 2.3198 1.2281 0.54583-0.77325 1.3646-1.41 1.501-1.1371 3.3204-1.1371 1.592 0 2.3652 0.86423 0.77326 0.86422 0.77326 2.1378 0 1.3191-0.72777 2.0468-0.68228 0.72777-1.683 0.72777-0.86422 0-1.592-0.59131-0.68229-0.59132-0.77326-1.7739-0.091-1.0007 0.6368-2.5017-1.3191 0.54583-2.0923 1.2736-0.45485 0.45485-0.86422 1.0462 0.22743 0.22742 0.40937 0.45485 1.2736 1.6375 1.2736 4.1392 0 2.5017-1.2736 4.1392-1.2736 1.592-3.5024 2.3652-2.1833 0.77325-5.0034 0.77325-0.6368 0-1.2736-0.0455-0.3184 0.27292-0.68228 0.59132-0.50034 0.45485-0.50034 1.3191 0 1.4555 1.6375 1.4555h4.4121q2.9566 0 5.1399 0.63679 2.2288 0.6368 3.4569 2.0923 1.2736 1.41 1.2736 3.7298 0 2.2743-1.501 4.1847-1.4555 1.9559-4.5486 3.093-3.093 1.1826-8.051 1.1826zm0.6368-19.058q0.86422 0 1.3646-1.41 0.50035-1.4101 0.50035-5.0489 0-3.6388-0.50035-5.0489-0.50034-1.41-1.3646-1.41-0.86423 0-1.3646 1.41t-0.50034 5.0489q0 3.6388 0.50034 5.0489 0.50034 1.41 1.3646 1.41zm60.632 8.8697 0.86422 0.22742q-0.22743 2.9111-1.0462 5.0944t-2.2743 3.275q-1.0007 0.77325-2.5472 1.1826t-3.1385 0.40937q-2.5472 0-5.0489-0.77325-2.4562-0.72777-4.9579-1.8649-2.4562-1.0916-5.0944-2.1833-0.27292-0.091-0.59131-0.22742-0.3184-0.091-0.50035-0.091-0.86422 0.50035-1.9104 0.81874-1.0007 0.3184-1.9104 0.3184t-1.5465-0.3184q-0.59132-0.31839-0.59132-1.0462 0-1.4101 2.5017-1.4101 1.592 0 3.4569 0.81874 1.7285-0.45485 3.002-1.0462 1.1826-0.54583 2.5017-1.0007-3.6843-0.36388-6.6409-1.8649-3.8663-1.9559-6.0041-5.6402-2.1378-3.6843-2.1378-8.8697 0-5.0944 2.1833-8.9152 2.2288-3.8208 6.0951-5.9586 3.8663-2.1378 8.9152-2.1378 5.1399 0 9.0062 1.9559 3.8663 1.9559 6.0041 5.6402 2.1378 3.6388 2.1378 8.8697 0 5.0944-2.1833 8.9152-2.1833 3.8208-6.0496 5.9586-3.6843 2.0014-8.4148 2.1378-1.2281 0.13646-2.1378 0.45486-1.0916 0.40937-2.1833 0.86423-1.0462 0.45485-2.5017 0.86422 3.9118 0.091 6.7319 0.13646 2.8656 0.091 5.0944-0.0455 2.2743-0.13645 4.3211-0.54582 2.5017-0.54583 3.9572-1.4101 1.501-0.86422 2.6382-2.5927zm-16.602-30.384q-2.2743 0-3.9572 2.0469-1.683 2.0468-2.5927 5.6402t-0.90971 8.3239q0 4.8215 1.0462 8.4148 1.0462 3.5479 2.8201 5.5038 1.7739 1.9104 3.9118 1.9104 2.2743 0 3.9572-2.0468 1.683-2.0468 2.5927-5.6402 0.90971-3.6388 0.90971-8.3239 0-4.867-1.0462-8.4148-1.0462-3.5479-2.8201-5.4583-1.7739-1.9559-3.9118-1.9559zm43.894 7.9145v19.149q0 2.0468 0.54583 3.0475 0.59131 0.9552 2.0014 0.9552v0.9552q-1.41-0.13646-2.8201-0.13646-2.2743 0-4.2302 0.13646-1.9559 0.13645-3.6843 0.50034v-3.275q-1.0917 1.8194-2.9566 2.6382-1.8194 0.77325-4.2756 0.77325-2.0923 0-3.3204-0.54582-1.1826-0.50034-1.8194-1.2736-0.68228-0.81874-1.0007-2.1833-0.3184-1.3646-0.3184-3.6843v-11.599q0-2.0468-0.54583-3.002-0.54582-1.0007-2.0014-1.0007v-0.95519q1.4555 0.13645 2.8201 0.13645 2.2743 0 4.2302-0.13645 2.0014-0.18195 3.6843-0.50035v19.513q0 0.9552 0.22743 1.592t0.72777 0.9552q0.50034 0.31839 1.2736 0.31839 0.86423 0 1.592-0.40937t1.1826-1.1371q0.50035-0.77326 0.50035-1.7285v-13.646q0-2.0468-0.54583-3.002-0.54583-1.0007-2.0014-1.0007v-0.95519q1.4555 0.13645 2.8201 0.13645 2.2743 0 4.2302-0.13645 2.0014-0.18195 3.6843-0.50035zm16.466-0.13645q4.0027 0 6.277 2.3652 2.3198 2.3198 2.3198 7.8235h-11.735q-0.0455 0.31839-0.0455 0.68228v0.9552q0 3.184 0.77325 4.9579 0.81874 1.7739 2.0014 2.4562 1.2281 0.68229 2.4562 0.68229 0.63679 0 1.501-0.18194 0.90971-0.18195 1.9559-0.81875 1.0462-0.68228 2.0468-2.0468l0.77326 0.27292q-0.54583 1.8194-1.7739 3.6388-1.1826 1.7739-3.093 2.9566-1.9104 1.1371-4.6395 1.1371-2.9111 0-5.3218-1.1826-2.3652-1.1826-3.7753-3.9118-1.4101-2.7291-1.4101-7.3232 0-4.3666 1.5465-7.0958 1.5465-2.7746 4.1847-4.0482 2.6836-1.3191 5.9586-1.3191zm-3.3204 9.3245h5.2763q0.0455-2.2288-0.18195-4.0937-0.22742-1.9104-0.72777-3.0475-0.50034-1.1371-1.3646-1.1371-1.2281 0-2.0014 1.9104-0.77325 1.9104-1.0007 6.368zm23.607-9.3245q2.0014 0 3.5024 0.45485 1.5465 0.40937 2.2288 0.77326 0.72777 0.40937 1.1826 0.22743 0.59131-0.22743 0.77325-1.4101h0.90971q-0.091 1.3191-0.13645 3.2295-0.0455 1.8649-0.0455 4.9579h-0.90971q-0.18194-1.683-0.81874-3.3204-0.59131-1.6375-1.7739-2.7291-1.1371-1.0916-3.002-1.0916-1.1371 0-1.9104 0.68228-0.77325 0.68229-0.77325 1.8649 0 1.3646 0.81874 2.4562 0.81874 1.0462 2.0923 2.0468 1.2736 0.9552 2.5472 2.0469 1.4101 1.1371 2.5017 2.2288 1.0916 1.0916 1.7284 2.4107 0.68229 1.2736 0.68229 3.0475 0 2.0468-1.2736 3.6388-1.2281 1.592-3.3204 2.5017-2.0468 0.86422-4.594 0.86422-1.592 0-2.7746-0.36388-1.1826-0.3184-1.9104-0.77325-0.72777-0.36389-1.2736-0.54583-0.50034-0.22743-1.0007-0.22743-0.45486 0-0.77326 0.50034-0.3184 0.45486-0.50034 1.0917h-0.90971q0.091-1.4555 0.13646-3.5479 0.0455-2.0923 0.0455-5.5492h0.90971q0.27292 2.4107 1.0462 4.2756 0.81874 1.8649 2.0468 2.9566 1.2736 1.0462 2.9111 1.0462 0.72777 0 1.3191-0.27292 0.59131-0.27291 0.9552-0.81874 0.36388-0.54583 0.36388-1.41 0-2.0014-1.2281-3.3659-1.1826-1.3646-3.002-3.002-1.3646-1.2736-2.5927-2.4562-1.1826-1.2281-1.9559-2.6382-0.77326-1.4555-0.77326-3.2295 0-2.0468 1.1826-3.5024 1.2281-1.4555 3.184-2.2288 1.9559-0.81874 4.1847-0.81874zm22.424-6.7319v7.3687h4.4576v0.90971h-4.4576v18.877q0 0.86422 0.3184 1.2736 0.31839 0.36389 1.0462 0.36389 0.50034 0 1.1826-0.27291 0.68228-0.3184 1.2736-1.0462l0.68229 0.54582q-0.9552 1.6375-2.5472 2.6382-1.5465 0.95519-3.9118 0.95519-1.501 0-2.7291-0.40937-1.1826-0.36388-1.9559-1.1371-1.0007-1.0007-1.2736-2.4562-0.27292-1.501-0.27292-3.8663v-15.465h-3.4569v-0.90971h3.4569v-5.3673q2.4107 0 4.3666-0.45486 2.0014-0.50034 3.8208-1.5465z"
  />
</svg>
